<mxfile host="app.diagrams.net" modified="2024-02-20T03:25:14.857Z" agent="Mozilla/5.0 (Macintosh; Intel Mac OS X 10_15_7) AppleWebKit/537.36 (KHTML, like Gecko) Chrome/120.0.0.0 Safari/537.36" etag="ltm-8vOHfqjBP_QIjPPF" version="23.0.2" type="github">
  <diagram name="第 1 页" id="hYESSozoi8HguPAFBjbO">
    <mxGraphModel dx="1183" dy="819" grid="1" gridSize="10" guides="1" tooltips="1" connect="1" arrows="1" fold="1" page="1" pageScale="1" pageWidth="827" pageHeight="1169" math="0" shadow="0">
      <root>
        <mxCell id="0" />
        <mxCell id="1" parent="0" />
        <mxCell id="S-ePvS7HFxf6z4Owwo0C-5" style="edgeStyle=orthogonalEdgeStyle;rounded=0;orthogonalLoop=1;jettySize=auto;html=1;" edge="1" parent="1" source="S-ePvS7HFxf6z4Owwo0C-1" target="S-ePvS7HFxf6z4Owwo0C-4">
          <mxGeometry relative="1" as="geometry" />
        </mxCell>
        <mxCell id="S-ePvS7HFxf6z4Owwo0C-1" value="start_kernel" style="rounded=0;whiteSpace=wrap;html=1;" vertex="1" parent="1">
          <mxGeometry x="90" y="220" width="120" height="60" as="geometry" />
        </mxCell>
        <mxCell id="S-ePvS7HFxf6z4Owwo0C-8" value="" style="edgeStyle=orthogonalEdgeStyle;rounded=0;orthogonalLoop=1;jettySize=auto;html=1;" edge="1" parent="1" source="S-ePvS7HFxf6z4Owwo0C-4" target="S-ePvS7HFxf6z4Owwo0C-7">
          <mxGeometry relative="1" as="geometry" />
        </mxCell>
        <mxCell id="S-ePvS7HFxf6z4Owwo0C-4" value="cgroup_init_early" style="rounded=0;whiteSpace=wrap;html=1;" vertex="1" parent="1">
          <mxGeometry x="90" y="320" width="120" height="60" as="geometry" />
        </mxCell>
        <mxCell id="S-ePvS7HFxf6z4Owwo0C-7" value="cgroup_init" style="rounded=0;whiteSpace=wrap;html=1;" vertex="1" parent="1">
          <mxGeometry x="260" y="320" width="120" height="60" as="geometry" />
        </mxCell>
        <mxCell id="S-ePvS7HFxf6z4Owwo0C-9" value="" style="shape=image;verticalLabelPosition=bottom;labelBackgroundColor=default;verticalAlign=top;aspect=fixed;imageAspect=0;image=https://winddoing.github.io/images/cgroup/task_cgroup_relation.png;" vertex="1" parent="1">
          <mxGeometry y="460" width="840" height="319.9" as="geometry" />
        </mxCell>
        <mxCell id="S-ePvS7HFxf6z4Owwo0C-11" value="" style="shape=image;verticalLabelPosition=bottom;labelBackgroundColor=default;verticalAlign=top;aspect=fixed;imageAspect=0;image=data:image/png,iVBORw0KGgoAAAANSUhEUgAABkgAAAPaCAYAAADcHtTRAAAACXBIWXMAABYlAAAWJQFJUiTwAAAgAElEQVR4nOzdeUBU5foH8O8MAwwg+youCAKaqOC+5L6bYlqm5pK39JbVdUmzMsssU1PTrvkLS8uym0ulZi6ZuS+4IgEKIiKL7DvINswwM78/pjkyMgMDooP6/fwlc95zzjuHw4Dvc57nEanVajVMKCEhAfPmzQMAmJmZ1Th2x44dkEqliI+Px/z58+Hm5oZvv/32vufwzjvvIDY2FiNHjsTrr7+ud8yqVasQGhoKkUiElStXol27dnrHhYaGYtWqVQCAn376CXZ2dvc9v4YmLy6tcbuFbZOHNBMylry45IGfw8LWxqhxZWVl+Pvvv3Ve27x5M/Lz89GxY0eMHDlSeN3e3h7t27fHokWLEB0djVdeeQVjx4416hyTJk0CAKxfvx7e3t56x61cuRLFxcW1Hk8mkyE+Ph4A4OvrC6lUWus+jo6OWLhwod5tKpUKVT86ly9fjoiICPj6+iI2NhZt27bF/Pnz4erqqrOfWCyGSCTCV199hcOHD6Nr165YsmSJzpiTJ09i3bp16NSpEz7++ONq51YoFEhKShK+jo6OxpYtWyCVSrF8+XLhdT8/P0RGRuLDDz8EoPle6FNWVgaFQgELCwtYWVlV2z5w4EC88sor1V7/8ssvcfToUQwaNEj4DAcgnFMikSAkJAQeHh56zwsAW7Zswd69e+Hv74/PP//c4Lh753vv/ff9998jOzsbXl5ewn0DAM7OzmjdujVmzpyJgoIC9OnTB++8845R53n99deRlpaG9957D71799bZduzYMaxfvx4eHh7YtGlTtX0vXryI5cuXw9bWFtu2bQMArF69GmfPnoWbmxtCQkJgYWFR4/nnzZuHhIQE/Otf/8Jzzz2nsy0nJwczZsxA+/bt8cEHHwivT5s2DQqFAps3b4atrS0AYOPGjTh16hRWrlyJ3bt3AwDeeustvP3228jIyMDLL7+McePGCdfxt99+Q/v27bFixYpar9GlS5fw6aefAgD+/e9/Izg42ODYoqIiTJ8+Hd7e3ggMDMSePXsQGBgIT09PHDp0CMuWLUNgYGCt5wSAyZMnw8bGBps3b8aOHTuwY8cOdOjQAUuXLsW0adNgbm6OH374oda/KcaPHw+5XI533nkHffr0Merc+vz+++/49ddf8eabb6JXr14AgL1792LLli3w8/PD2rVrjT7Wxo0bcejQIfTv3x8LFiyodfynn36KS5cuoXv37jr3AnD3+9OhQwfhsyEiIgJLliyBhYUFdu3apfeYu3btwo8//oinnnpK+HumvpRKpXB/1XaP1NesWbOQnp4OAHB1dcV3333X4OcgIiIiIiKix5fE1BOoSqlU1mm8XC7H1atXjR7v4uKCpk2b1nVaAIC5c+fi1q1byMzMxBdffIENGzboXWS9ffs2AMDNza1RBkeI7pe1tTWefvpp4ev09HTk5+cDADw8PHS23ev8+fPIysqq9RyVlZVGzWXRokVGjUtMTMTcuXMBALNnzzYYcDGWWCwW/r1jxw6EhYVh4sSJyMvLQ2xsLGJjY/Hmm28iODgYEyZMgLW1tTBerVbj4sWLAICUlJRqx9ZeSxcXF73nNjc3h5+fn/B1QUEBAE2AuerrVUkkEvzvf//Tu23NmjU4c+YMhgwZglmzZtX0tgUpKSk4fvw4pFIppk2bJrwul8vx448/AgBGjx5dY3Ckvu69/3JycpCTkwMAcHBwqHb/HTp0SLhGo0ePNvo82gCYSCS63ykjPj4eoaGhAIBXXnml1uAIoAnC1Xb+a9eu6QSEtP79739Xe00sFmPBggUQiUSwtrbG4sWLsXDhQnz//fewtrZG27ZtsW/fPohEIsyYMaPW+ZWWliIkJETn+DW5ePEiVCoVunXrBrlcLrzeo0cPHDp0CGfPnjUqQKJWq1FaWqr33jI3N0fPnj1x/Phx/P333+jatWutx2sIY8aMwYABAwwGIR8UhUKBqKgoANB77RITEwEALVq0eKjzMmTz5s0IDw/H9OnT0apVqwY7bs+ePbFnzx4AqPH3DxEREREREZE+jSZA4uzsjPnz51d7vby8XHhC9V6FhYVYvHix0ecYM2YMZs6cWa/5SaVSzJs3D4sWLUJWVhY2b96M2bNnVxunfbK7TZs29TpPY6asBM787Ieoc8DVKDlyC+Vo1VyKTj0s8OK7iTC3khvcV1Zsjz+/c8fZo5VISZOjZw8phoxXocOQBMSe88KtCCnEYjVGzoozeIzUmOY4tUeT5TBsWhFcvTJRku+MzYudEfF3Oe6UVqJVcynGvWSGfi/G6z2GWiXG8R99ceW0ChFR5bCwMEOnIEv0HKZCj7G3anz/R7/3Q1G+CM28Vej5nP7jX9zbGqm3zGBjq8aIV2/qbLuT44z932gWvXuNkMGnazLO7/HF0d1AVHQ52rWxRJ9hEgx5OR4isarGuQAAlEoUn7mC8oRUVGTmQqRSQuLiBGkzdzTpFQiJi2Ptx2gAp06dEv4dFhaG3Nxcg4v7169fx/Xr1x/KvKpSKBTCv41ZnDbWiRMnsHPnTjRr1gwTJkzAxo0bAQCDBg1CTk4O9uzZgyNHjmDSpEl45plnYGZmhtjYWBQWFgIAsrKykJWVBXd3d+GY2gDJvdknjUVubi6WLl0KlUqF5s2bY9euXUhLS0N6ejpycnKgVqtha2uLCRMmANBc++TkZL3H0l6HiooKIcPnXs7OznB0NHwvnz59WghmZGZmory8XMiEUSqVQtZEQECAkPn37bffQiKRYOTIkTrXviptgKIh/PDDD1Cr1ejYsWO1bBRDagrQ2NjYYOLEiTqvJSYm4tKlSwCAsWPHwtLSUme7i4sLbGzuZom1bNkSb731FlauXImQkBC4urpCqVRixIgRaN26da3z++6774R71RgXLlwAAHTv3h1nz54VXu/QoQOsrKxw7tw5zJo1q9asj+LiYqjVajRpoj/TsV+/fjh+/DiWLVsGYxNkV69ejdWrVxvc3qNHjxr/1hCJRA89OAIAMTExkMlkADTX8V7av0eaN2/+MKdVoytXriA8PBz9+/fH1KlT4ebmdt/H/Ne//oVu3boB0PycExEREREREdVFowmQWFhY6P0Pfmmp4XJQIpGo2iIQoFnY0j6hWjXLw9zc/L7m2K5dOzz77LPYu3cvjhw5gh49eqB79+46Y7QLgf7+/vd1rsYm5owXXnqhGFeydBf9cQ3An8CClVJ8ucQfLy6uHuDIvNUUo3pXIDz77rZfIgDRN8DG+f64Hq3A+sM3IAKgquEB9nP7rTH1wxsAgOMt/ODuY4m+gzORr8jTmc9//wSW7PXBxz8n6Oyfk+yBiQNVOJGoO8et5wFsBKZ0a45vjxVDaluk9/yz5mbgVnEJhrV2x+Hn9A7Bp4vKcCA2A82srJD6qu62lGv2wvz/L9cPNz/wxvrDVRaFIwH8Aoxa44FfL92BlV2ZwWtRGh6D2yu+RXlipv4BIhFazJkI15fGGDxGQ6kaIMnPz8eyZcuwatUqvRlWAQEB8PHxqfWYlZWVOHToUIPNMS/v7j1S02K7sSoqKrBp0yYcOXIE5ubm+M9//qPz+eLk5IS5c+di586d2LlzJzZv3oyUlBS88cYbOH36tM6xIiIiMHz4cOFrbbaDoSBTXWiz8mp7ur8uzMzMhIyN+Ph4vYGNqVOnCgvYubm5eoPfVSUnJxsc89JLL2H8+PEG9z158qTw76ysLKxcuRIfffQRzMzMkJubi4KCAohEIiE4XlZWhj///BNyuRydO3c2GCDRut9rJ5PJkJiYCLFYrDezw5CaAjTW1taYMmUKAM3Pys8//4wrV64I22NiYvDcc8+hV69eNWag9OzZE3369MGZM2eQnZ0NkUiEIUOG1Dq3yMhIHD161Oj3UlZWhsjISDg6OqJ169Y6ARJzc3N07twZoaGhCAsLQ48ePWo8ljbrylB2UmBgIMaOHYvi4mJcvnzZ6DnWpGoGWGMSFhYGALCzs4OXl1e17Y0tQDJx4kRcvXoVMTExOHnyJM6ePYuRI0diwoQJ9x1gYmCEiIiIiIiI6qvRBEjqw8XFRW+t6XPnzuGzzz6DtbU1du7c2aDnnDp1Kq5cuYI7d+5UWzgrKipCRkYGgMcrg2TnyjZ45YN4lKs0i61Bbo7o6N0Ezk4SXI8vQ0TKHWTKyhF2rhIv3rNvYbYregQW4XapZrE/yNURvTvYo/COEsev5eI/X9xEexeHOs+p5I4Ys4ILka+ogKPEAv6udrA0F+FWTgnSysuRk6O7uJiX6oHAtneQIdPMo6OLA3q3t0eZTIXQ6ALcKi7BtsupuOrjgPAMwOwB/2SE/C8bMflFaG5tjUHtXWBlJcLpqEJcLyjCwRuZ6O/vjIvpMr2ZJIrMXCS8818oCkpgZmUBp2E9YOXlCbVYhIrULJReT0RpdBKUd2rvzXG/4uLihNrvgCYwkJiYiNWrV+ODDz6o9jPSo0cPo3uQPIgAiaWl5X0vdqalpWH58uVITU2Fra0t3n//fb2LcyKRCC+++CLat2+PkJAQTJgwAWVlZTh27BgAzeL0hQsXEBUVpRMgacgMkvLycuHf2rJe99Jem6ysLINjvLy8hAVpR0dH9OrVC2KxGE2bNoWnpyeaNWuGEydO4M8//4Svry9GjBhx33M3RlJSEpKTkyESiaBWqyESiRAREYENGzZg3rx5cHd3x8yZM3Hz5k0hK+LMmTOQy+Vwc3PTG5TXMqbElTGkUinmz5+P8PBwYRG7oqJCb3C/rue/du0aNm7ciJSUFAwdOhQnTpxAZWUlysvL8dlnn6Fp06YYO3YsBg8eXC1zKjo6Gtu2bcO1a9eE19RqNRYuXIjevXtj3LhxegP9MpkMGzZsAAB06dIF6enpwu89Q44ePQqFQoHevXvrfT9Dhw5FaGgodu/eXWuARFvGUl9AANAE8PT1zDGVtLS0an2GapKammr0WG1QrEOHDtWuq1wuF74vjSVA4uPjgylTpuDMmTP44YcfkJOTg/379+P48eN46aWXMGLEiAYpaUdERERERERUF490gMQULCws8N5778HOzq7aE48RERFQq9UwMzMz6in5R0FhtivmLE1GuUoJO4k5vl7q/U+WSIEwRlFugQ9f9IG+B63X/ccOt0s1T5u/NdIb6/5IFPbNSfbAgE4WiMjRfG1cMRSNtz/MRGpJKb6a5483vogDkCtsO/CVP5Jv6h5t5SxrZMg02Rbzn/HB2oMJADTlfRQVUkzq5ok9V9MRlVuI7973x6urDZf6aggx+UXo2dQFf0UpYeuiWfBTVgJTezTHzvBUXM7Kw69r/DHh3erzKNh/EoqCEogszND2h09g6duy2pjyazdRWXjngb4HQJM9IhaL4efnhxs3bqBr166oqKjAqVOnsHnzZrz22msPfA7G0AYBnJyc7vtYVlZWyMvLg4eHBz766CM0a9asxvEdOnRASEgIRCIR9uzZA5lMhmbNmmHOnDm4fPkyoqKihMV9tVotZKHVN0ASHR2NP//8EwsWLBDK78jlcp0G7vpcuXJFJwuhqnubK9/b+yU5ORlHjhyBSCTCrFmzdBY5PTw88Ouvv9brvQCa/imGaLNHOnfujCtXrqBdu3ZQKBQ4fvw4XF1dMWXKFIwcORIDBw4U9jl+/DgAYPDgwTUuxmoDFDWd31hdunRBp06dUF5ejp9++gmnT5/G2rVraywvpD3/vSWnVCoVzp07h7179yIuLg6WlpaYN28eBg0aJGRzrVixApcvX8bWrVuxceNGbN++HdOmTUO7du1w7NgxhIaGIjNT83nYpEkTTJgwAUFBQfjuu+8QGRmJ0NBQhIaGIiAgAOPGjUO3bt2Ea7V9+3ZkZ2fD3d0dCxYswMKFC2t87yqVCvv27QMAPPPMM3rHdOrUCS1atEBsbCyuXbuG9u3bGzye9uejZcvqn3v6KJVK3LlTv89CGxub+y7JV1ZWhoiIiPs6hj5ZWVlCMKVnz57Vtt++fRsqlQpSqbRBstEaUt++fdGjRw/89ttv2LVrF0pLS7Fx40YcOXIEr7/+usFeSkREREREREQPAgMk9WCo4enff/8NAPD29m7QPgem9P4kG+TINQGODYt98OLiG9XGmFvJ8dneBFQqdCMk5XesEbJXs4Djb2/7T3DkLlevTHy1wQ8Dp+ovaVWTuKIi7FnbBuPmV5/P6Dd1gwoF6W7YdFhTlqWdk/0/wZEq87eUYfv5Ing6WiJfUYHPQtIwY8WDzSIRQYRt+2xg63K3N4OZBPjhdAH+cLTAHYUca9blYsK71fctvZkEALDy8dQbHAEAq/YPfoEpPz8fR48eRY8ePSAWi3HjhuZ78frrr+P69es4ePAgPD09dRbWG0pcXFydFj21ZaAkEolQlsZYdnZ2Ok/SOzk5Yd68eQgICICdnZ3wenZ2Nvr3749hw4ZVK9ukXVzOzs4GALzwwgto0qQJAgMDER4ejqioKAQGBuLmzZsoKSmBhYVFnQMkCoUCixYtQnR0tBC81WaQSKVSg43p09LScOfOHTg6OhosW1RTYEmlUuHLL7+EUqnE6NGjq2UdGCqFeL+Ki4tx5MgRtG3bFl5eXrhy5QokEgnmzZuHuXPn4ueff4arqyuGDRsmlHtLS0vD9evXhVJSFRUVuHDhAkpKSjBq1Cid42vLk9XUEyMnJwdvvPFGtde1gamqxGIxKisrcfnyZRQVFeHTTz/F6tWr9Zaiq+n8P/74o9CQOiAgAG+88Ua130na99etWzd88803CA0NRbNmzZCUlCT0ZHF2dsbAgQMxbtw42NraAgCWLVuGM2fOYMeOHUhNTUV0dDRu376NkJAQ4Z4Si8WwsLDAokWLDPYBqSo0NBTZ2dkICgoy+LtTJBIhODgYISEh+OWXX2oMkGh/howNkKSmpurtF2aMBQsWoH///rWOKy0txf/93/9hyJAh6Ny5M0QiEQIDAzFr1t2akSkpKTh48CAsLCx0Mly2bt2K8vJyBAcH6wRbPT09azynNphpbm4u9N+oStvzpbEGGywsLDBx4kQMHDgQISEhCA8PR3x8PN5++20MHz4cL730klH3FxEREREREdH9YoCkgchkMqHeeU2LO4+aX85qSnS0dbDHtCU3axwrMdctB3VuT3PkKTTBiunPugOoXvJpwJSbaDXLBkklhnvN6NPVzUlvcESfU784oLhSs6j2ynNuAKoHZCxtSvFCby98cyoZiaWluHnJC217628s3RB6NXOGT9fqx7e0KcXYzi3w48UUhGXnoyDdDY6e2TpjRP+k6pTfTENldh4kbs4PbJ412bJlC8rLyzF69Gj88ccfwuvW1taYPXs2lixZglOnTj2QAMlPP/1Ur6eyU1JS8Mknn9Rpn6CgoGr79OrVq9q4zz//HLGxsZg2bRratm2r91ivvPIK7ty5Iyy69urVC+Hh4fjrr78QGBgoBFm7dOlSa88ktVqNW7duCQuhcrkc0dHRsLKyEkpcVW3g/OGHH+o9zpo1a3DmzBn06tVLZ0HXWPv378fNmzfh4eGB6dOn13n/+tq6dSuKi4sxYsQIoewSALi7u2PWrFlYt24dNm7ciJ49ewqBLO192qVLF7i6uiIhIQFr166FjY0Nhg0bpnPNjenfolQq61QSydbWFosWLcI777yDpKQkrF+/Hu++qycKirsZJPeePzg4GBcvXsTkyZPRt29fnW0eHh5QKBTCPvb29sK5WrVqBaVSieDgYPTo0UNvWSZA83R/3759ER0djcOHD6Nz58462ZJdu3ZFy5YtjcqSVKvVQjBnzJia+yENHDgQ//vf/xAREYGIiAgEBQXpHffhhx8iOTm5Xj0rDJXluldaWhoqKyuNPu6pU6cQGhqK69evY8uWLRCJRPD29tYJSh4+fBiAptxV1UyaHTt2oLy8HN27d0dgYKDR59QGSIKCgqqVDaysrMRff/0FABg2bJjRxzQFNzc3LF26FCdPnsS3336LO3fu4M8//8T58+exfPlyowNhRERERERERPVl8gBJcbFm0Vwmk+ntOVBRUWFw38ZUq/rQoUPCe+ndu7eJZ9MwCtLdkKfQLM736+gIkbhumR63Yu7+u/PThr9XbTyaICm+bgGSEf0cAeQbNTYx9m7gpstAw+M6dbEE/uk3nhhlibYP8NvYwdcGVcuCVdWxgxT4pxVEYoRttQBJk47+yD8SBrVShcT318NjWjBsOrWD2M7mwU34HlevXsXp06fh5eWFDh066ARIAE2j5DFjxjywxTmpVGp0LxGlUlntc0QqlRrdfFvfE/6xsbE6C6hFRUWIjY0FoHkyv2pfBy1bW1t4eXnhnXfeEV7r0aMHvv76a1y4cAHFxcVCgKRPnz4G53Pjxg0cO3YMly9f1mk+b2ZmhkmTJmH06NGwsdHcC9rthp7cv19xcXH48ccfIRaLMXfuXJ1MEbVajaysLHh4eKCwsBCrVq2q8/H79euHkSNH6j3vkSNH0KRJE/Tp0wfbt2/X2T5gwABcvHgRjo6OQnBEJpMJ/V+0C9Q+Pj7w8fFBQkICwsLCdAJf2u9vTSW2nJyc9JaYiomJwf/+9z+9+3h7e2P27Nn4/PPPERoail27dultQm8og8TZ2RkhISFQKBQoKyvT2bZ69Wrh31W3ubm5CV9rm7tX7U9jaJ7/+c9/qmVDBgQEGP0QwF9//YVbt26hWbNm6NKlS41jLS0t8fzzz+OHH35ASEgI/u///k9vJqZIJEKrVq2MOv+9tL1TavPaa6/V2lelKm0wYtCgQQY/V7TN5RviZ1GhUCAqKgqAJhOjsrJS5z49d+4cCgsLYWdn98j8PTJgwAB07twZ3333HU6cOAEPD49G0zuFiIiIiIiIHm8mD5Dk5moWiQsKCrBx40aj9tEudhp6wlqtrks3i/snl8vx22+/CV+fOHHC4BPkj5Los3YANIvzrbzrfqskxd9dQG7uqzA4zt2p7uV3fPyNn09SYpV5+BmeR7MqD0Tfinmw95CHh+H5u7e4u8CWEGOGzveU7Xd+YTjyj15ASWQCiv+OR/HfXwAiEazbNEeT9j5w6NMVNj07QlRLBkJ9KZVKfP311wCA5557zuC4GTNmVHvtwIEDOH/+vFHnqMn7779f6zG0tm/fjp07d8LCwgISiQRlZWV49dVXMWTIEKOPca9PP/3UYImv//73v3pf79KlCz766COd1xwcHNC7d2+cOXMGBw8exI0bN2BhYaG3ZI6WtscIoFksdnd3R2ZmJqRSKSZOnKgzNi0tDcCDadJcUFCAFStWQKFQYNq0aQgICEBmZiYiIyMRERGBqKgouLu7Y926dVAoFIiOjq7zOfQ1CVepVAgJCYFarcawYcMMljN84403dH5HHD9+HGVlZdUW6wcPHoyEhAScPHlSJ0BiTIktCwsLBAQEVHu9pKSkxvfVr18/3Lx5E7///ju2bduGzp07V8vI0AZo9J1fJBJh06ZNwsL8g9K7d2+899571c5tjKKiImzduhWA5rPAmP3GjBmDw4cPIyMjAzt37sRLL71U90k/ZAkJCUhI0JRtrOkzRRsgaYifRbFYjBEjRuD3339HaGgo0tPTMX/+fCFD5uDBgwA093ZtmWiNiZ2dHd566y0MGDAAbm5uRgexiYiIiIiIiO6HyQMkOTma/haOjo5o3bp1jWO1/1muWlf/YVCr1bhw4QICAwP1PrV+8OBBFBYWCl8fOnQIQUFBesvwPEoyku4uzLm6G14kNKS4+G6QwcZBZXCclVXdM4Fa+Bo+3r3yCu4GSBybVu8NoGXvcne+eTnGH78+7B0Mv2cH57vzyEmrvl1kbg7/TR8j95dDyPszFKXRyYBajbLYFJTFpiB71ynYtPOCz2fzYN7MvfoB7tO+ffuQkpKCtm3bYsCAAXXaNzs7W+gh8DCUl5fjwIEDAIDhw4fD1tYW27dvx/bt29GvX7969wry9/dHaakm60kmkyExMVF4/d4F7fz8fGRlZRk8V3BwMM6cOYNffvkFSqUS3bt3r/GzrWPHjvDz80O/fv3Qt29fxMfH49NPP9U79t4Aib7+K/n5mkys7OzsatvFYjE6d+5cbZ/MzEysXr0a+fn5sLOzQ1ZWFl599VWh8bdWmzZtqu07adIkODg4GHx/gOYzVNuMW9+2hIQE2NvbY8KECQaPoe2rAWiC2NpG8WPHjhUW60tKSoQ+B2FhYSgtLRWyb4zJILkf06dPR2RkJJKSkrBu3Tp88cUXekt8GTq/RCIxureLUqkU3k9d+sHcz+L6li1bUFJSgm7duqFr165G7SORSDBjxgx8+umn+O2339C7d2/4+vrWew73mjdvnlHjtA9uGOPIkSMANJk1hvqGqNVqJCUlATC+d0pNzMzMMGPGDHTo0AHr169HYmIi5s+fj2nTpqFjx45Cn53hw4ff97lMoVOnTnUan5ubi7179wLQ/Hw3tqb0RERERERE1LiZPECiXYjo37+/TuPSmmjr6htaRGyo0ltqtRoXL17Ejh07kJiYiPfee69auYpbt27hp59+AqBZIGnatCmOHj2KDRs2wM/P75H+j7p/p7vZFrcTja/HrtXS6+5CcepNS3hXX2cFAGTlyet8bLM6PFja3PPuwnTmTWs4G3iANyvl7n3TwrvuASEAkCuMC6xkZxkel5N+dx7NfQzcyxIzuEweDZfJo6HMK0RZ9E0UX7qG3D9CUVlUhtKYZCQtDYH/pqVQN3ApuoKCAohEIrz22mt1/lnr27ev3gX3e8nlcqMzympy6NAhoen5+PHjIZVKsX//fuTm5uLAgQM1ZsDUZMmSJcK/t2zZgsTERHTu3BlLly7VGadSqTB//nwAhp8ub9u2Lfz9/REXp+nXU1N5LQDw9fXF2rVra52jXC4XPl+1ZX1q6r8SFhZWLUBiaWkpBBaq2rp1q9D4/s6dO0Img0QiQUBAALp27YquXbvqNJ3W6t+/v97XqwoPDzcYINGWL5s8ebLRZdb27NmDvLw8SM1qa8IAACAASURBVKVSVFZWYv369bhx4wbS0tKEjEOFQoGzZ89i+PDhUKlUQoCivkG02kgkEsyfPx/z58/H7du3sWvXLrz44ovCdoVCUeP5Z82aZXTPmGPHjmH9+vWwtbXFtm3b7n/ytTh+/DhOnDgBc3Nz/Pvf/67Tvt27d0fnzp0RHh6OFStW4IsvvqhXvxF9DN1T96otg01LLpfj5MmTAIChQ4caHHf58mUUFBRAIpHgqaeeMurYxujevTvWr1+PNWvWCP1PtD8THTt2rLXR++Pi22+/xblz5wAAWVlZWLx4sYlnRERERERERI8SkwdItBkkVZuZ1kZb2sbKyuqBzAkALl26hO3btwulMwAgPT1dZ0xpaSk+++wzKBQKWFhYYPbs2XBwcEBkZCRycnKwdu1aLF++/JEtE9G2dxZEEEENNRKSDPeCMcTnqbvvO/mGGH0NjMvIM1z2qiG08r17m6fcNEOAgT4k6Yl3Mzd8nqoewLA01wRNZDUEQdILjbtOGVmGA04ZqXcX53za135tzJwdYNuvG2z7dYPHqxOQsPBz3Am7geLwm5Alp8OyVc2L0XU1bNgwyGSyWjO+9PHz88PgwYNrHVdWVnbfARKZTCY8VfzMM8/A0dERAIQ+B9u3b4efnx86dOhQ73NkZ2fj4MGDEIvFegO8+/btQ0JCAry9vWssm9WnTx8hQGKoOXVdJScnQ61Ww9HRUciK0PL3969x4V8mkwkBEH26dOmCc+fOoWnTpkIzah8fH7Rv3/6BZ/YNHToUqampRj8dn5mZiR07dgDQvK9vvvlG2Obp6Sl8/w8fPoyTJ09i+PDhOj1rHlSABABatWqFyZMn49atWwgODhZeV6vVQsaHMeeXyWRCz5MZM2aY9HdObGwsvvrqKwDACy+8gOzsbOzevVtnjPZeT01NFcZqeXt7480338TcuXORm5uLVatWYdmyZTWWOjNW1VKYNTG2B8m5c+dQWloKKysrPP300wbH/f777wA0P+e1ZU9VJZPJYGlpWWMg2sXFBStWrMC2bduwe/duoddMXRq+P+qq/m2WmppqwpkQERERERHRo8jkARLtE851CZBoy7g4Ozs3yBy0T4uq1WpcvnwZO3bsEBYHxWIxnn76aTz//PM6NeJVKhW++OILZGVlAQCmTp0qPK05Z84cfPjhh4iOjsYvv/yCSZMmNcg8HzZLm1J4NbFBUkkpDkXk4E6OM+xc82rf8R+d+lcIAZZff76DqUuqj8lO9ET4PWV5GppvwN3Ax597KjHiVf3j/jpWfHefLtVLcXk4WCAmH8i6oz/jpaLUBreLjGs2f+aa4Qbzp0I18xCLRPDpUrdrI7azgcfLY3EnTNMQW5GZ2+ABkubNm2PmzJkNesyGplAosHz5chQWFgrNn7XGjBmDK1eu4OrVq1i2bBk+/vjjej/VvXXrVigUCgwaNKha6ZyoqCghu2zy5MkGj1FWVoZ9+/YJX//8888Ncn21Dd/19TxYsGABmjZtanDfxMREzJ071+D2fv36oU+fPg+tzGFVnTp1gr29vdFBABcXF0gkEqjVavj4+KBNmzZo06YNAgIChN8heXl5OHz4MGJiYpCTk6NTWqouJanq4/nnn6+2AK5QKITMFmPOX1FRgf379wMAXn75ZYPXRqFQGNUDyMHBoV4/E9nZ2Vi+fDkUCgW6dOmCiRMn4sCBAzh8+LDe8drrXlX37t3xzDPPYM6cOVixYgWuXbuGX3/9tVH+HtVe8379+hn8PiUlJeHq1asAgNGjR9fp+EeOHMGuXbswfvx4nQDavczMzDBq1CgcPXpUKPf5008/wczMDOPGjavTOR9FL7zwgtAXq6bPWiIiIiIiIiJ9TBogKS4uRnp6OiQSiVACxhjaJzvd3Nzuew6lpaVC89SjR48KzY8tLCwwePBgjBs3Dh4eHjr7yOVyrFmzBpcuXQIADBw4EM8++6ywPTAwECNHjsShQ4fw888/o0+fPjU2Zo2Li8OBAwdQUVGBqVOn1ulaPGgLZzbDm/+NQ76iAkune2LdH4YDJInhLeHd+bbwtU/XZIzw98ChuEz8GZuF6BM+CBiYoLPP6tlSKNQPtt/HgKm30GqOJtCz/UQGlhfaw8ahSGdMytXm+CtO8xRq3xauaN6u+lOoTZ0tgQQgoagYyZEt4RV4W2f71ws9cafyplFzSiguwZHv/DF0RpzO66nXWuJEgubco5/ygJVd9aeY1QpFjQ3YK3MLhH9bNm/4HiTAg32q/n7JZDKsWbMGkZGRAIAXX3xRp0SPRCLB4sWLsWjRIiQmJuLjjz/GkiVL0K5duzqdJzMzE6GhoQCAEydOICcnB4MHD0bv3r1x48YNLFu2DHK5HOPHj0ePHj0MHufrr79Gbm4upFIpZDIZ9u/fj86dOxtViqwm2gBJXYLPxjL2+y+X1718Xm1EIlGdspckEgnWrVsHT09Pgz01nJ2d4ePjA3t7e8jlcp15P8hMRUB/SciqGSwNGaCRyWRYuXJlreP0lYszhkqlQllZGZo2bYq3334bIpEILVu2xLBhw3TGxcXFISkpCU5OTtX6k2jv1549e2L06NE4efJknXsdGfLOO+8YNS4vr/YHAa5evYqbNzWf96NGjdI7prKyUli49/Pzg7+/v5Ez1SgpKUFBQYHwN4oh5eXl+OSTT1BYWAhra2s4OjoiLS0N33//PeLj4zFnzpwHHugzpb59+wqfsY35dxMRERERERE1TiYNkJw5cwZKpRI+Pj51Kp9x+7ZmYdrV1fW+57B3716hp0llZSVsbGwwatQoBAcH6617XlZWhmXLliE6OhqA5mnmOXPmVFvkevnll3HlyhVkZ2fjm2++wbJly/SeX61WY926dUKJiPT0dGzYsOG+31dDeX1tPDZvc0RETgG+OJSIrG4t8OVvCjg312Q2qFViRPzVCm/OLEKvQAnWHtTdf8nKJjj0PCBXqdBveBr+u9gfw18qQVG2OTYvF2PtwQQ4SixQUNnwC6laEnMV3n2tGV5fG4ccuQwD2lhj/7mm8GitCT5cP+uNUSOyhUDNJ8vtAeRUO87YCdbYdhlQqFV4aUw59p53g6NnNtQqMX782A/vb7oFK7EZylXG1a9/8fVk7Hf0Ra/nNNlKyZEtMax/ARRqFUQAPlytf2H25msfw9qvBVzGDIFlOx/h3lPJKlD293WkfvULAMDS0wkWzdyh1nuUx1N8fDw+//xz4edp3LhxevuMWFtbY+nSpVi4cCGys7OxaNEiPPvss5g6darRC2weHh7YtGkTjhw5gr/++gtXr17F1atX8c0330CpVEIul6N3796YNm2awWOcPXtW6GHw9ttvIyIiAgcOHMD69euxYcMG2NnZ1f0iQLNgGhsbC0DT8+NhKiwsRFhYGC5evIiIiAisXr1aaIRuKl5eXrWOWbFihdC/ISYmBoBmsbWm+yE/Px/vv/9+tde1ZSDrq7T0biZa1Wbz90sikaBnz561jqtvUM3DwwNTpkxB165dhbJugYGB1co9/fDDD0hKSkKLFi3wn//8x+DxXn75ZfTv37/aQwr1pQ1o1MaYHiS7du0CoPkboFWrVnrHfPXVV4iJiYFYLMb06dONnqdWfr4m01BbHtDQXFetWoXExESIxWIsXLgQbdq0EbJvzpw5g6ysLHz44Yc6f9MolUqDmT3GXqfGhIERIiIiIiIiqi+TBkiOHz8OAHV6cjsvL0/IIGmIJ6ODgoLw888/w9nZGc8++yxGjBhhsGxMenq6sBABAB06dMCiRYv0BnekUilmzpyJFStWIDIyEmfPntXbfFmhUKCg4O4T/8nJycjNzW00zd1FYhW27bbDC8+qEFNQhO1hKdjeAmhmZQVHa0skFJagTKnJCukVWD2g1PO5eITM88fc9fHIV1TgpaVxwNK720f4ucOvlRU2HElCw7YS1zVzZTz27ddks4Rl58PTF2htZwtZpRKpZYnCuNcHtsKAafp7Lzw/Px6tP2mCW8UlOH07B+7NxWhu3QTZMhlKlTcwsVNzlJRV4uCN2stiPd/RE39cy0Lv5+PRVGoNa3MxEopvC8GMOcO90XVUgt59leUVyN51Ctm7TkEsNYe0lQfMrKUouZYAtVyzsCeyMIPPijkN3qC9sSoqKsLu3buxf/9+KJVKiEQijB8/vsbghKOjI1auXIm1a9ciJiYGe/fuxcWLFzF79my0b9/eqPO6ublhypQpmDRpEnbt2oVt27ahvLxc2F5aWoobN26gbdu21fa9efMmQkJCAABjx45F9+7d0alTJ1y7dg1JSUlYt24d3n///Xot/F24cAFKpRItWrSAn59fnfevi7y8PMTHxyM+Ph4RERGIi4sTykM9Sqo2fNc2866tObhcLheaxjekqr2vGqpBOaDJhjE2i6K+9AUk68vc3Bxt2rRpsOM1VA+ShIQEIUPLUAmrPXv24NixYwCAf/3rX+jYsWMdZ3s3W9ZQgEgul+PLL79EeHg4AE3/mS5dugAAPvnkE3z55Zc4efIk4uLi8NFHH+GLL74Q9lUqldX6vxARERERERE9iUwWIElLSxMatRrbbBeAUMvbxsamWs3/+mjXrh0WLFiAPn36GMxiUavV2L9/P3788Ueh9MqQIUPw5ptv1pj50rNnT7Rv3x7Xrl3Dd999h65du1YLvlhYWGDSpEnYvn27UFYlISGh0QRIAKBd32REZEjxwQQfbPwjBcWVCqSVlyPtn4Vgc5EYI59yx7Q5+vd//Ys4eD/lh1UrihCRVoiiSjn8HezRv6Mj1v1egIXPaTIlbCXmAB5Mw3aJuQp/3MjEqpdbY9lPySitrET8nbs9R1wspPhisRemLrlh8BgisQonQh0wZrA5InI0mR6JpSWwNpNgQlBz/HQxHeM6GlfSauBAG7z4Umu8uigZGbIy4J+WJzZmEqx8oxVmf2m4QbZrcH/kH72A0qhEqGQKlMXqll9x6NcRnjPHQxrga9RcHqatW7di27ZttY4zdoE9Pz8fBw8exP79+4VMMHt7e8yfPx+dOnWqdX9XV1esWLECv/zyC3bu3ImMjAwsXrwYnTt3RnBwMDp16lRjg2RA05R6165duHz5MgBNcDQwMBBhYWGIjIxEZGQkAgMDMWnSJAQEBAAALl++jNWrV6OiogL+/v7C0+Xm5uZYuHAh5s+fj/DwcCxZsgSLFy+uMYtAXxkrbW+EwYMH693n5MmTNS68a3tD6VNSUoL9+/cLQZGqAV4tHx8f9OjRAz169IC3tzdycu5mZP3000/VmsbfSxuENgWVSoW9e/cCgE7fKX3s7e31BuESExNx8OBBPXsYR3t+FxeXx7o00qNK23Te29sbQUFBOttkMhm2bNkilOvs168fxo4dW+sxtc3VtQoKCoS/kfSV3czOzsbKlStx69YtAMDIkSN1+pRIJBK89dZbcHNzw+7du/Hyyy/rfJaJRCI0a6a/P1VxcTGKior0biMiIiIiIiJ63JgsQKLNHmnTpo1R5U+0zp49CwB46qmnal24NIZIJKqxBE1GRga+/PJLoaSWmZkZpk2bZvRTsq+88goWLFiAvLw87N69G1OmTKk2Zty4cRg+fDg2bNiA0NDQBisn0pDMLWVY9XsCVkFTCurvk1Lkpovg216J9gPuwKWF4adtAWDEqzeF5uh3m71rFmAysjVPbrewswFQaPAYE96Nw4R3tV/VrwTIu9/fwjvfiXHjghfCjkohtVaj21DZP/1EDAdHtFp0SEVYOhB7xgdhJ83h5avE0xNSYW6p6Ruy/7r2OpQbPsg/nl8Qh+cXAJFHfPD3KQk69lYicNgtmEkMB0cAwGXyaLhMHg3VnVLIUzKgyCuASiaHhYcLzJu6QeJquByLqSmVSqPK19REoVDgwoULOHbsGCIiIqBSaUqjSSQSjBw5EhMmTKjTU/disRiTJk1CUFAQ1q1bh8zMTFy5cgVXrlxB8+bNERwcjEGDBuksVCckJOD8+fM4d+6c0B9AJBJh6NChmDp1KhwdHZGZmYmdO3fi5MmTQqDk/fffR1FRETZu3AiVSoXmzZvjvffe0wm0tmjRAnPmzMG6desQExODd999F0uXLtXpuRQXFwepVAqRSISjR48CANzdNcG5mJgYxMfHQywWY+DAgXrf844dO4y+PvdSKBTV9re3t0fbtm0RFBSE7t2711j+UNu3pTFISUlBaWkpLCwsYGlpiaSkJBw7dkx4cr+2clRWVlbV+msAwMWLF40KkOTn5+PSpUswNzeHubk5CgoKcObMGWFhvHv37tX2yc3Nxb59+3Req9qz5Pvvv68WuNeWpayoqMCWLVtqnde9xowZ06iC9g1NqVRCrVZDIpEgLS0N2dnZAPSXN6vae+je7JGYmBj897//RWamJoswICAAs2fPrvHc3t7eiIiIwJYtW3Dt2jWYmZmhvLwcp06dgkwmQ5MmTaoF6sLDw7F27VoUF2uC/MHBwZgxY0a1Y4tEIkydOhWDBg2Cp6enzjZzc3Mhg+1eu3btwo8//ljjvImIiIiIiIgeFyYLkGifEB4xYoTR++Tm5iIsLAwA9JarehDy8vKEWv7e3t6YM2dOnRoE+/r6YsCAAbh69arBp7kBTSPeyMhIODo6Gnyqs7HwCrwNr8DaxxmiCY7cFZumeXK2lav+0mYNTSRWoW3vZLTtXb/9zSRAwMAEBOhfe66zwKEJCBxa9/3EdjaQBvji4Vy1hhEcHGxUTwyZTIYPPvhA7za5XI7NmzejsFATTLO0tET//v0xceLE++pL1LZtW2zcuBHHjx/Hr7/+iszMTKSmpuLrr7+Gr6+vUKrqjz/+EBovA5ossB49emDChAk6wV4PDw/MmzcPL7zwArZv347S0lIEBARgxowZUKlUeOqpp/DBBx/oXYTt27cvrK2t8dlnnyE1NRXff/893n1XiA5i06ZNwiK6Vq9evQBoymsBmkbbhnoX9OzZU6ek1L2Ki4uFjJh7OTg4oG3btmjdujXatm2LNm3a1CmoO3DgwFp7kly6dAlZWVlGH7O+zp07ZzCjKSgoCIMGDarXcQMCAvD5559DLBbXOM7CwgIbN27UmzHl4eGBqVOnVnu9oKBAyDDRR5s9pI9cLq9xX0P69u37WAdIbt26hbfffhvm5uaorKyEWq2GjY2N3rJY169fh1gshpOTE/r27Su8rlarsWHDBmRmZkIkEmHixImYNGlSrfdAv379EBERgaysrGrfO5FIhMmTJ+scQ61WY8eOHSguLoZEIsGsWbP0Bumqqhocsba2hp+fHyQSw3/+OTk5wc/PT2/mChEREREREdHjxmQBkrfeegsrVqzQWWCojZmZGYYMGYILFy7g6aeffoCzu6t9+/Z47bXXUFRUhPHjx9epmbzWtGnTUFlZaXARUSaTYfPmzSgpKcHrr79er3M0ZnmpHkJT93sdDGmD2EJN5sYLL9gBqL1/Bz26XF1d4e/vX+u4e8vNVGVjY4OZM2fi4MGDGDJkCPr06QMrK/0N7evKzMwMQ4cOxeDBg3H69Gn88ssvCAoK0unjMWTIEOzduxdNmzZF//790atXrxrP36xZMyxcuBBqtRoikQiTJk1CXFwc5s+fX2N/kS5dumD58uVYtWpVtQbPgYGBQgDB2dkZffr0EUoVTp06FVlZWejXr5/BY7/88sto2rSpwe2JiYkGAyQikQirV682uG9tJkyYUGsQOCsr66EESIKCgnD69GlUVFSgsrISEokE7u7u6NWrF0aOHGkwS7F3795o166dwc/qJk2aGHWfN2nSBCNGjEBqaioqKiqgUqng4uKCtm3b4plnntHbD8vZ2RmTJ0+u2xu9T87Ozg/1fA+bn58fHB0dUVxcDAsLC3To0AEjRozQG0QYOHAggoKCkJGRofP9F4lEmDVrFtavX4/58+cb3cdoyJAhCAgIwPnz51FSUiK8bm9vj4CAAPj66pZKFIlEeO+99/Dxxx9j1qxZderhBgD+/v5Yu3ZtjWMGDRpU7+AgERERERER0aNGpDZhN12VSlXr05X6yGQyg43UAU1j5IyMDIjF4lpryJtaYWEh3nvvPaSnp2PYsGF444036nVN6kJeXFrjdgvbmp/uriufJjbwcrHBtMkO6D5EjtZds5EU5Y4/tkrw0Q+JKK2sRJCrI/7Ort7L4HESfcIH7Qdpmi//31w/vPlf48uEyYtLah90nyxsa+4LUZPc3FyUl5fDxsYGTk5O1bYnJyejrKwM7u7uerffS61WC7X1W7ZsWa9G5Q1BrVajsrIS5ubmOq8rlcp6BzKVSiXEYrHRJQLlcnmd379arYZKpao2x/h4Tfk2Ly+vau/p3nPevn27wT5DVSqVkPFjb29f67UrLi6GQqGAVCqtMdOl6nwrKiogkUgaLFhGxrl16xbkcjk8PDwMZizdKy8vDwUFBbC2tq5W+qmuavveV1ZWCj11Hkb5yoqKiofSN0YbcG3s1Go1oqKiAACtWrWqU/lDIiIiIiIioofBpAES0vQyWLNmDcaOHVunZvX342EHSLyaWON2qeGMgHZO9vhllzMCBiY06Hkbm8c5QEJERERERERERET0qDFZiS3S8PLyQkhIyCPxJGh9LX+nBQ7tL0PYzTvIKS1HsVIBd6kUvm62GNTbFou+T4O55eMdHAEAC2sl/O01/SacXB/f7zcRERERERERERHRo4AZJE+gh51BQvePGSREREREREREREREDYsZJFTNw1iMJyIiIiIiIiIiIiIypQfbDZwaJbGkfs2l6fHFe4KIiIiIiIiIiIieNAyQPIHMLCxMPQVqZHhPEBERERERERER0ZOGPUieUGqlCkq5HKpKpamnQiYklpjBzMICIjPGSomIiIiIiIiIiOjJwgAJERERERERERERERE9cfjYOBERERERERERERERPXEYICEiIiIiIiIiIiIioicOAyRERERERERERERERPTEkZh6AkRERERERA9LcnIyUlJSUFlZaeqpEAEAbG1t0aVLF1NPg4iIiOiJxAAJERERERE9ETZt2oQ1a9YgKSnJ1FMhEtjY2OC5557Dli1bTD0VIiIioicOAyRERERERPTYKy4uxpUrV3Dr1i2o1WpTT4dIUFRUhMuXLyM9PR2enp6mng4RERHRE4U9SIiIiIiI6LGnUCigUCgYHKFGSaVS8d4kIiIiMgFmkBARERER0WPv3sXn2bNnY8GCBbC3tzfRjOhJVlFRgcOHD2P69OmmngoRERHRE40BEiIiIiIieuJIpVLY29vDwcHB1FOhJ5BMJoONjY2pp0FERET0xGOJLSIiIiIiIiIiIiIieuIwQEJERERERERERERERE8cBkiIiIiIiIiIiIiIiOiJwwAJERERERERERERERE9cRggISIiIiIiIiIiIiKiJw4DJERERERERERERERE9MRhgISIiIiIiIiIiIiIiJ44DJAQEREREREREREREdEThwESIiIiIiIiIiIiIiJ64jBAQkRERERERERERERETxyJqSdARERERERE9DiLiIjAihUrkJ6eDgBQqVQoKCgQticlJWHcuHGwsLAAAIjFYvj6+uLrr78WXiMiIiKihscACREREREREdEDZG9vDycnJ/z66696t5eVleHy5cs644cMGQKJhP9lJyIiInqQWGKLiIiIiIiI6AFq1qwZRo0aBU9Pz1rHmpmZoUWLFpg+fTrEYv6XnYiIiOhB4l9bRERERERERA+QhYUF2rdvj9GjR9c61tbWFi+88AJatGjxEGZGRERE9GRjgISIiIiIiIjoAfP09ERwcDCaNm1qcIyZmRlatmyJadOmMXuEiIiI6CHgX1xERERERERED5ilpSXat2+P4OBgg2Ps7Ozw3HPPwcvL6yHOjIiIiOjJxY5vRERERERERA9B06ZNERwcjP379yMjI0NnmzZ7ZOrUqcweIWokioqKcOnSJRQUFEClUpl6OkSPNGtra3Tr1g1ubm4wMzMz9XSIBAyQEBERERERET0ElpaW6NChA0aPHo3NmzfrbLO3t8fYsWPh7e1totkR0b327duHTZs2IT8/39RTIXrkSSQSjBs3DnPmzIGTk5Opp0MkYICEiIiIiIiI6CHx8PDAs88+i/379yMzMxOAJnvEy8sLU6ZMYfYIUSNy6tQphIeHo6yszNRTIXosODk5YebMmQyQUKPCAAkRERERERHRQ1I1i+Tbb78FADg4OGDMmDFo3bq1iWdHRFUVFRUJpbW6desGT09PlgYiqqP8/HycP38eFRUVKC8vZ7k6anQYICEiIiIiIiJ6iNzd3TF27FgcOHAAOTk5aNWqFV588UVmjxA1YmPHjsWgQYMglUpNPRWiR0pUVBSioqJQUVFh6qkQ6cUACREREREREdFDpM0iGTVqFPbu3YtRo0bB19fX1NMiohq0bNkSHTp0gI2NjamnQvRIKSsrg0TCJWhqvHh31oNSqURRURFycnJMPRWiRsfBwQEuLi5MOyZ6SFQqFYqLi4Ua5kRED4pUKoWHhwcsLS1NPZXHgkqlQlJSEhQKhamnQiZSUVGBbt264caNG+jSpQvi4+NNPSUyEbFYDHt7e7i5uZl6KkRERE8cBkjqIS0tDbt278aNuJuwtLIy9XSIGg2ZTAbvli0x9tkxeOqpp0w9HaInQkZGBvb8thfXoqP5O4mIHphKpRJSC3MMHTwYI0eMMPV0HnlKpRI3btzAipUr4eTKBdEnWXFJCcQWlvjr+AkcPXnK1NMhE5HJZGjdygsv/+tfDJIQERE9ZAyQ1ENeXj7Cr16DyM4JTdsEmHo6RI3G7fibuJGQiNTUVAZIiB6SnNxchEVEQtXEnr+TiOiBKS4sxO3rVxEVdZUBkgagUqmQkpKCsMirmPTmPFNPh0zICUDLzj0hEolMPRUyocTYGERFRyMvL48BEiIiooeMAZJ6UKvVsLK2gU/nbujcZ4Cpp0PUaNg6XkBS2AWoVCpTT4XoiaFSqmAh4Z0LWAAAIABJREFUteLvJCJ6oHKzMqAoL4VSqTT1VB4bKpUKTq5u6DX0GVNPhYhMTGptg/hzJ/n/KCIiIhMQm3oCREREREREREREREREDxsDJERERERERERERERE9MRhgISIiIiIiIiIiIiIiJ44DJAQEREREREREREREdEThwESIiIiIiIiIiIiIiJ64jBAQkRERERERERERERETxwGSIiIiIiIiIiIiIiI6IkjMfUE6DFQno306Es4H5kCsybuaNa+D7oFuJl6VkRERASgsigFSRGhiIwvgNSpBby7DES7ljamnhYRERERERGRyTFA8ki5g7LMNOSkJCI93wN+vdvB0VYKM1NPqzgDCad+xOaQU7Dw7IynZ7ZupAGSUpTnZiAvNQkZObbw7NAW7h72j8EPQRFK01ORdTsB6QUt0WFQAGwtJUwPIyIiAIAiNwFXD6zH5j0JsG/TH8/YdWOApF4qoVQUojjtNrJSs1BU6YOAAW3w4K5kKcpz0pCbmoi0XGe06tQGri62pv+7j4iIiIiI6DHy6K8NP0HUpddxaccOhIVfQYJsNP79VCvYNYYAyaOi/Bau7v8VF8+eQ/ydngh+2w1Oj0GARF1yFaFb/oewmEgkV07Bgt5+aGL5qL8rIiKixkWtkqEsNRQnvvkVEYlZKHN9BS0H+MMGogdzwrI4ROz5GRcvXER8yQBM/NADDgyQEBERERERNSiuoj5KCm7h3J4/cTG9AIp2ClSaej6PGPWd24g4fAynL99CWeuOqDD1hBqIOv8Gju/4A1EyOdSBlVCbekJERESPIVGlDMXJkTi2+wgSzF3gMujBnk9VlIwrfxzB6ehUyPx6Qv6A4jBERERERERPMlbhISIiIiIiIiIiIiKiJw4zSBq7rAicungTFYpKIP8SssoqoAIgKryO8EN7kOtsA7N/nih06zAE/q1cYW2h+VotK0NxTjJup2cjJzsPCrkmZ0JsYwtHD280924FZ3ub6jeBvBhFmQlIj09Gbn4ZykVqiKVWaOLWEs28fODm5gBLI6evKMlFetQp3MiQQ2RmA9tmHRHUrRWk93tdSjORdisWWQnZyFcqoQJgZu8I12Zt4OXTHLaW5hADUOdfx+WwWBQWy6AuikJSXjEqRQCKE3D99AGIUlwg+ef6Ofn1hK9vKzhYiwAUITsyCgnxaShz8oHvU63hos5GesxNZBSUoVxkBVtXX/i084W7y92rUXknDamxEYhLuQMLh2Zo0a47Wjf9591WFCEvIRJXYtIgljrAxbc7gto4674vlQKKojSkxt1AdmoBiqAGRGKYu7ihWZtu8HdvAqhVUGVewdFz8QAAdd4VFKiUUAMQ51/FxX2/ItHaQoh+enYeDb8WtmDVLSKqnQrqkgykxF1HdmLu/7N334FtVXfDx79XsoZlydbwkve2Y2c5e++ELCAJCSGFQNmj8HbQ9ind46HQpy0tLaVAGS2zUAgkJJBAErJ34gzH8d57L8lDlvT+YSexScKIUwLh9/nPulf3HB1L95x7fmfQ2DcnTW2xYU8eS5LdjI9q4DD2jvpCynNKKa+rw+U+/9zG4NSZxMeFYNI1UbnvCEXl9biCh5A6NApDWykVOYVUt3XRhR/msBTih0RjM2vPvZCrndbqIirzi2locOBQvCg6PX7hccTEJhNmPlu79DjqqM4+SFZxC1pjEGFDJ5MU7nv2OiVH2XesDJXGSEDCBMamBuFxddCat4sDpxrx0dpJnDEJS1suJdknqGjyAApmWzqxo5OwmZRLNsrE29lIfVke1QUVNDq66cKLys+E2R5HZEz0gLra1ZBP/sksyuoc+IYkET9kGGG2vrJyVlOak0l2YR1qUxiRySNJig44Jz3F3Ul75UnyTmZS1+rBx8dEYPhwolIj++rAj2ewh56WCsrycqgvbaSpr27ysQZij0wlJt5OX8nSkLGWI0UdeL1eLGlXMTLRgkb9sWvWZ7LnYC7tzi50YaMZNTwGk1/fZ+hooKY0l5qCSho7XHTjRWX0x2KPJyo2CovJcEkar94eJ866EirzCqmrbaNd8aLSaNEHhRMelYg93NbbVulup6X4KPtPlEFPO8352bR5wevpoqt8P7veBP++j6fy0RE1YSlJIWc/r9fRRkNVNkXlLTQ11MOZ35SV4PAhxMSH4+ejPvtdqs9k78Fc2pxdeJuPUNbkxO0FpSWXzC3v0pVjPtNuCUyeQkJCBP76/uXbSXtZHpXZBVS3dtKJF8UQSGBkAnExYQQYP2sLTogrm7ezkbrSPGoKKmhwdvfda0xYo1OJi4rEbNAMOL+7rY764iLKyqpo6XCe95qm0ERiho7BHuCkpTSXgoPZNPoFEZ40nHhbBzUnMimvbqVN8UFnjCImbSjREYZzL/RZngf6ceZvZffxWrxeL9ah80lPMKM+fd+tPc7OA7l0dLnQRoxj7PAo/Hw1dJYeIONkKW1OP6LGTcCub6exOJOyqlY6XR78TPGEDxmC3S7PEEIIIYS48klz58su/x3+/osXaG7tHPh65Wbe/r/NA16a8KN13Bl8OkDSQf2Rrez+aD27DueQn19Cp8MBgE9QIPaUSYyetZQZcyaSEGY580XoaSwk/8gODm7bQubugxSXNtECqAL8sSWNYvy8Vcy5ej4pQZ8e4nB3NFN5YA2vPf4rtmX6YAgZw7QH/ofUMdHolYtfJ6KzaBf7d+zg8PaN5OzNp6LbTQ+gCo8kcdhMZn/zPmYOj8KkU6MUb+Hff3yarPzagRep3cfmp/bRvwSH3/4Xbr01FrMBoJrc9c/x8j83UpG8iGuunUxU2372rtvOqbImWjATnDCFGTeuZt7CiUT0BUm6a7I4+NpveG5dEea0uVz9vZQzARLFUUXJ1md47LEP0QankH7rYwMCJN5uB40529m/bRsZO7aSl1FGtRdQq9HEJpE+79vcfc9Swn3deE69xmM/fOXcMi/bwKu/3DDgtRmPjOfuECM6H1mbQwhxYV5PD478Hezdvo0j2z8gd18RFX1r9qmio0mb+QB333c9sVbdmcB8Z8k+tq1bw74PD3A8r4CO7u7zXnvs9/7NHcGhmHRlHH/pcV7fdID6kTdx85JU9EXb2P3+XvJq23B4bYQPm8Pcm1czc9YIQvoFSVxNJZRk7GD/9i1k7jpAUXEDzYDKaMIyfALjZyxn5uQJJKWEogN6Ggo5seZhHv93Pqa4ccz7/tAzARJvZyPVu5/nsV9vQG2OJPGWJxibGoS3q4Xyzf/HY4+fRG9KZdHvfoD/gTc5tHUDJ0rdgEJ4zDLGr7yNJXeMIlClGnSQpKv6OCf37uDQ9g/I2nOC0kYnTm9fXT1kElOX3srs6WMID+gti46iXXz47J94b3c1odPv4KYH4s4ESJSGPI6s+TNPvXoQXcJsFt3zs3MDJJ1NNB3fwrYDe3jvvQ0U1njQ6YOIG7qcKd+4gTnXptD/HR6Xk5ac3u/F0R1byDtcSpUXFJUKn5g4hqYvYN4932FmXG+HXWvmS7z48G7qXR5Cv/Ei//ejWdj8NAPKqXn/Czz/v29TXusg7ManiY2LxOQHXZUZHN+zg8PbP+DU3ixKm510eEEdHEJE6iSmLr+NOVPSCTUN7Lj8vHraKik/tpMD27dyfOceCvNqaQRUBgOmhKGMnn4dc69fSXqYL3TUU7nzWR777fsDL+Jqo+XEazz7P6+deUlrtLLwb0tJCun92+tppXzTv9m0exP7jlVSUVyE19v7o1JFRZEyfC7jFl7P3OlpWPR9ZVS4iRcf/QdF5U0D06vZxft/3UX/XKTf9xy3B0fg39ck83bVUHp8Hxnr13Bgy27yqtpoA1TWGGJHTWPm3IVMmjKWsNCBnatCfN10Vx3jxN4dHNq+mVN7jlPadPq+G0zYuOtYcdPNTEyPw9h3q3E15JO5fQM7NnxERsYpalqaz3vdqJm3suqHY7AHNFNz5B3e+NHTnAwZwZhrbmBuaC67X1/Psewa6vHFFDiScdev5tobFp4N3vNpzwMJDJ+9mqsmz2Ts5IQzgenmPX/m8f89SI/bw5AfbiY1xh+Dune3Im/Buzz7m+epqW9HteiPPB0Tip+vhrZjr/HS79dRWGFi2vf/H/HuEgp2vENGVg1tHV5swRMZNu8mFt4ym+Q4y2ceHCeEEEII8VUkAZIrVjP521/i/bd2UtLiHnCkp66esrp1VJ0qx60yYl42lVCDArRTfWAta/76NDuyBz6Ye1paqTu4jX0eK2FDpnx6gKS7jcaTH7DhxSfZlgk6/0TSF93J8lVj8R/UZqa1ZD7/Sx5/Mwtn98DP5akoI6fiRTzR8xkbH4ZJd2m2MXXXnGT/v0+wq6mMmhZP36vN1OavZ+NbKvSh0SyfF8t5xjp/9jS622k8/j7v/uN3vLG57GMH3bjyczla9RqHVywhPGIQCQkhxHl4PS7acz/i/ad/zvPris457ikp4cQ/X+bgkmuJNOtQq4GOEo688ij/ev0Qreo4EsfMI9iipaclhxNHC2hv70QbMoyhadGMTAzF72O9K56Kg2z95xZa6mpobD99b22g4sTrvPOmAX97OPMmhvU2VBxVFOx4jVefe5EDJxsGXqe9jYY9H7LxeC6lBXdx23duIjV4sPMU3bg6s9j7z59TeaC4f0lRUfwWa35Xg2b0X1idHoZKNZg6rYniDc/yr+ffJad64Ijk03X1dlMayUnDzgRIBqu7roATax7nUE01dX2vdXXWcerQK9S1tuOb+hALE08H73vobsll/5M/5S+bBtZNXo8HV2E+R0ufxj30pjMBktiF32TE0wfYVt1Fze4tFLROwWzQcKaYOko5sO0gjvYOVAFJTJqYislfDzRSuPZJnv/XZorqBpaFu7aGktq38ZhHkpo4ZJABEidNp7ax8a+P8M6hgYMnPE4nLccPcNChYBkyvzdActE8eL3VHHrt57x1xHvO/mCe0lKySp8j51g1lojfMyPFxuCaLZ00ndzEhj8/xZb9BTj6JehpLKZgczH1OTm0Oh/kmmXTCZQYifia6q46xr7/PMZL/95BWc3H77u1lG7YyKEhk0hM7QuQdNdRvP013nnmZQ6V6wmJS2fCRAtqVzWludmUlTXi4x9GRFIq48aPINQ0MD13azm5m16kuuMURTWn67oO2ur3sntNK57AZL59y1D09M5sa8/bztonfn6B54EcjhT+ihMfZfHgk79heuyl+CFXkb3xCfaXNdDVcnZAXkPtXra93IwrxMDqVTOJsQzmfiiEEEII8eUmAZIvu8ChTJy7mPYOF3SUkL33JA2dLghIIHVUAmZf3ZlwQ3KcFV+NF/peUXz9sMUNxaQPJcCkQ+WjoHS10FScRUl5Ha31R8jJPEnFlImExmjAVULRseOU5jah0gdjT0giOsqKGgXF5aKztRZ3kA3tp+wC7nU7aSvaw85X/sG6nVVojWEMmbeaZd+6iohBBUcA50F2vJuHq9uNypzM8LEJGDU+vVftcNDSUIJepzmbiiWB9GlXYUtqhc5KCo+eoraxHbcxivhhiQRbjGdGtcYOicR0nj41T2MR5Y3gGxxH8qQkQvwc1BbkUlJUQ3tZJeV5RbTOiyHwoj+bi66GLPY9+yhvbC5HUWnRBqWSPCSKAIOC4nXjaW+grq7vIUhRoQpOZ+rC9r4yKSRzZybNbi+KeQgjxsVh9Dn70x4SaUR7aWJFQogrkht3VxkZz/yM59cVAwoqaxqpw2OxGPrukM4aqot9BwQDvOUf8O57WTjaXdjm386q+68jPdFIV9kannzoEfZllOEJnsbV372L0amh5wSR3bU5FAGGsFSGpsdg1TVTfiqbiopGWvNLKC+toG2iHQsKncV72fP+Og6cbEClD8QalUx0lA2D1kVXUykVuTlUNJRQtGcD29LGE3XjsEE3cNwuN5UHy9AEDidlWAwWvQdnyR4OZTUCu3jrz5uZ/9yNhGh9LnoWibcrm+O7smiocaLyiyJ+aCLBtt56SenuxNFYBf3qqUuhw+mgwqXCP2ocIxNCMdJCfeERsotbaarazuaX5zD5V/N7Z5F4OumsO8ieD8pRVBp0QWkMHx2FDgXF68XrbKOpsZwBC8TYxjNhQjA73q2gp2Q7h041MyLQgEbT+93pzH+H7ftraHd68Ju6knFpwZh8FbydJzm6PZumug5UxhgShycQaPbrLYuuDtobK1EHGAf9f/X21FKdl8GpI7UoWjO2qGQSkkLQoIDbRU9bEx3aIHSnv+oaA/5x45i6UIvi6aKjIZ/sg/m0q7Tog9MYNiqS0y0xjd6PhKD+bQEVmGyEpsUTERiM3q/vP9lRS3XmYQobXLjLNrD3yA8ZH2tBZ1CBLZnRMxcQ0eCAzgryD2dR1+LEY4wjaXg8NrPhzPchPsmOqS+j3rYCDm54n8Mni3B4bYQlphARY0On6aajJpeS/GLqyvaze+dWotNHM3uYREjE11ETReuf4o2+4IjKGEVkQhL2YAOavuekxmoP/sazQVhvYyYZu/eRndeMafhKZt32XRbNisG3I4NNzz3Gmy9todWYwPCrv8vKm8bg97EUPY46Ghx1tJmCiBozihibh7bqfHKPF9HR3Ep5Rib1t6QRgYK7vY7CLU/zxuayjz0PgLenmYasvZwqd+EqfIvXn1nM8EdnY/FyZmbaxarNrEBljCF2TAKhNgOehixyckppbjvFwQ1bGTsyFfukGJlFIoQQQogrlgRIvuySl/Pt/1sOgLf8VR5Z9Wv2VzbhCl/Ayp/fx4go6wVmLuixjJzJzJRQYhPHERXhj1an4G0ro/Cdx3nuxbUcKWyloaERR0srYMPraKfd0Y7TAxiCiRg3j7nXTiM2PBKrXsFRkkVBVTs62yc1jzvprD3GgTe28c67x/ExmImefDXX3H0zaebBL/Hkqa+hwePp3W8jIJXR161gWPwQIqJCMLQ2UXZqO3nd4fhq+7oPYuez+ifze8uvZj3/+PZv+bCxHWfIFOY/8P+YNT6WzzIeSh8cx7Cr72XFqmUMC6lg7/N/5qW/v0NhSzOtNXU0uyDwIge0envaaCnawdYtvcERffhYJt7wXVasmEKsTeldh7g6k4zd2agMgKJGNXQ1P/nr6t4yKX2OHy/4JS3ubrzR1/LNR+8mIcCAxESEEJ+Jx0VP1VY2vFvat69EGqNW/pDVq+cSH9y7z4anIZMjWzPwWPrNBKivparHgwsYMmUiiVF+6HxAFzueSQmBZGeVU30ij9LWdlLhvHWVwT6Esdd/jxXXzSHeP4cP//go/359G5UNtTTXN9HeAxYfBxX5uZTnlQB6/BNmMOvWB7h6dgpBpg5a8zfx4dOP8caaXFrKysjfs4+yFUOJHWy5KGq0wSMYs/L73PiNWcTZemj86Ac8ePdrVHuhZ89OstpuIMjqw0VPImlupKWrky4vKMYokuZcy5TJY4iOCCfA00V9/mHym80Emy5dc03RmLAkzWLGDfewaGE6wd4Cjr7+c/70h600trXRlHGEgs75jNID7h5cTXU0KV68Kg0aezqTb15CUmg89nAb2vpq8jO3kq/qX5MGkXrNLMI2vUZpTzEZ20/SNi4InUaLig7K9uyhzNGBCzvjZo/BbundX8Xb3EhjdzcuxYtijGHIVcuYNG4UkRFh+Pd0UJe3n7zWEGzGwS2vRWcHzrYW2r2gaM0EDp3OrJvnEh8WTVCAju7yfApLSumw9LV1DMGEz7yPn8wEuuup3PMkvz2cj0Pjjyn9Fu776w2EXmCAhKIYCZt7I8tDFzM+bSi2IBWKAjSc5MgT3+WRNzJp63RTXlaO2xUL6CB+MXf8cjEAnqp3ePKe37C11Uln2Ayu/uG3mDws4rz7uDlP7eJIZjYVbR4CIqcx945vs2BhCmaDg8aj/2bNX5/h/e2l1OUVUZpTQMewEZ+p/SPEFaXlMHu2nKC2pgOVXxQJs25lyY3LGTssCFPfc1LR4aPUm8PxU/cOOlPaW2l2OmgFkhPjSRkei9UP8IslLXkIR61b2VdRR21hBfWMxu889wOtKYjY6atYevu3mJHSRdG2F/j7Dx7neLuTzrIy6joVIvQuOtoqyNx1EFChMUaTtuKn3HnzFGJtHtydxZx65fv8/pE91PT0UPrOGjJ/Noup59s36nNSGaNJnncHy25axughVtzZz/PMr//OrqNldGRnU1hRS7o7mpCP7yclhBBCCHGFkADJFctC8ozVxLXWUldeROG+BtpdLlwAbl+8vkaglbbWNjqcHb1v0Viwhtqx2HTUNmRyaE0FZTl7GD1pOikJsQSaQ4kYkYLVarpgqp6uWsr2reGdk8epVRsITp7JnNu/w6S4S9OgVgzRxCVaOX6iFlfJ2/zrkQxSRi1g0vR0gn2DCI6ZwPjoEPw0l/KrbSZqyjdY/I1lDIsxAhHEjJnJ9CXdhNQbiY4LwKdLgYsNkDjbac48xCkPqP2sRM68h7vumYL59AOWSoMmLJ1xK9Iv2ScSQojTvD0u2o7s4ZjHA2otpon3850H52Lt18mjsg1lzIqhA96nGPwwqnoDKI3llTS1xhDgq8XTWklFk5NOtxefYCsBOu0FAvk2Ehbew5Llc0iw+wJxJE+ewzSngZJmC1F2I2oX4C2jpqCQ6lI36GJInjCD6XNSCDIC+OKfMIkR005yZGMeh53NOB1lNNQpgw6QqDQGAqd8iwe+PQsLCqDGOnMFk/xf5+0WD14qaKz34LXARU8g1IdgjwrCL7OYtppdbHw2n+wDMxg7ZQIxoeEEhUaTMjaMAOOl68rWWOMZtvA2Vq1Kx6QoQBCR42Yz3O8jtrW76HHV0NIE2MGr0qA1RRMT409eYSttJ17ibz8/wMhxi5gwJQ2r2kJI4lXMigwakIZ12mpmRr3NK7kuanZtpeCuiVj8tChdORzbk0+HsxtNyHymT4rD//RyWXo7EdGBGHLLcVRv492/53ByzyzGTR1PdFAYgfYk0lLsBPgNcvk0HxP+geEEhxqoqComd/OTPFW+j9ETZjNsWCKBfkGEpk3CFmweXDqoUFShjF/1YzobiqksPkDtiRZavb3LbXmtYaDKBtxU1TXgdrs/7YKfoIuKvByaanoXTTPHm1DcJZzaU9J3XI3GGIo/JVSVVVFVXEkDwwc/q1eIr5ju7BNktTTTihfDkGtZfttSJgwLPlNHKaZI4mZEEtf/TRodOh8NWqC9qZnG2mY6w8z49DTT0NhIUyeojQb8zEYMisI56+lhwJY0h3l3fIsZw8xAF9bkacxclo9fpQ+W6CC0nV7QOuiozyD7iBdFZcA/chrX3Nw3WAo1an0UiSvuY/zf9rGuxYPXe5LyEmDI4MvFkLaclXcuYVSSrbcshk9mRMy7nDpZTnl3A45WB12dCudMjxFCCCGEuEJIgOSK1UVzwUlO7d3Cvg93UJiRRYWzHecnzMBW/JIYPm8Jde1O1DtOUFFRTeXujVTu3si7mAlJHM+4FUuZOmc6KdHnn7nicXTSVttIj15B5TVhsKcRF2k4z5kXRwmczbIHbqTmxR2UFRZSWl5KZsnfyXwbIIahixYweel1TB2fjNWgvUTLksQRHZ9GZMzppwI/7BOuZ+WE6y/J1d0uFy2NNQBofXVEDBtyNjgihBD/ZV6Ph+b6CgDUKhVRo0cOCI5cUMRI0sMCqWxwkPXey2w0NTIi3kRn8btsOlpFc6cfUUsnkBhsvcBI9VSSUpMICvPt61DyJ3rOHXxzzh0D89fSTrujFYfXi9psxxYRSZDf2eUkQY/OaMEUpEBJFz09bXR2eM8/ZeVzUGk0RKYP7wuOnBZKULwXJQMGuaIJAErAGKatvJ5a9BzJyKaiop6CD/9NwYf/BkKIGT+didctY9q0MUQGmS5Jo83XHEBYYmxfcARAi0ZvIyBcgZyP5U/thzF+Acu+lUXja/uoKS+lPPckB3JPcuBlFWqfJEatXMLUpdcxLT2q38yGYYxeHMvrT5zAWbydjOz7GRZkxJO/k6MFrXR2G7EvnkqC2XRmyRbFPI6ZN11PjdqP48dyKK+oJ2/TK+RtegUIJX7yTCYuu46pU9OJsBkvepakoo8gbtI1LKyvo2fjUarKK6g/tIMPD+3gQ4wE2Ecy9vqlTJ0/l/SkkEF9jbxeB7UZ+zmy+z32bthPbUEeJZ5z9yMZvFbam9rpcvbub1Cy7UX+ue3FS56KEF91bY11uFzdAAQnxhFsDvjU37jXFk1MVBxhxhxKj+1l25oQPDXx+DqOs3PbXnIaNFjGppA4JoWg8/64Q7AFjyZ5WEDf3zoCoiex4BeTWND/tG4XrqZ6mhQPitYXTcxw4mz9T1BQVMFYY71wFKCe9vaLKoZzBCcnEGQy9SsLC/4hfmgNKui+NGkIIYQQQnyZSYDkCuVqOMb2p37Bmk1HaTVFYU8bQbJe19uh4KiipLCEuibnOe/zTZjFom8NYfiUbWzbvJusvHIcTVXUVVRTk7eJDX8rpq7eza33Lyf6PKOIfKxRJM6Yz7DqN3njo1JqDr3GujdTCLppLqH+l+azWWb8kIeGLuDQ5nfZ+FEWra31tFaVUlFVSuaGv5N1ohzdY79ixrBwDJfxG+7ucdPddfqpooeuzjaa6xrPOU+lUqHVG868x9HYTBeRss6vEOKLoSjo9L37EXi8Xtrr6+kk5rzL+AxgG0FKYgSbc8rwNn7Ee4+9x3q3GzBiCAwkevgEFi6aSFDQIIec+mjQ+Gh6l2FyOelub8fpBv8z93c3Pa4uXJ0KYESnD8E/AOg4ewm320N3V9fZ87vaaKqu//x56aynqVWht4vbiFavoAwynm1KX8U348Yzce8HbNl6mNKKKtrrKqiprKd4/xuUFZXS6fofli6ZSLB+YGJdLheublffXy4cbc20N7Z+rvS9nh5czhbaHAAqVGpftLqzASi1wUrM1T/nZ+mH2fvBBjbvzqPT2UBLRSnl1dkcfPX3HDlUTdDLjzLCqpwZmJAw7TqiXskjt7ozpGiLAAAgAElEQVSQjJ1ZLBvrT+ueXRQ7O3AbJzB37kj8AwaGzvxH38Kd8ZPJ2r2RD7cepbK6mvbacqoq6ynY/RrF+WV082OuXTAKm+7iC14Xls6Ub/6a5Am72fHhRxw+UUxHSw0NlZXUVe1i6z8KKSlxYP3lXSSaLjIdr5vOsq28/tDdvJ/vxhg/nKjJ0xmlqHpLtjmfY1kVuHoGM3PkfHyxRidgDw/C97xtoFjiY4PQn3ekuxBXNh+9/sxeWh0trXR0dePmk5elVYxRhEUnEmjdQVXNKU6uzSLjjS5Aj9ZoITRpMmNnzmXk8PBB5c2rUqHW6dF6wetx4W5roLULgvs/EHg76Wo7fU9KICj43Os4Ozr7/bY7aKiswfN5Z6h1t9Le3kV3jxfQ46PVoFb3H5gghBBCCHFlkQDJV5TK0UR7swN3uBnU586TaNizhp1H86hxeIheeAM33bOa0TGBqBzV1O98hWeefvmcAIm3p5WWmgY6egwEpC/nG5NW4XJUU35iCx+99ipbNx+muSWHypy9FJQvJzr5fDnTY4oazaQZGk6d+gv7qwo4+tqjvB2czM3LowY9M9vbWUllgQNNaBxDr3+I0TcoNNdnkr/lP/z7qdfIK2/FVfouhzO/w+iEcAwXWg3M2YqzpY2ebjeXcgdztdoHH23vk0xXezsNVTV0E4q3rYLcPZvYsfXoue/R6rDYYzEoh+hwtlGwbR0HJxsZGRuDUa+A14O3o4m6miZU9ngC9Rd+OFG1NdDa3IHX5MvFL4ovhPg6UdRqrJGJ+Cm7cLrdlG55i71z/RmVkEiAb98G0J1N1FfVQ0gcVl81agW6azdzYHcWnR16hsychcvRjkrVjUqJwT5mDBOumsfQOAsG7eDuRYqfBbPNRoBWRUVjEcXHD5OVNxZzQgB6TQ+u1hKqC7OornOjaPRo/fwxaEHVpcZH2xvm6e7ooK68im4iUJw1FO7fyIcbD32OXHjwOusp2fUWB/L79sEyJREWPMgASXc9teUteHwtRMy6k3vm34OzpZjifetZ/6/XOHikAGftPvJO5VA9ZRLBEeCj0aLW9I7zdTQ209zYRA8WuutzyNj2ARmH8z5z8l5PN111BRQc/IhTFW5Q+6ILiCXIevoEFz3t1VSVuzCEjWLSnZOYfruL+srDnNzwKi/+/T9Utbnx5r3MjuOPMnI6Z/vP0pZw3YTn+dOGEip2v0vOYsjbnouzw0XAlHmkRvij798K7a6jtrQNrzGQmHn38sAiNY7mAor2rGPdC/8m40QxzppdZGcVMHH8aGz2iytyr9uBo6GelnYfDIlXsWTk1Vzd2Ux17nb2vvkq69fsoN5ZSVPuh2QW3EXiyAuVnRta62lv6YSAc+dIeT09lK/7Pe/l93ZMRq78KT+4ZQrBPmp6mgspW/MoPyqo/uwBEkczjqZ2elxu0Hy83aLB1+SHVqcB/AmffD3LVi9lRLQFg663kHt6nDgaq3H2GDBYQgiQ4Ij4GgoIjcTf1w8fmqk/uovDhxKwmscTZjH1/qxc7bTWN9KlDcBoDsBXDT2tJ8k7vo+KMiehKSOwhQThcrbi42PDHDOcoXNmMGZUKiHGweVN8dGjDYrEblCR5XDizNnGroPLCB0TilHvxeNupblgF7lFgKKg9g/Ev6+O1uv9ztx7SwqK6fSMwICLhlNbWPfGVhztHRdO+OO626jN3MbRzBIaHR5UvmHYbP4YfCWoKoQQQogrlwRIvkr0enSKCpUCXSW72b8uCV1DEgbf3vW7zVHDsQf7o/OBloZ6ujs6Aeisa6T26FFOVetpL9nK7lffJjOz8tzrt5/i+FvryCg2YJ82mshQY9+yKIFExcYT4X+E5k4NarUvas2FRxEp2iDsIxezcNURCv++hbrKcvY+9xTxo77LjLigwS1XUbuRN3+2E/XMuSSNjCBI0zsSUxs9kqHhaymrbsXVbUCrU3HOPoJaHTq1GhUK7qoMjn+wEZunDqu5N6Dhb08k1B48qM48ndGMJciOVsmmp7WOiuO72L+vGXfuLj569hn2V5zbEeLV+WGITmOo9S0ONLTQcOhZ/vqLclauvpG4IFA8PbgqjnJwRynhP/gj10QNfL+i058Z6e0u/IidbyXD2Gg0mt7AmTVuDHab/tz+FCGEABSVD+qYUYwOfJEddT24cv7JH/6nnNV33U1KaN9JtcfZtymLwAce5epEI2o1NG1/nyPOdjq8dvxjxzIiOZGQEB9UfS0LdXcxdU0QajOj8xnMgodWAqOjCYo1QXYjhYc+5P0XLPTMSSXY30lrzmZ2rH+fAo8XnT2KqFETiPYHrccPa3AEvkomXe1N1JzYyb59TlRlR9j25GPsKv3kjmmv20Vb4SGO7itF8XpwVx1m7TMvUdx33DxtNOFq9aDG03qb9rPjyU1UGZOJmphCWICudzurgFgSo0Ipyi6ktEXfFxTprXcNlkACAmxoKaWnrpSCo7s4aCmiec96Nr/xFifrPJ+YZo+zhdqcgxz1M6N0t1KbuZX33thElRe0JgNBo1I5Myi5x0Fr9hpefzQL/0XzSRoShFkB8OKfMo70kDepagMUE7pzphyFkDprLP4fVNJR+Abv/6WKU0eb6OoOZMaSOYRbjAMaod7GPWx+/EMaQ4cSNS4Ju0nbWxbWRJIjAynKLcPp0qLVDHIkc0cpBZvf5KPtHQTOmkRstLlv8IYfofGpxFt3UV+hoFL54vOx9oBXpUJ1eoS3y0F75iY+eiuC9tTePVhUag2BieMJM/cuwdZQeTZY5SypomL/HqrVCk0n/sk7f9lEh/OT165RdDo0ig9qL3gqDnJk4/sEdFUSYOptSQWEpxAaEoiv1kzEsDTs4dvJrqzg1JbXeLu7heYpI7AH9c5Q7WivoixjC/W6cYy6+lYmDHaTHiG+gryhKaTYzeTmVtJY+SFv/62e5qqbmJgei5/eCy3F5O0/Sc+IxUycPZkYIzhPHSO7MI8qrz8pQamkz5pBRKgR375RX4q2nbaGMnQ+oZh9L3JDQgC06IzRJIwNYsu2GhyNx3j/L//Af/Us4oI8eDqLyPzXnzjs8aBS67FOW8rw4N57oTUmGSM7aAZUufvYty8Qu6GJw3/8KRtONNDh+uSUO2pyycsw01aiRWkqYO/alziQX47TC6bUeOzBVnwlOCKEEEKIK5gESL5ClMBEYkN82VcD9BSx7YWfs+2Fs8cn/Ggdd64YT7gZDFYbBl89Prio2fYMT2175sx5Kp0erUaDxnVua9lRn8vhtTuoXXv+PPj4hhMSloI98JM7JjS2aFIW3cbVmQW8+UER9aXreP13oQT98lbS7Rfe5P2zqM3fzLFj77H+AscNlgkkRJnQf2yNKsUSTXiIGYNOoaWrgoNv/5GDb589Pvz2v3DrrSsZcpGjUgEwmbGGRhClU5HfVsSptb/l4b6y9NFqMZnNKM0tdPbPl08AAUnzmXvdWopePkad00nL4TU8c3hNv7PUaP2mcMcPzk1SCUklIcSHw2UuPJ58Pvjb9/mg3/EZj+zl7sWxWAwyo0QIcR4qHbqIhSy++RVynzpAtcODO+cD/vngBx87cSS33HO2811jsmBQqVAoYttzP2Xbxy8bFcWQubewZP5iRg0Jx++iO46MRA6fyogpRzlWvpXmxhOceOsEJ94aeJaPn5WEcZOYPL1383GvwR//8Bhi9CpOOSsp+uAP/LbvI6k1GvwsAfg0NXGhJdzdnW1kPX8vP3r+3GN+kSNZcvNign18Br3XVXPlEXbsf522l85/XGdKJiI8HIuxbzaPNYSwoCCCtQrlDRnsejaDXc/2nqvxNeBvUtPT3s6Fwj+OsqNs+ePtbPnY62qdEfuwccy5eir9tyd3uxyUHH+HvKPvnP+Cigq/oBmkxSp4lYFhC+vYRYyyf8jmQhdHd+8EwGBfzajhAfieZzZkU8VBPnr/PzjOU+YAWv9UIiNC8R9cM4LO1jJObFlLxebnznvcRxuMJXQUUfaBgRjFR48uJIFoq5qshm6cLQd56+GDnP4qao1WFv4ti3um9BaEKTQRg5KD0wvFr3ybn7xyNg2Vnx96lQu358K9joo1lqgQE/pshTZXGftef5R9r589nn7fc9y+ehEJwQqmhNGMHD6cotwGimuyOP5mFsffPPeaiVfHMupzlJUQVxLFMpFJ10wjp7yKjLwmOisz2PxEBpsHnBXL9O/PZGLfX2pfP3x1OjSUkL3jBbJ3vDDgbJXVRsiEq7hq0TeYMS6NUOvF7r2owc+SwvjrlvPu8X9S2dhCy+G/8czhvw38DCo1ptiRLFm9kMDT96fooQwzqdjd7MaT/zJ/ufPlM+f7BtqwNLXQ4u65YMpVm/7Enzed+7pvUAwTF8wmJS7i05fdFEIIIfrJzc2lq6sLb9/GjQUFBfT09NZFTqeT7Oxsmpubz5xvtVoJCQlBoxnMYAMhLt6l2cNafEGGMWLZWGKTwjD5+6D6hP9exNQlTB43hqhgAxqf3sazSqfDGBJOxORxDImy940C7UdtwhQcRmh4IBZD3yhWALT4aMyYg6IZMnU202dPJelT9xPRERAzhtnfeoDpEQF4OuuoOfAC//zHRuoHsaGgogvGHh9FSJAJP5XSr9vCgN4QSFD0EMavvIlpiTaM59xXk0iaM4aEEZGYzTrUPv+FgIFvCKFpExkzIR6zqS9Co/ZBawsmcuxEZs6fQcp5ktVbIxh168OsvGoMMTHhBBjOPlwpigo/UzAhsVFYz7vmejpjbhpHdHQwfkbVoNfDF0J8/ah0vqTe/iduWTyB+LgIzH4DF0TU+wUSEhuL1Vd95h5jGT2TNIsf+gss5+cpLeXkc7/h9797jcyiRi7cNfMZ2Mcw/qqbWTxnImGhQRi0Z+ci+vjosYREkTZvJQtvvItxMb35UXQ2bEkTGTslEXNAX9eOWo3WHEj4yHHMuvYqhn3m+6UCihFDUBSRaWOY/f3nWDZKw6AmxgBorVjDIwi1W/DXqfuNWtGj1VmxhSUwYv61TB+XStjp0crGGOLGjCdtRBR+ht6KTtFo8A0JI3H6DGZOHEWcMrDTXaXRY7TZsQVb0en7d3OpUWvMBNjjSZyymHl3/YyZSWePehU1Pn6hhMWEE2w1cDbOrqAoRvyMwYQmjGD6N+9kasi5jUolaAHzr4lBpz99xEDKLdcwpN/m7GfLwkJgRDihwWZM2v6BJ190eivW8ERGL1rK9NFJhPpefEWnqA0YLGHYI0OwmnT98qFGrQ7AZI0gbswUZly9iBGWj6djwGAezegVIwmz2/D9hIEHKpUPydd9hxlpEZiNZz+NyuCHOTye+PnTSdZp+eRHwBSGLBxL/LAIAgK0qM+ZGtuPfzqzbryZpdfOIDkymABfzYB2nMYQhCU8kVB7SO/ynUJ8TUUtfIBlK5YxekQCwVYLGp+zd16tzoQtLIJAqwmdqvc+aohNIT4mnkDNBeq6xgaq3nuVVx/9A+9syqHrvGd9Rr42bBPv4o4b5l/geSCEmOGjmfO9p1gyol/wNnQy0xePIizYH6WvklYZDATEpDJ51XVMNPn17jv02TKB1j+UkPhhjL3xZ1xz1TgirZ/+LiGEEKK/xx9/nNtvv51bb72VW2+9lYcffpjW1t69EgsLC3nwwQfPHLvttttYt24dbW1tlznX4utMZpB8xcSv+hV3hm5g+85NZGe10t11thMkMsjvzHYaimUii78PlpiX2bqziPo2Dz7h4SSMvoqpc+Jo3/AO2z48THNCJAF9kQTFlEr6sruwRsVyYudhcgrrqPcA2DBbE0mePJZxc6aQGBUwMFMaAyZ7IknDW9EGJ2EPPL0Wtz+2mOksePBGcl7YA4Bf1VYOl67gqtSL+/xKyGJu+AWMOLSDzC0nyety0+MFSCAyLpZhVy9i6vj4C45Ujlp4P6ttQ9i5430yT1TjaDtbflF2G75nlg7TYwqLI354OlpPCvbgADSfaUNTA8HpC1j4kBnNy6+y/1gFapMR65gZzFy4iETnft7NKaU9IIbI4P4jzDT4BY9mwf++yrD977L93d0cKigAQO2jJT51IelLr2VyyPlTTbntT9wftpatuzeRl91J/0Fi4Vb9+bapEUKIftT46OKY8b//Ie3wWj5as5M9Odn0DfghJmkeI5ctY1qMb19QoItWpwFbiAafUvAPGkKQxRd1X4cSriaaiytp7Oim+1AGuTVNJA0JwaIYMMckET+iB5MnkSCL4TM3RGyjZrM0PJIhWzeyY/thimpqAPA3RzJi9mImLZ5OuLn/3Ac91pQZzP+JCc2LL7LzUAlqg4GA9IlMuXoFozXHWHsshyTfYGKDz108XlH5YLQnY7dpAQVFlUr8vKnMvmYJQ+yXZoSJYpnI7Lu8RI/+iMxtR8mtbaO3Wgon2B7PkNnTmTh9JGGB/QNWAcTMXc0SczC+b7xLVn4dPoGBhE9ayJx5YzEe38R7de2owuIJtvTWx7qgBEZccxcr7BlkHSykuqKs71p+GKzDSZ0/i6mzphBrG9iBpviYMKVcz82/8iXrwF5O7Myl2APgg0qdTFxKHCOvW8q09LALfsakkZPQanKADjTmiYwbE43veepoxTqNq74FcYc/IvOj4+Q2OHB4ASIIDY8nde4sJk0dRvBFj87u4xtNwpxv8k1zKJl7D5J1vIJqL4AJP2MSiWNHMHrBbEYk2s77dp01jLH3PoYu5h227d9JWcHZuTpagz+hp2e3KGp8wpdw/1MKoU88z95TLtxe0CQlM2ri9cxcqONQkwN3Qys+UVZ8LhBti7n2Qb4ZNIwdO94nK7MBp+PsLK6oUDP6/p220bOY9d04Iia8z6H3d5Jd2kizFyAYa9JoUqZMYsLoFGIGM1NWiK88G8NueZioSXs4tHEruw8eo76vQyYkbARDZl/LpGnDCTUogIvOLg1aP19MJoUWrx1LSAh+fTF6xe3EUVdNY10rzrIKKk7mUt4zkngfLTpLOFEj0nG6Q4mKtn3mGRg6Syjjv/U7wsec+zyQOHQhs+6+lpTQj/+Iw5jyy6fwRj7O2o0n6O7xoE1MYuSS+1k2xsH2vEIqqxpQom3ozhPo8Q2KISTQjFajAJHYR01g4qIFjEq14y8BVSGEEBdh2rRpvPzyy2eCIv05HA4yMzPP/B0aGsrQoUPx9//UkdhC/Nco3tPzncRnduRIBn9//gXixk1h1JQZlzs7QnxpZB7aR/GhfSyePZ2rrrrqcmdHiK+F3jrpn8SNm/zF1UmuLN6+80Ze3V+FQxXEokfXcuOcWMynR/Y3fMDaB37Jfw4VUu9O49o//ZHr5o0g+Eve0eJur+bU86v5/uPH8fGzMvqhTfxqVdSnv1Gcl8tRSd27j/C9R9fS3KbGfssT/P7/zSbQLIu1fBXV11Sxf9N6QnVqfvzQjy53di5KQ0MDP/jBD3jhhd5lkn7wgx/w4x//GPOA4OoXw+VysXnzZn7zhz/xi3+8/OlvEF84r7ucI888wsvPryG7zY+Rqx7iG3fdzrC++ITXkcXxFx7npb+tI7M7hOFLv8XNP7uDoQFf7roOoO7d7/KL36+jsKKduJv/zoN3LSTeLvfmyylj93by92zju/ffR1pa2uXOjuhnxYoVrF+/ns7OTl566SWWLl2K38dmWwshBuru7mbmzJns378ft/vCez8qisL999/PQw89hN0uo3jE5SMzSMQXzE1PVyuNxZW0f67QnC+22BhMOpWsCyeEEJeZtyaDzFwHXd1elPirGZFswHBmrSIXnZpglFADik5BrYonNMSE4UseHLk47TTmldHi9nz6BMMzdPiHhWM2+g5+ia4vIVdTMeU1DrxAXcbfeeO3a2l3duMbNI8l147HYLwUHXCdtFfX0tzcxidvc96fGp1/ILbgQPTS+hVCfBYtxZQXllHX6EEdkk50fArhth56H6F76FEbcFssqC0qVM1BBASGYwv4tIsKIYQQVz6tVssDDzxAVlbWgL1GPi4oKIgVK1YQFBT0BeZOiHPJI6L4gnXQVraOZxf+Dzs+R3cSjOL2je+wNEHHBZa7F0II8UXRBODv74u6rpXugh0cen8ElplpGH19gFoKtz/H2/sLqO/xJ+zaSaTZAzl3EasrwSHeWHkr77U66f7MVVoK1/z5b1w/N43AKzBoVLf+u3z74f10u86OFFOb7KTf9yAzE80YLknLs4jDT/4vr7y2hdJP2OR8oBCGLrmXm35yDyOtV165CyEuPUVtQO/nj0bnQ09NDgW7tnI8UktsmAlooy53E++9/x7HGrRY0tNInpiKHbm/CCGEEADLli3jr3/9KwcOHDizQXt/iqJw/fXXk5CQgI+PdE+Ly0u+gUIIIYT4XJSQxcxfsYei1zdRUVXB9ie+zaa/eM+EvTVaI77+ZiIm3sTtty0g+uN7V4mvB50OozmY0Gt+yzeWpeB3aaIjQgjxxQgYxfCZV5NbWsveo0Xkf/QUf/jwCU538ah9dOj9AghJm8+sFTdz1bToy5pdIYQQ4stEq9Vy//33c9999513FonNZuOGG26Q2SPiS0GeVMUXTIVK448tNpawzzzqEyAck+YKXItECCG+opJv/y0/HT2Jbf/5gOKMoxR0dtPVdywibhrpS25gxrQ0LP66T7zOl4rKB21ABGHRbfj4BhBoVH/KG3yxRMVgb+3A9ZkTCcfsp71iZ0OqjXbsUTG4ejyoU4Yw4YaH+MbEeHw1n1aWn4cGvTWEkKhYej7zVnqB2GwB6C9lNoQQVzz79JV8MzaJERvWc2LbAYrr6mjoO2YJTGLorOuYtGA6ydFf/D42g6H2CyIoPJpOHychViNanyu0UhJCCHFZXXfddTzxxBPnzCJRFIWVK1fK7BHxpSHfQvEFMxAQvZS7Ny/l7sudFSGEEIMSOHIxy0cuvtzZuGTUhkCSbnmB52/5rO8Yz8p3PmLlfzNTXzEhS5/k6aX/7VQSGP+dxxj/nf92OkIIAaaodKbdm860ey93Ti4d66wf86tZP77c2RBCCHGF02q13HfffWRnZ9PY2HjmdYvFwo033ojNZruMuRPiLBmSL4QQQgghhBBCCCGEEOKSWr58OSkpKWdmiiiKwg033EB8fLzMHhFfGhIgEUIIIYQQQgghhBBCCHFJ6XQ67r33XgICevelDAgI4Oabb8ZqtV7mnAlxlgRIhBBCCCGEEEIIIYQQQlxyK1asIDk5GY1Gw6pVq4iLi5PZI+JLRb6NQgghhBBCCCGEEEKIS87j8eByufB4PJc7K+IyuuWWWygtLWXVqlXo9Xo6Ojoud5bEZaJSqdDpdJc7GwNIgEQIIYQQQgghhBBCCHHJVVZWsm7dOqqrq0FRLnd2xGXidrsZMXIk765fz4ebN1/u7IjLRFEUwux27r777sudlQEkQCKEEEIIIYQQQgghhLjktmzZwtr3P8AYZMdktVzu7IjLKDB5GLVuwOG63FkRl4m7p4dHfvuABEiEEEIIIYQQQgghhBBfDzFJKYxfdC3hMfGXOytCiMuoq7OD15/88+XOxjlkk3YhhBBCCCGEEEIIIYQQQnztSIBECCGEEEIIIYQQQgghhBBfOxIgEUIIIYQQQgghhBBCCCHE144ESIQQQgghhBBCCCGEEEII8bUjARIhhBBCCCGEEEIIIYQQQnztSIBECCGEEEIIIYQQQgghhBBfOxIgEUIIIYQQQgghhBBCCCHE144ESIQQQgghhBBCCCGEEEII8bUjARIhhBBCCCGEEEIIIYQQQnzt+FzuDAghhBBCCCGEEEIIIYQQV64yag7s5vjuLRzMn8SqR1YS5W9AfbmzJSRAIoQQQgghhBBCCCGEEEL8t3grd/LPHz5CRlMLnfFDWObxXu4siT4SIBFCCCGEEEIIIYQQQggh/ku8PZ00NzTT7uxGYiNfLrIHiRBCCCGEEEIIIYQQQgghvnZkBokQQgghhBBCCCGEEEJcIt66o+zb8DpH3jtMTmsnXYA6No5h19zD8inpBJl0A85vydvNgfWb2L4vg7qWlvNeM37B/Vx9/fUMsZdx4uUX2PDqZirj57Bw1XLG6E+x9+U32J9VRR027KkLmb96ORPSLefmrbOJhqyt7Fq7jhMHCin3Kii+BgLGTGbm0ruZnxp85tweRx0Fb/2Ex17NRmOwMOzOp7h7gb33oKcb174/c/+v1wNgXPA7Hr1/PBq1irr13+fhfxyhoyuBq//0e0Y5d7L3nWfZcayJzm4vUfHfYOadN5CeFoCvRhlESRdz9B/Psv7tHdQlLeTaG5cw1JPBnlfXcDCnhnqCiBhxNQtuWsqYYQED39pRR/Xxzexeu4HMjFIqvaAYjdjGzWT2td9kVnLQuWXX48RRsJPtb7/Bie15FHlB8fFBP3wUU1Y8yPJ0e7+T3XgP/ol7f7EOrxdwNVPX6aIHUOU+x6Mr1qBTn527MPbbL7NiRiQBvoMpD3ExJEAihBBCCCGEEEIIIYQQl0DD5l/z2NMfUlZSSXuzkw63By9AaTE1xxyYHn6YRZMSseh6O8Jb9z/Dc8+8zuGMUlraHfS43ee9rmF0I50ugC466iupyMulqN3EDlcpR5oOcfxkPY4OFy58qCzPpd5ZSuvd32NevyBJV/VxDrz+e158+wRtTY0427voBhSVCnVREWW7Mjg8917u/d4crCjgdtHRWEhJXg5aUxDBLd1nruX1evE4qinJywEUGN2O0rd0VE9LKeUFObR3FLLrLS/rd/1/9u47Oqpqe+D4d3pNMum9h1ASIPTepFdRQARUQNRneXbF7hPLs/4sz2fvjaIoPBQVkN57CwRIQklI7336/P6gSAkKBAzg/qyVteTOPefuuZG5zNnn7LON8rxcKmucuD2Qn/02absOM/mju+naJBjDed9tOzXFueSm7yPL6scy615WF29l154iauqcOMgkL2cvRXU5VN9yF71bWQCwZm1g1aw3mPnTLqrKyqirsWMHUKnIzczk0MotbBn8DzztAI0AACAASURBVKbc2QtfFEff02H2fP8Mb3+9hYqyEuqOJr5QKFBmHSJv/VbWd7mHqc+PIBAF4MFTk8+h9H14PCfX1HJbi8nfX3zSsZgKOy73ed8I0QCSIBFCCCGEEEIIIYQQQogGKvntWV55Yxa7MkpxOk8Z7bbZqCkopLLajuvoeLmnbA2/zZjH1rVplAX0o9+U6+nVKQJF/kK++3wmW7dmo026mjHjrqNPrxT8Ak7u0lW4m91lu8FRezR5AuDEUVfModQdpG7ZQ5eUzngpFFCewe5fPuajr1ZQWGY9qR+P242zqpyymg1sdyn4sW1rJvYOouHq2DNnEbZKK54TNt6wWYuxZX/L9K9b0eSuIUQFmRt8JVfudnYWgeeUe2GvLeLgjm2k7sygXct2eJXsYuv8T/h85mqKy22ndOLCXllO8d5VbFGoiWydzNhuAVBbQO6y93j9g0XkFp987/B4cNdUU1G7m71VrzC9awfuHRLW4Pcj/jqSIBFCCCGEEEKIK8j2tasoOJyF6wwzUIUQ50er15PcsQvBYRGNHYoQ4pK0jRUfzGf/0eSIMu46Rk8aRftmPug0HjzFaWxbsgOl3+/ltRT5mezJKaDM5iKx1wD6DO5LcowO7CYq96RSdiCXrIMVWJU+GMIDMJ6yufexZICl5SBGjJ1M15hiUufP5H8zVlFUVEbJgVzKFeAFVBVks2/jIgrLrChNUUR2m8io67oS7W+nNm8TG754mTnr7dRk7WPdZz/TvfdEoi/AXbGW16GKH8/YW0fRJt5EzcqXeeertRSVVZD/0yrSxnYnMMjcgFUkv9+LOgf4t72aUWMm0DEin81zpvPzD+soyS+l5FAeFQpw5e5n3+YVFJfbUHklENvrJq65piMRfnVUH1rN6q/+w8+b7VSmp7Fu+iI6dbuekKoy9q75kdxiKwqtBd+2Uxg/uR9Nglw4a/ax7eOpfLXMiaPsMGvf+o6BQ+6hmUKJov29vPnD+CPx5f/Ie/d9SLrNCQkTue+pa4j00qE8WlHLOzwCbymv1SgkQSKEEEIIIYQQV4jK8lIWfT+DCH9fgoODGzscIa4oaxavQ61WY/HzR6dv6FCeEOKKk7qCxdkl1BxNjvzj6TvplpKAr1mDSgE4Eglr0QunOQAv7ZGBcI/Tjs3twQkYfXwwm7VolIDeG4vZiEEN7vI6rFYbzjNc1q/VYAbf/CDD+zTDx1COsnAfO5asoaignNryPEorINKnlLLcVPatKwfMBMV1Y+jtE+jRwoJB48bdNAJvRTGZGz5gh6OWytztHC6GaG3Db4sq/gb++dwddEqOwceoxhMzga4/p7GovIDa8r3kFNRgTfBg0DY8OeDfdiTDb76XwT0T8daX4MzeReqqTRQXllFdVkB5ZTHWQ7vJ3FQB+BCW1Itht42lW6IFvcaFKzEEg7OEg1s/Y7e9korc3eSU1OJVvp2di4sAPWb/9gy/92auSvHHqPXgdsUTZCpiz/KX2eh2UpOzkQMF0CxYicIrkqatIgFwW7ZhVClRAm5jCFHJrWhiMaFq8LsWDSUJEiGEEEIIIYS4QjgdDmw1NQwZN5aOHTs0djhCXFGyDx7Abj25TIwQQhxTmrGLMrsdNxDRZSDtkmLw89JwfBtujRnvkFNKSfkGEKLTYVRA+oZN7GzbhqAu4SiLNrN2VwaHKlxom8UQGRmCb70fPfHEpQykY59mWMwawJfonhO5Na4fY2xKjJYQgo0KPNYKKgsPkV/lRmkKIiCpC21aWI5ukK5CqfPDN6Y10dGw42AtTsdeCnKA2Ibfl4geg2nbIgqLSX3kXvi1IDbOC93hAmqtNhx2N54L8rGaSGL7gXTo2QQfkxrwJ77/LdzeYhgVNjVmvxACKWNv4WEKa1yovEIISepIq0Qf9BoAFSp9EP7RyUSGK9mdXY3duo+irDpiKjPJKneDzoy5eS86pfhj1CoABUqVF95RnUiIh40ZLjyeHeQcUoDMU7lsSIJECCGEEEIIIa4gSqWa4OBgoqMvRGEMIcQxZrMXCoWUPxFC1M9utx7fjNvg441Opfo9OXIGiuDudOi8jJ0HCji46wfmvrSeVb5GPLYCcrNyqHUEk9KlM02aR1D/Yg4jRpMFk/nYEK8anW84kb7hRJ54msON22HH7gY0GtQmbwyaE09QolTo0OoBtCiVQXh5n8dNqIfO1we9UnnCvdChNShRXfDPUxNGsw9G0+/3Qu8XRZRf1PEzPNVpOB12HB7waPVojebT74NKh0avAHSoNAGYzG7cxVYcHlAqVahNFswn/TIUeBRatMYj/60gFG/LBX5r4qL6s7+nQgghhBBCCCGEEEIIIf6AX2AYStWRgkmHd6RS+AdlsY7TlFGVl4+90oq/r5qawgx2b1pN2s5q1GG9GXDP04wdM4DYQH2DYvPoDOh9/PFRgru6nKoDaRwuP/EMOw5bEaVZAEoUCiNa3cl9uF0uCgoKj/0JtyuPtT8tO/dgSnaRvr+KOrsHCMXip0Ot+YuSzwYjJm9fvBXgqSyi9FAGuRUnnmDDUVdMeY4HUB25DyYtWr8gfBVKPLZarPu3sb/kxDYuPK4CSg54AAUozOj0stLwciIrSIQQQgghhBBCCCGEEKIBNJFxRKrVVAC2bZ/z0eu1jJt8M60T/NCrwVO2l9SVW6hO7E2LuBB8tAqqtixiw549FNqCaN/jRlqntCTQT4VOb0Dn409AWCi+FjO6Bo7gKlQmjL4hBIaoILeE3LTl/DqrO/7XdSDS14G1cCep875ke50HdCb08a2J8QeVS41vQDiwE5fTRVnmQcpoh5ftEGtefpCvl+edWyAlu1n8xcdszCqhzuVBFRlFkLce7V80hV+h8sbkH4xfoApPQTFZ25ayYE4nLCNTCLfYqMnZwo5fZpFa60Fp8MYcm0S0vxZtTQShkeDJqqEiewVzP1tB0KSexAW4cNYeIG3mf1lX7UGh1KBK6EjToKPJkjM5sImMHcOJ6RKHSiO7kDQ2SZAIIYQQQgghhBBCCCFEQ0QMoU/3j8j4pYaq6kPs+/VLPs9Yh6+PHrUCPPZyyvL0tJmaQpOYEADspUWUWWuxe+ykr/+Jsv3rMRpUqFRHBtdVQYFEdR1Gny6diQkwNSA4EwGRSbTsnsTSb3dQV7SDTV8/QdGqIExaN05rMcWZaZR6PJgsvrQdOpwInQKFXYsxMpZwBeQ6aqhe/w4vT5mD2l1NwfaNHK5y/+mV8/43jZc3eaNWKfHYysjNSCW/+sheLUkDryLGz/cM5cMuBjMhcck079yM1f/bRW3eZtZ+/ig5iwMwaV04agspzEynHA/eQUGkDBxEqE6Hyq8p7Qd14McP1+OoPsTu2dN4e2soXnoPbmclZek7KPaAWqeh7ZjxxOhPz/gogkIIRIkCcFdtZO4rD7Au0Bul8sjvutXEVxjUMRSzXko5/tUkQSKEEEIIIYQQQjSiupJsVnzyOO+tqTrhqB4v3yFM/ewmWp5DXwXbF/LznFUsSN2N1XmsuEsco596hBGtgvHW/GFzIYQQ50mhD6fz7U+QnfMU87cWUltdwIFtBRw46axmtLC5jv/JK7oJYd4W9ikOUnQolaJDJ/epNBjYtXk7+7aOZ8x1I2nbLOA8o1OjD21Fy4GT6LXrVZbvyqM6dwe7ck8+S+sXQfKYqYzsGYYOQKPHEN2OlEglOVlO7MVpbFuWdiQ2lYro7r3wX7OSLe4zl5Sq2r+RLftPPx424H5Gj2hHmK/uL9wDQoMxsgNtBoyn657/sGZvAVXZ29iVffJZhuAE2oy6nyFdQ9ABHp8YEgfdyZDNefy8OQt70S7Sinad1EapNZIw5jkmDoqgvoJoCn1HWvUwsmKxDYezksNpGzicdsI1+9dylauehuKikwSJEEIIIYQQQgjRiJy1lRzYNJP//e/EavVm/MNimHwO/RQsfJG7X53D1p2HOFRUjMN9bGZvCs3+8U8G//lEXyGEEA3gndCf4Y/4ELVmIesWrWfLnn3U2e0ABIe3JbHXtXRrEYLX0T03NFFtaZ4Qxra0LGprTv+QdtfVUZm5i9SSJTRp3oa45gFYznd7C603we0GMfYBHREL5rNh5TbS845kSHR6H+Ja9abr2KG07dSPCN+jbRRa9KGdGPLkk1R/8iXL1x8ElQptfCIpAycxureCJatWnEMQ0YS2a0PHq66ifc/eJCf4Nbh82Lny6H2J7DyC69UmIhf8zMbVO9hfkA+AwehPQrvedBk9jDYdehHmc6SNQm3Au2l3rn3wOYIXzGHDki3sys4CQKXWEp3Ym64TBtG+29VE+59pBUgAHe6ZxpiAeazeuJxDmQ5cLtmr5FIgCRIhhBBCCCGEEKIRGQIiGHD/bGaNtqFw1VK69ydefW4B5X/e9AQ7+OHVj/l1+SGCr7mTaUM7EavXHJ2V60vzNkGYZfWIEEJcZEaCUnrTIyqOJp2G06+4BIfryLIAk1co/tFxhIb6olMBlJHxyxw2p+6n3OEhdsDt9OnZlpCjg/JUpbHrh3ms2ZxJUXk2BfkFlNd6sBhCSBh6K1MSh1CJD4HxTfH/o/0uTqD18ie662B8Y5vTZkgBpVVHVi6q1Dr8gmMIS4zGx2A4oYUStS6A6J7jGR/Qkm45ZaBQovbzIziuNXH+1Zj+60dbjwddZKvjpcFOFD70Ea7rE4tBpwQsmENDCI+Nwd9bh7rBS0dCaDbydm5tPZIqLAQnNsNyFvdCawkivvsw/ONa0X54PmXV1QCoNQb8Q2MJTYjEW3/yOhCV3kxYuz4MiYildd88CiuO7O6uUKqx+EcTkRSHr9H4h9f1aTaUobc0p9XQ8ZSXOfGcsPImKDkEs07KazUGSZAIIYQQQgghhBCNSG3wIa7L1cR1ARzl5K3ez0fTzjFBUrCDZVvy8USP4oH772J0+wQC1KqzHDITQghxIen9oojxiyLmj06q3MO2hYtJ3VuA3a8LnYaMpG//FPyP7kHhsSdjyN5L2r6DFFXqUGu0qDUAZvyatMOvSbvzik2lNeEbnYRvdNJZtlCi1vgS3bon0a1Pfc1M/ODhxP9Ba1NiDzoPaIOP6WIMQ3vj37wj/s3PvaVK74V/XBL+cWd7H0Cp1uEV3pRm4U1pdu6XBExYolpiiTqX4pniYpMEiRBCCCGEEEIIcbk7sI9tLjf2Fv0Y2CxakiNCCHGJ89SVUlFeh83hwV3jwlFWgdtuA70eqKT40Ba2ZmVRYHejiY0nOjocf/WV+Ml+gE3vTGfTgTwqz7riVADNBo6kS4/WBBquxHsi/kqSIBFCCCGEEEIIIc6omvwtK1j14xLWHSyhBFBbLER26sOQXn1oH+pVTxsrFQe2sv77H1m+O49cDxiNfrTuMJB+IwcQZ7kIYVZVUuz2YPcxY1YoJDkihBCXOp/WNG3Zgg17c6gqT2PtzDfI3xiO0aAGbFQV7iN9dyZVptZ0GzGE9u2iMPxpp5ejEg6uWMCKzfso9ZxthiQGR0xHkrukEHhRYxN/B5IgEUIIIYQQQggh6pXP1jmz+OaD6SzanEpmSS01HlCaTPgtTqUgX4X3LUNJNJ/YpoxDGxfwzcsf8eO6LezJqaAcD1qtmcgl29icWcLtD4yjje+Zrnk2PEAq0//5DstsLjwAOeuotTrRrv2IB+9ZhF6rOn62V/ubeGRsR4ItuoZcVAghxAWk0EfQavTtjPULY93i1RxO28HWfeuoPZoj8PGPJ67dOIZ070ennu2JCjI1bsBCXKEkQSKEEEIIIYQQQtSjOn09P337Fd+l60ge+ygTkwMxArW1xRzafQB1VRH5dZyQILGSv2sV3771f3y6qgrfvnfxWI8IvLFTnbebVT8s5LuvPkYd3ZQXbmlLwxaSHGbl+x/ymcuD88TDGUv5OuPkM5UVHfjHsBRJkAghxCXGp0lbuvkHENu6D6U5eZTbbFiPLgE0mUMIjmtOREwI3iZt4wZ6jnw63sZtTw/H7nLj3zIave6PdmOPpv2tD+J7dQV1irNdQeJFWMtkAnQekDWTooEkQSKEEEIIIYQQQtSjZN9e9uzPRJN8G6Mn3cv49t7oAJutgoKsQ5Q7TASeWGHLWkjmuqX8sqIMnz6TefTx2xicFIgRJ9bSTNqEmKh4+RuWfPcZK/q2ZUTs+UamAJIY/+67tHS68HiAPbOZ+vFqnK1uYNp1rfHS//5139ikO8EW/XnfByGEEBeP3i+KuM5RxDV2IBeQsUk/BjQ527MDiel39R9vaC/ERSQJEiGEEEIIIYQQoh4qlQqVSkVNxm62rt9Cy+gONA80YdL5ENWkFVGnnG8ryGbvzk0cNMYwvP+Io8kRADV6v3ja9hnM0AWzeDltE+v2VjAi1qcB0UXR47bb6XHsj4vSefqLtZQ27c/Nt1xLkI+sFhFCCCGE+DOSIBFCCCGEEEIIIerhn9yfgf1T2fnJUr579xnSt7SgSUwCrdt056qOScSeUg++sqiAg5l7KSj3YtP8d3hq18mvO6oKyDhkw+lyU1VVDTQkQSKEEEIIIRpKEiRCCCGEEEIIIUQ9DBGtGDzhXrxC4li4bAmbFsxgRpWO+c1+Y3n3HgwaMpR+nVtxLE9is9morSmntqCQNT9ksuYM/Vrir6RCKkIIIYQQly9JkAghhBBCCCGEEGfgl5jCiMgo2nXrwc7NqaQePMTGzctY9d3bbNlbQu19dzGuXywmQG/QY/bywxzmS+cBI+nTxFxvn3rfMFq1lNUjQgghhBCNTRIkQgghhBBCCCHEHzH4Ed6qN+GtetOrrozM9Yl88vpbfL18FUva9aF/vxhMKPD28SEoNBylXwBtBt3M42MTGjtyIYQQQgjxB5SNHYAQQgghhBBCCHHpqSVr90qWLlvGzowy6uqOHDUY9IRHBhIYdGx1iOJ4C21AMNEJTQkryGDDL9P5cV06eVXHXnXgqD3MgU2rWPrzWnL+yrcihBBCCCHqJStIhBBCCCGEEEKI09SStWE+X87ZQo2lJU0i/DAYPICV0tytrFhTgDpxIC3btSDgWJLEJ5LWvQYz5rdUvpz/Ac8WZNKxVRNCvQCcOOvyydpZTLW+Kw8O6UI4ADaqClNZ/OkCUp1ucFupOrSGfIWD2qq1fPPC86zxgEqtJa7/rYxt59tYN0QIIYQQ4oojCRIhhBBCCCGEEOI0BiIjE4k2rGDOgo9YUFBFJQDeeAXH0rzNEG67ZgLDOsdgOt7Gm4hWA7lpqh33e9+waPN8vl1QQrEHQI/eK5r4Nl0Y2qvj0eQIgI3K/PVMf+JJvnN7Tg6hagWfPrkCALXei17eoyVBIoQQQghxAUmCRAghhBBCCCGEOI2J6M7DmOQVRHKX7ezNqaACAB98QhNp3a0DHZNiCDKd0kwXSEK30dwXkkCX1RvYk15AAQrAgME7nmZd29KtXTIRxxtoMQe2YeQjU4lxus8YjVKtJTHFcuZwY/py971GlEktMOpUDXjfQgghhBB/H5IgEUIIIYQQQggh6mMKIqbjMGI6Dju3djpvAlr0ZGiLngz905P1+IR2Yfy/uzD+PMMEoMlwnnlueEN6EEIIIYT425EESSNxu10czkwn5+D+xg5FiONCo2IIjY5Bpzc2dihCiMtQaVE+B/emYTu2i60Q4qKIjE8kOCISjVbX2KEIIYQQQgghxGVNEiSNxGG3s3TubKitJMDfv7HDEYKioiJygsPpPvxaQiKjGzscIcRlKHXDOjI2rsHi7YVOq23scIS4Ih0+fJjSvFw6DRxKQHBoY4cjhBBCCCGEEJc1SZA0ErfLxcG0VO66dQrt27dv7HCEYO3atfy2ei01VRWNHYoQ4jJ1ODOdhJhohg8ZjK+vbCArxMXw008/setQDrVVlSAJEiGEEEIIIYRoEEmQNCalksjISJo2bdrYkQhBVlYWOp2U6hBCNEyAvz/x8fEEBgY2dihCXJE2bdpEel5xY4chhBBCCCGEEFcEZWMHIIQQQgghhBBCCCGEEEII8VeTFSRCCCGEEEIIcQVxOh1k7s/EYvFp7FCEuKKUlpRgjnU3dhhCCCGEuIAkQSKEEEIIIYQQVwi1RoslMIjla9axa19GY4cjxBWltKaWZl7eKFWKxg5FCCGEEBeIJEiEEEIIIYQQ4gphNHvR++pRlBcX4nF7GjscIa4oXSPjSEhujVqjbexQhBBCCHGBSIJECCGEEEIIIa4QarWalh06N3YYQgghhBBCXBZkk3YhhBDiEuF2u3G5XI0dhhBCCCGEEEIIIcTfgqwgEUIIIS4RhYWFHD58GG9vbyIiIjAajY0dkhBCCCGEEEIIIcQVSxIk4swcdVSW5JKTlUtJhZVajwedzoRfcBTh4cH4eZ1cd9XjslNTnE965mGKqqvr6VCFzhRM07bJhBjAbbeSv3cje0u9aNqpNSGaakrS0jiYV0EZoLFEkJDcnEjDGeKrKyUn+yD7DpficLoB8PYOIToxiiCLNyrlCQukbAXs2ZFBgcOfJi1iCLHoT1g+ZaM0cx8Zh6swRDUhLjIQkxpwlJGVnsnhaiMRcREEaKrJ2Z9FQXEVtR4Peq9gImITiAgxcXoFWhe2yiLy0/eTU1pDtceDQqPBEBBEVFQCUT66c/tdCCH+Fvbs2cMHH3yAUqlkxIgRtG3blvDwcEmUXGlsFRTmZpOfXUiJzYnDAyZTAIERUYSHWDDpTvnnmb2a/OzDHDhcQJXNVk+HevzCY0loEolFC9ayXA5mHqBSE0ZCs0jM1iLyMvaTU1pLjVqPV0gM8XGRBNb3KHI7cVQWcjAriwP5lQAolWr8/COIaRaJn+HEh7IHT00Wm9bso8qnKZ06RGJSnLhpbR25Wzexp0RLTPs2RPtoUSkAax67Nu2j1CuelKa+uMvzyUrPpthqx+EBr4AE4hMjCTBrZKmzEEIIIYQQQoiLShIkon51JeTvXM2v82Yzd85CNqQVkOcBP79o2vUYz7jbbuK6Ic0wHTvfXkVFxmZ++fZ73vz8RzYcOlRPp2bCm13Lywu+YEIUWCvyWfjSNdy/tBsvLX+Prnm/MOeF15j52x72oELVcjh3PPQUj4xqS/ipSZLSTHb8No+vZ8/g/Z+2U1VnByAhoTej7xzN4MGjaB8XhFF7ZGjFU7yK9+59lNlVA/j3R1MZ3Tn699gpZ9P0F3jq7V3E3/8ij981jGRvoHwH815/hg92RzH+luG0cm1h+sffs3jjPgo8EBDXk6v/MZW7JvWmTZDphOBsVBWms2nuTL778Evmb80myw1Ks5nAzn25ceJUpo7pWv/AlBDib6+wsJAlS5bw22+/0bdvX0aOHEnbtm0JCwuTRMmVoCKLfasX8d0PM1jw4zq2FdZQBURFdaDL0Fu44+6RdGke9HvivaaA7C3L+fLjb/nk52UcKC6pp9Nw+t7yOM+8eCfdA6BwxyLeeeolNoWM5eFnRuGzfhaz//sF87cdJtcUQuxVE7jzrtu5oWfCyc8ip5XarB2snv89n33/AzOWZwCg1Rpp3W4Y4+4bQ//uw0gO0x853+3CcXA29w2cypour7N35T00UcDvKZJ85j81jocWRfDAb/O4v3MQ3hqg4DdemjKVZa0e4otbIshc+wvTP5zHhvwyaj0Q0+lmbnvsHib2bUGYWXPhfwdCCCGEEOKy53DYKM7LpSg3F4/H3djhCHFFUet0BIWEERgW0dih/CUkQSJO56wkf+MPfPDv1/lsTQGu0GgiujQlUaPA6bRRmLGNpYtb035IM1oC4MKas41F/32UJz9LoyI8gS69YtC4ndjL8jl84AA5dj2+4S3p3KEZwSclBjy47AXsXPoec//zKhsdTYnv0ZMe7lpytv/EOxP3owlfxqu9fVEeH3EpY/+Mp7nzsdmkGeNIaNMRL40KBVbKD+7mzUfuZfYGFx8/O5Eu8T5oGzj91FWZydLP3+TX3EwOq0OJ79KTBGcZWVnb+OqDNzB6+RI7pSuWo6NZrtpDbPj+TZ6Y+gMHwuKI7xFHLOByOagtPMzmmXNZ2acr14Y3LC4hxJWtsLCQGTNmHE+UXHPNNbRr147Q0FBJlFyubEVk/Pgmj//rC1ZX6PEKb0lyog6tCuz2KnYuXMHqgR1JbB5EKAAOyjfP5r2nX+OzbXYM0Ql0S0pG7ailMj+LrJwiyjUBREW3plViGD4n5RKsVBZt5+ev97Hrf7+Ro4wiokcMoRWFZC/6hLfzyzG//wa3pngdPd+JrWgXK95+mPve3UBpaDM69+qFDg9uRxWFGb8y9ebFdLl7Bt8+3Z+QM63uPAeuos18/sR/WFukwBjUjHYJWhw1h0nb9Q3TXjQRE/AQ13SOQq9q+LWEEEIIIcSVpbykmMWzZ7Fl6UICAwMaOxwhrhgulwu7y01y115cd+d9jR3OX6JREyQ2mw2bzYbH42nMMM5ZdXU1dpsda10dNVVV59VHXW01bqfzknzv1sPrmPnFF3y0uoTQPmOYeOtdDO/RimgL1NQUsGfTTorqLBwbnvO4KjmwZyOzf06jLLYnE559lX+NbkqArYrijf/j4xef5uW1KpKueYpPXx+M90lXq6SqZD3v37WFiDZdufmJ17jv6rYE2Q/w3Q29GD87ldc/Wcq0niMxq45kOmz5P/KvZ+exwxjLtf94g6kP9iHRW4eaAnZ8+g4Pvf4hK79/h68H9yAhtDXh5oZlSCp3r2alJZz2A67n+Um3MrRrCxTVG/jkPy/w0rvrWbd8CauHdGBo9JGRqarMTDYtX0xaVDvGPfEu/x6fgB8KrNZyMlPXkba7HL/Ta3IJ0ehqa2txXqKfS38XNTU1OJ3Ok44VFRUxc+ZMFi1aRL9+/Rg1ahTt2rUjJCREEiWXmardM/nXq7NYUu5Nz/F3ctPEifRJDsJXDyUle9m+KANFUz+O5zkcOaxcvJJFqVXoe93BY0/dxbj2IZgrstg1911eevMT5td2Zfwjz/DEja05OWeRz+5lc9m/1Z/Wg8fw2L0PMLZzOLaN83jrty1dpwAAIABJREFUwbt5I3MrCxbsYGJKN7SA215CxrbveeW9TVQk9uKOB17mzsmtCMaFvWIvv/3fy9z3/vds/uAFPr+uB4+20Tf4flSumMGc0GYMGX8HD0wYT0rzAKoyv+X+B6Yxd9l85q0fQdukCJpapNDWiTweD06Hg7qamvP+d+j5qKupxl5nw+ZRUlFR8Zdd90KqqqrCbrc3dhhCCCGEuADqamrwMpt56KGHmDx5UmOHI8QVo7q6mpmzZvHT8rWNHcpfptESJDk5OWzatInc3NzLbjAuOzubjH17Kbe7KC3MP68+7HYbxYWFpKWl0bVrVzSaS6WEhJX0tWtZvTYVR9uxTLrnSe7qF3n8VZMpmHa9gk9qoagrpnD/LnZk+ZM4dDCTRjcjAEDnTUC7vgyduIUZv8wgb/k2djKYbqdcUaHWEJzcg4fe/Yp/tg87clAdxagp1+A9+10qD2STAyQCCqzs+vQjfqy2Ypnyf7z6YF8CvY/du2Ba3fwsr1VuY/RLC1mxIpXCvomEmU00hFLnR9KIu3hk6j8Z1uLoTFvvjowdeg0HNq1hVvYedu8pZmj0kfm+NquVyooyfLQaQg1abDVOHCYNer2FpPaDSGrfoHCEuCgOHDjAxo0bKS0txe2W5cmNJT09nYKCgnpfKykpYdasWSxatIi+ffty3XXX0a5dO2rrav/iKMX5qWbdrDlszqnBd8S/ePLB62kf8/uUAX//plx1fdOTm5RlkpaeTU5pC67u25cB7UMwA/hEkTRsJH22bmfF29lkpB0ki9ac0hqt2Z/2Iyby2FNPMKSJ35GDMUn0HtSNd19Lpyy/iCI8hOOhNj+LTbNns9Y3isG3vsK0ya2O9qJG65NEvwdf5v/KlnHtZztZsGAP97dJoaGVIpXGMPrc+19emtKDWP8jMwd0La7j8esWkpE+k03b91JQ1JGmFu8/6envw2q1kpeXx4H0PdR5PKSnbv/Lrl1dWcnBXankaRR88803f9l1L6Samhr279/f2GEIIYQQQgghLiGNliB5+eWXee+9906bKXtZWbGsQc0VCgVPPPEEV111FYmJiRcmpoZy7icjbTeZB0PpMrQHXTpE/nkbpQaNwYRZ76SmroS8wlocQUY0bieOyjJK8oqwqVXo/bzwqqe5ziuQng98zT/bh/5+UKFE2aQzYzpsYF+zEHTHN309wIpf0nDYDQzq3RGd7vTEUquu3Qn0WsumTds5WNGfZuEmGjLPVRfag/59B9Cthfmk46EREcTENaFsbTVlJWVwtCCKV0AoiUmdcK7exkfTHqO85iYGJYcT6RNIWJA/FtOlkgwT4gin08mTTz7JnDlzqKura+xwxJ8oLS3lu+++O156KyUlBYdDZkRf8uybWLcql0prSyaP6EZE6FkM+quNmIx6tJpySstKKa20Ee6tQ+20UVNcSHlZJS6DDqNRX+9zLrB1P66ZfEJyBMDsR2iLjgxrq8M30vfoXid1VJZmsHHlIXy8O9OtS6vT+tLq9bTvNRDDh7NIXbGB3EdTiD3PW3GMrskNTLm6JWH+Jy+rbN6yFRbfhWwpKKa2tg6QBMkx+/btY+7cuaxduxaPZ36jxTFv3v8a7doXkkKhQKFQ/PmJQgghhBBCiCtWoyVIvvvuO1wuV2Nd/pLg8XhwuVzs3r370kmQVFRQUlZOTVAsMU0SiPHxcOJ2q/UyBhHdohO9Wn/Df3Z9y2uvxaEd34JAawVFG37iy//O5XBQK0Zd35PTh1xAo1IRFR568kGFCnXcBD5eP+GUs7M5lFaHx5VMdLgaVX11yUPCSNTqSD/7d31BGWM7M3TSNCorX+D9JSuYceccPlL6EtZjDLePH8nQbslEhAYieRJxqSgpKWHp0qWSHLnM1NTUsGbNGvbv309Uk1PXDohLTkE+2TVW3HHtaBVrwftsll/4NaVThyQSl37G3DkzCArWM7pTKD7lh9g+91O+X7gbd4fxdOjWjOh6mnuZTQT4+5180BBO65GPM33kiQdt2OryyMk0oGvRhPCQejpTqdGERdEckPn3jWf//v1U/YVlta5kZrMZi8VyCa3iFkIIIYQQQjSGRkuQlJSUHC+tFRYWhp+f32Uzg6uuro7SsjK0BhMG0/mVb3K73ZTk59G9e3d69OhxgSNsAJUKtVqN0unA6XBydut7tPgHR9KiTTJs3sSW96cw8FUboESl9sbbL4nuPW/h/in1pUfOlRadUQVlf/D/isNBnceNW6tBq1BysSqXu10uXC5Hva8FJHfm7jc/4+rNv/D9N7NZtjqdHTtn8dw93/JZnyk899hUhrbxRr6Si0uB3W4/qdRhbGwsJpPpsvlMvpLU1NRQWFhIdXX1Gc/RarX4+/uTlJTE+PHjiYyMZNbcH//CKMV50WjQqpQoah043W7OrriokYTmzQiLjEK98Rc+vv9//NfqALRoDBb8/fswYeR1DOlTX3rkXChQKLXo9H/wd97jwWO3UgeodFo0Z/kOzofD4cDt/ntPojmTzp07k5KSQmFxCWqdHq2uoYXOzp7T6aCuqgqVUkFQYOBfdt2LpUOHDvTr1++K3cuprqYam82Kx315lTIW4lKnUqswmsyoNbKppBCiMdmoKiyksLAWlV8QQUG+GM9jhNftclBbUUJJSRWVVuvRo0o0Oh9CYiKwyEed+Jto1E3aj3niiSe4+eab0esbvuHnX2HLlq289+lnxHXsTtvuvc+rj7qaal659zamTp2Kv7//hQ2wISwBBAcF4FO8g8MHssmrdRNkrG+Zxgmc+ezYMI+vvjxAszbD6JJSy8qVmYAX5oCe9L/+Bu6+tjX1TUg9d/EkpuhQ5FspLavG7bZw8goXJxW709hVY8XRMooIgx4dHB/G8VgdOFwnD0w5a8oor6rFek77LrgpKSqgIC8fnTYGvb6eAQpjAFE9buT+Hjdye10pW1fO4MMXnmH2r7N4xTuZlI/HEvNnq3OEaAQff/wxPXr0kFm1jWDZsmU899xzLFmy5LTXtFotvr6+JCcnc8MNNzBixAj8/PzYsmVrI0QqzllIJAm+RpTb09mTW05VqwhM6j95BthS+f6bOWzebqTvoBEoXTns21cEhBHachg3jL+Wa3pFYWlwcAb0piiim2tYWVtDWUUdRJ645bsHj72Wop2p7FapSGwWS8QJzy+PApR1NuynjMM6ygsoqnGc415zTrIPHKS6ugZztB61+pL4p+olIyQkhIEDB2IMCqfdgCFEJfx1q8eKC/JYv+AnQnQqHn/s0b/suuLcuVwO1i1ZSNGhQ3g8sq+YEBeSUq2mQ98BRCckolD+yfdkIYS4aA6x7P1pPPvsGvxvf4Knp91C13McWvQ4rBRlbOGXmV/y5fTFLM3IOPqKmfAWo3j518+ZcBZV9y9/bpz2WipLKrE6NHiFBeIlX0H+duRXLk7hT0h4OCGR37Jh/Xx+XZBCZL94LF5alIDb7cRaW4fTrUTvbUILuAvyOLB1C9ujEph434u8MDoKrULNxRnTiKRZu0i8ftvB2+/P5oa4m2ge74tOpUSBk7qSHXzx2XyKityktIjFZDqSuFCoNGhUSmyZ6aTnFlLqiMKkAUdFKbvnfsiHv6xhR4kfSfVe04XLZcPldoNSBS4HtqqD7Ni4kR1p1TTtnEiblvFHz3Vjt1ZTVW1FqfPBy6BDrQaDwZdOXfrhGL+JtasWU5NVSAkKYi7GLRJCXFG0Wi0Wi4WWLVty0003MXz4cHx9fRs7LHHOokhICsC4aTnffruIbqH+dG8ZjEmrQgE4nTasVVY8BgMGvRY14EpLZe3BLKp6jGLsw/cyul0AGpUK5QVfGqnH6BVFfJKGip/W8fVnPzPy8SEE+BvQ4MHtqqHgwDo+/PBX1Jpw2qccfeYpOLIyxg3urVvYVl5DEz8TOoWT2qICNrz/KK9uKKXKcaYVLg5cjqMJFIUCnFaqS1JZsngrheUa+nZtS3jIJTSJRIjLREVpKUvnfEeXlJbEx8f/eQMhxFmbOWsWXn5+hEREo79CV6AJIf4OXFQdXMd3z93KfbOzMQcEEZeYeHSQ2EhIdAg+f5sccDUF+37ji2e/ZHNZUyZ+8TIjwho7JvFXkwSJOIUPsS3b0qptM5b871vefLKMwrz7GD84Hl8PVFXlsWv1TipUsXT/x0BaAlablYqKMury6lj580/MC+lAtD6Y4OBjfSpRqY14+3njZdY3+H+6rpMfZsBX/2TWjw8yUeFh2tODSPLRoyaHjW+9xKtLcrF6j2XiNa0ICjy6siMkimZh/vhoVzJnzkyigxT0jPRwcMaHvPD5Ynbl16LX1D8I43HmkJW5np3b9UT7WFCUZ7Fzzke8/flc1un7cEvfq+nW5NheLTVkbv6emTMW42o+juHtm3OkCkUdZTkr+WnlWg76+dGnTSIRnMX+LkKIvy2tVou3tzetW7dm4sSJDBs2TBIjl7UQ2vfrQfyyDJZOf5h7cvJ56JGxdEvwxQAUFe1i47wD+A4bwFVdmhEKlFdW4rDWUpi2nQWLFmGyJhNj8cb7+J7lanQGM96+Xpj0mgaVlPQOCafPdbfSft6LbPz0AW51OXn0nvaE4cJWlsr8Z6fxdpo3MS1v4/axEUcaKZQoopvTMUjN8sJZvP5mf0Im9iRWmcPq557knz+ko1GB8gyPOrc9jR1bVxOnaomXTgf521jw1rO89ms6pUl3cU2fZkRLfkSI82IwmLj22lH07HkJlfIV4gqQums3arWsshZCXOY8xWRnLOPH2VkEtOjKpJfe4P5BrQn+W45R1VCYvpkVP6whp3ezxg5GNBJJkIjTWNqMZso/oKrqJb5es4L/3ruQ1+86shuJSqXBYGzDoClT6XP0fGNIJEntepL0xfts/vp+JkzXolK5cDiO7c9hJiC8JxMev51JE/qT4tPAUmpR43hh2mK2Pj2fgwueYNT/HjpavkOL1mjEy7sTD3/5GFc3DeP4GBIpDJ88gHlZWSyb/TZ3z3gTN1r0ZjP+KTcxqfteNq7Jrfdy1sNbmfX8VmY9f+yICrXWjNmnGYOvH824azvy+xa4CrR2J6Ubf+OLT2fxSp2TI3dBiUKtx2gOo0WHkYy+fhDBp19KCCGO7zGSkpLC5MmTGTp0KBZLw4soicYXMuw5XsyBh979hi3r3+HOwf93ZHUioNHoMZqH8HCHXhybrOXfoj3tE5qyfN0Cvnp6ITPUKjweJy7Xsf05QknuMZJJD09iVN82xBgbMGCjCySq0w08+sA6Jr+1jqXv3cT8t+wc2Z9Ej95sIS7pap6b9yhdjzdSolb35vYXBvPFIwvY88It9H8eQIvZYiGg17/4Z/ALPDe9/tSNLe1XnrnpV545fkSLxuCFxbcLd943nu5JkcjcXCGEEEIIIS6wmhoqsw+T451A0lX3/42TI0IcIQkSUa/oq0bzTFwCPb+byWffL2fL4WwAAgOb0GPoJMbc0ItjeVW3NoyIpn3p2fk3dm20EhXZivCQCvbt2weAx+XEWrGE957ew5bs91jw/AAMKlAoVZh8mxAaasbnHPcYjZzwMT9Hf8Nn7/3IN2s3UGO3Ay1JHj6IKbfexOBkX8ynbCYVPOgOnvPY+fzVefy2r5wyEug5dgJT7hqBZePbFGW68PUyoDnlmaBQG/Aye2E2HpudG0Zo8ghuvGccNwyJOyE5AmAmvsNw7nveRdCnM/htVSaZHgALPmFd6XvjtUweM4g2F2ZDFiHEFUan09GpUyduuukmBg8eLImRK1CbfzzH1x06M/vTH/hyyVryKisBSEjoRd8JUxjXJYGgo+e6vVrSoWM3EtdlUJ4fSLPECJyObPLz8wFw2a0c3PgJTzyWR/lj03hyXCt0SlDrTFgCowjR+3IuORNdQAJ97vuan5p+yUefLOCnXbsAPTpzR7pOuJrbJ42l2yl1iBUqNbE3v84MxUP899kNbHKBm7aMffwubptyFQWvfEtEmDc+OhWKU56vSo0XAb4mNGrV0edrU5r2m8TUJ4bSs4kfBoQQQgghhBDnxO3AWlNNRWUtbq0Bs5cFL/0pE5ZqaygvyCVdr6d5RMhFS47YKwooqVFiDgjArHVjr6ygusaKze0BjQGzjwWzVnn6inOXA2ttDRU1dThdRyaUqdU6TF5mDAYdqlO/WAC4ndittVRW12JzHJlQplJpMJpMGE0G1CfWKXbZqa2uoqzaChRSVFKNFQ9OaxUl+bnknLCHokqjxWwJPG2MUVxZJEEizsgnJoVrHk7hmof/6CwP1RkrmPPhg7yzy4tB97/Bh8/2P+nD1ZZ/gF/fepgxLy1g/9xv+OGOAUyIAoN/JGP+u5sx5xlfZPcJPN19Ak+fdYtgWg/+N28M/vfpL8U9z4yx9bfSRwzghmlPMfXGtviezUPDHEJ8/9t5qv/tPHXWsQkhBHTp0oUuXbo0dhjiIgttO5S72w7l7j88y03+krd5/dMPWOXpx9OfPMYdI5PwOeGM8k0/8+9np/HGjxtZu2wVGwe2onsAhHUezXPfjz6v2HReAbS77gHaXffAWbZQoFDGcdWUH7hqyumvNn1qGalneBjqWtzBJzMfZGDTIM5xnoQQQgghhBDiVB4n1rwNfPfWyzzz1iIUPSdw35Mv8c9efjittVRV1GDzeKC4hLJqOx63E2tVyfEJWHBkMrPWaMHX3PBygiue7cTo90J4cPEP3JKQz/oXnuCdT5ewutqOLWkEdz3zPA/0b06Ul/r3JImjhqp9a5gz/SP+/eUi9h4uByA+vgfj75vCdSMHkRgSiFZ9QsLDaaM2aytL533Fa5/OZdnOIxViQkOTufqmydx4yzWkREVj1B5tk7eRb994ksmvLzs54NXvcnO7d086FJLUjfs/WsVU+Zp+RZMEiWigGgpz09m58RAhMQPpM7AH/m7P8YLjHo8HlUlBeFIQiUollWotmr/NRk9CCCHE+Spmz/a9HD5USqsR7WiT1ASvY5uZAx6PC0OYifhIb0JVBSjVKtSyKl4IIS4Yt8uBzWrDarMfL4cISjQGIyaDHrUSXA4r1tpa6hzuE1qq0OoMGL0avveiEEIIcdY8Tmx56/n2zZeY9p9F0PNG7n/yRe7qFQDksf2n//DY2FdY5Haf1OynZ4YQ+szvf9YGNqH73Z+x+KluFygwF7Xlv/LUjY/zw4Y63FovTP4e1OnzeWfMfpgxnceGJxNqVABOrKvf5pH73uLbtErsRj3+AQEocFNSsJGX7lvN9OXT+L8n7mRYaz9UiiP923d+z7v/eoG3ft1PmcF4tI0HW81BPv+/qcxbtZUHn3qJe/qHo1YCSi06kw8BAQGAG6e9jtoqG261HpOXEc0JuRd/iwWDbD11xWvIfp5CAKBUqlBr1RzO2MGsz15l5b69lJeXU15eTkHBQRYsnMG0Fz9kr8mf0K4D6Rru+fNOhRBCiL81BWqNGrVKwZZF3/LDvG9Izco6/nw9eHAbn3/yIR/MW05hVBIt2rQm0V+er0IIcSG4nTYOb1nIBw/9gx5JyQQGBh79acO4x6ezuezIednLPueBwaEnvB5IYGBXRt39Lbsb9y0IIYT4G1F43DgLNjLr9Rd55j8Lcfe8kQefOpYcgSPfLQx4+ftgsViw+Hhh1mtQKFVoDOYjx47++Hh74aW/kCn+Lbw0ZApfrayh9cPvsTAzi9yi7XxyQxvCTHt4f8YS8gqPlB32ONby9r9n8OOeSmKG/YuvV+3hUFERRUVprHznQfo3DyHrh8+ZPn8VaRVHvvu4nbuZ880svlyQianrJF6evYn0oiKKitLZ/P0r3NytCcXrFzP3m1msKDyaHArrwLhn51JUVERRUSpLPr+fPkp/mvW8my93Fh09fuQnddVP3N3+At4OcUmSSS2igczENevIkNH9mf7SQrZ8MY1+n/yL4/lohQKFSoVW7U98q0E89PRoIhozXCGEEOKyEEjPQf1JWb2VTb9s4fOpt/DRQ26OpUAUSiVKlRqtJpYBt45i3KjOp+yJJYQQ4vy4KVj8Hx6d9jozN5ag02oxe3kdLbRrRq/THC8DolRp0Bt98fKqBY8bp8OOzdaIoQshhPgbcuMu2seCzz7kvf8uwtNrElOf/Dd39PQ/4ZwQWl/9NN9ffbRIfeFOfvngEUZ+UMCIB97juwc6XtQIVTojN3y8gFdHdsTPoAaMjJl8NS8uPUjuwWyya600x4viH2bx/f5DlA14iq+fn0Kv5sfeQxDJNz3Py55K7C9+zJYdqRzI6kWSxZviFYv5ZeNGMtrfxP89/gh39I852saXmH53MBUlrmceYN7B7ezYVUSfENmOXpxOVpCIhgtJ4eoHP2LH3Nd4ZGhrWhv0GAwGDAYD5qBAEkZez5NfzmPx+ncYE97YwZ4DhRK1Roder0Orkr8qQggh/mJJ1/PWB9/wy9t3M6ltNLFGw+/P14R4ut/6CB8umc/nb06mk/+fd3fJUKjR6g0Y9BrU9W2wKIQQjcmTytIfl7F9UzFNrrmN/6xOJbuyksrKSiord/HDKzfS4WhGOuqqKbz1W/6R17LXMvOpa4g7badZIYQQ4uJxu9JZ9PmLPPvmdPJ6TOKRp05NjjS+dk/+xsvDjiVHjopKoL2PN+F6LUqlAiU5rF++k9LiOnp3bkdQ4OnvIblNW8IjI8naksruA9lUUsSe7bs5lF5CSoumJCTEnNYmOj6epi1SKM44yM5taRQjq+7F6WQFibgwTEHEDriLZwfcxbONHcuFEtCD29/7ldsbOw4hhBB/W4rA5vS65TV63fJaY4dy4USN45Pt4xo7CiGEqF9hIYdLy7FGX8vE625lTEoMlsaOSQghhDiDvT/PJUN1iPzmw3n4lnu4rfult648MTYWtfqUIejI6/lwy/UnHFhHVno5tdVNiQ6zYDLW01FQGAnePoQdn2RVREFOIaUFkcQGhOHvW08biy9hgUEkqMouzJsRVySZFi+EEEIIIYQQQgAU5pNZXkZOSAARfpaLlhzxeDx43G7cJ/x4PB48fzqx9fR2p/7U18WZrieEEOLy1nz4KCaPu5HWaXOZO+v/mL276PJdI3EOq8s957hg04Pi/9m76zCrqr6N49+TM+dMd88wM3R3l5SUoiASgoodKMZr6yPGY3f7WIgFAiogIKB0Ix3SMcDAANN98v0DpFViYGS4P9fFH5y91t6/vZlrDnvfe62F5taSv6KAREREREREROSCKKI4azGzP/kPvRs0wGKxYLFYCA6O5oo+T/HNvLS/7upxUbruZ25v0+ZIv5P/tOLFJdkUuY7tmMb8Z/rTJzKQYOuhdj4NG3DNZ1PZml18vk9YRETOq1Q6DbmTex7oSd74ETz/xAt8v668azob8SRVCcbu/zeTHWXsYXNuDumxkSSEBBFEJFFxkYRGW/66T0426Qcy2BYcRHRMJBFKSeQUNMVWOXI6nYwcOZJZs2aVdykibNu2jYOFukESkXMzZ84cMvamY7efaky0iJyrNWvWgP+p5g8QkbOzki9vephXvp3NZo8XvB7cbg9eNnLb5f/jjmPeZvVtdB3PPfkkw3qknvXRStI28MPrt3Pj+2txHzOKIz//AJPHv8icxWOY/tJ0vhyceHxHZyGFE4dxeb8vWOj24vnL0R+eE0ahzObZ+jfy7ro0Ml1HR5d4Vq/hpzseJdH/Sx66qh6xvmd9SiIiUq4MeEMaMeDWu0k/uJ+HvxjLB4FJRL1+P+0jyru2MxFHfKVgbH4L+XTcr1zbNJnEmuHHbM9g+sRpbFizk8QOUQSHBAGBhMdEEhy6nSmzZ9KlfQsaXl7pmD7ZrFg0l3m//k54wkCioi+qCyIXkAKScmL18aHXLXeycfnvbM7KL+9yRCAgnGZtGhAVn/jPbUVETqFVtytYNncW6Xn5eEv03SZyPvhGJ1G3RUsiYhPKuxSRCsKLx+3E6XLhdHuO+9zt8uA+5hOTy43Lc24Tl3jwJTDyMq5+4l7uvr4tTWPjgFIKds9m1KN9uffHA8x4cQTzBv+H1kd6uSkt2cRHr3/FYiz43PY9S97sRCoG2Dadj+7ox6MLS3EM/Jq9b1xJeKgf5sNzRewc+T++3LufvF7vMPGVa2kd448V2LNnMbNHTqEwyn4a03qJiMi/mwFDSiduuj2LzINP8Mq3b/IMwGv30z6yvGs7XQaaXDuANuPWsWvK0wwzwfDnb6Fz7Qj8yGD1F2/w6jcz+f1AC4Z2bEPdWoEA1LisI+2nzmHpV5/zxnPg8j7G4K6VCCGH7dO+4aP3v2bCjup069mVDu1OFZD4ExAcT1xqDjNW/cIbL7Um7rGeNIq5sGcv5UsBSTkxmS00atmO+s3blHcpIkcYjUaMRs28JyJnJzG1CnGVUg7N7yoi543JaMRoMpV3GSIVRD0G/W8y/d534wEM60Zx739e46v8trz95P0Mbns0jDQYzVit1nM6mi2hOt0eepkuGLBYzBgNBsCGb+V2XPXUq8z66UnmFf/B9jRoffi9Ja/bgWPLdH5cBCbbEEa93Z1aPuZD37Y1ejD04xeY0PgR5o+ayYK3e9HTePR7eOfmjRSXltKzU3vqhYcTZDu0LTW1DUlPtgSTGbN+nYiIXPwMRkIaXcMtd+WQtf8BPvtuBK/7xxL5QT9qlndtp8mY2If/u28ey//zFYt/Hs6A6f/FbDQAXtxOJw5nEn2fe5Cbe7cg/vBXnSGyLf0H9WHl9i2MnPcFD1/9DY+bjRjw4nG7cDjCaTFoKMMevYaap3zc5U9qtSZ07dOWz1+aybyP+tL2czN/fpVGVW/J0Pencl/TC3QRpFwoIClHRpNJN7ciIlJhGIwmzEZ9r4mIyMXEiMXHhsXn8F/tvphNRowmCz6+dvz9/cv0aAaDEbPVetKNuMFgwy+gGlVrW5ib68Ht9XJ0NVkvXo8bpxcMWPH9MxwBMJqw+FgxYsDrdOM+YdXahErJWC3rmPjgHfhZX+Kevo2pF+CD1WDCYtV3tohIRWIwmknu0IeO44BTAAAgAElEQVTbsvZx4LFXmDThA8JTInnl/9pfHGtvGMwk9XmVkdEt+PqjUXw+dQ67cnKBKqS2v5wbbruRgV3qkRxiPHo2BhMR7e7kuZAaNPriKz79YSar0vcAccTU6UCfWwcz5Oq21Isx/8VC3AYMMQ3ofMdbjA38lI9GTOHXjZuObPUvLsThPmVHqUAUkIiIiIiIiIhcICXZW5gz/g2e+2wNf/zxx5HPPR4nJfku/OOOb28w+eCT2oEeDZ5i6ZqR3PrwVcx+pT2VMODdPoPPhj3DYqcLz8DOtLdaOHaMS9Kgz3l/ww3c/sl0Rt/bnQkPmbHVvoLbb72DO3s2ICrYBxERudik0vWhj2kz1InJx4bNdnSL0RxOvd6PMLLrvTi8Jiy+dvxPDEfCa9Lp/0azd6gHi2/ZvghwrHbPrWTbE26sfqH4neYATIPFl5TW1/Bo4ysY5nAeXnPLhMliwdfXF6vFhPGE0zGarcTW68AtL7di0LMO3B4PYMRotmD19cHXYsH0d/mQwURQfA2uuO8FOt8xHKf7aCJiNJk5j5dI/iUUkIiIiIiIiIhcAFmbFvH1swN4euI+CopcuFyuE1rYOfk5jAkfew1uHdaXp28YzZ73etNkpA8mAHcpRXm5FLn68/kr3QnyO/4W3+gTQOenv2DlwDl8P/IDfhw5i8ULR/Pqyol8+ukVPPnk0/RvlUyw7aSDiojIv5YJi83/L353GzBbbfhb/+YXu9GExRZA6Hn+3W+xBxNqP/N+RrMVX38rvmfSx2TG127G1+535gfk0GwIVl87Vt+zKFguelpsQEREREREROR8y9zEmklv8+S4NKwx1Xls3CJ27959+M821iz8hntqn+pxkJPiolm88tAkzOZGXHtVCgczMsjIyCDjYCpV+nzObzPf5droQKyGk1+RtfoHEVb3coY88w2j1m1jxvxR3Nk5EufqMTw5/BNmbt5L8fk/exEREZF/JY0gERERERERETnPSgpy2bV9PUWWJGq1vodBXesTd2QdkAIMjiKyLKeY6NxZSsmcyYzI99J8+Pu8d2ciL73kOLzRBx//QEIDfLH8zfwhBpMVW2AotkAIjuhKleH7ObD5OX5aupFt2YUUAxpEIiIihxSwf9N4nu3+JBOdnjPo14gnfx3NTZX/YUorkX8ZBSQiIiIiIiIi55nVZic8PBpP4W6yNq1nY7aJqlGlOArWsuynz3juyTHM3efEFn18P7fLRdrGdeQ6PaxbtJY1g6KpRCJJSf90xN2Me/151gZ256pWnahZxY7FAiZTNtu2rGBNYT4llaKI9LOilUhEROQoL25XAQe27yDtTPIR4sh3gtcLF8Oa8CJ/UkAiIiIiIiIickZ2sXDEx7z96hiWO70YPA4KcrI46Ckl/cdHuHLB81iB0Bpt6X/fi9x3WQTGsDASGjejvWEm85Z+xm0txhNgBq+nhOJ8B4X5USSmpnGg8PgjmSwW4pu1o65nAWt/e4yB7Z/DihmL5dinT/Xp83+3MeSG9lT2MR+eS9tN/vL5jJw9gc9MfvhYDRyagctFSX4mGZlxtHmkP/UTYtGM6yIicpQfEZX78/amjjzv8Z5BPxsRSRZMWtBBLjIKSERERERERETOiJOinAzSNm5hs/v412sdefvYmbcPgHC/VDILDk+bZYqgSvPreeZdI0+/8S0zt2xmH3bsIa24rN8Q7rosmrXfDeC1FSccymQnoM5t3NlrAnf8uI69O+tSrx6sXLnymEa7+eipRfyy/WNmPNmJED8LEMvV9z3JAfvHTBg9n+UFDoq8ANWo2mkQT1x/PX061qdquFkv+oqIyDGMmK1BRKcGEf3PjUUuegpIRERERERERACq9uTpD5txn9uf6Kjwv2mYQLPBw/mm830Uev/67Vqzrz+hR/ZjwhqcTNNBwxjReRB5JSWAEaM5gMCQMMIDTLRoOYcri2xExxyNLDyl+Wwe8ygvzt2Df7PH+f6zIVSzQVFR0ZE2u0e9SO/XxrDuo3cZ3b8lN9QOwmayEFS/J7c+35xrHyyk0OXhUJRjwzcwgLCwUAJtZr3pKyIiIpc0BSQiIiIiIiIiAD7BxCYFE/uPDS34h8XhHxZ3Zvs3mvAJCCExIOSUm33tVTl+ixtH6Q5mjv2Z9ELoN3QYHWuFYz2hX9U+jWjw9jiW5GSSWeLhSGZj8SM4yo/gqDMrU0TkYrBv3z4+XzCLufPmlncpIhWG0+Vi9+49BMVVKu9SLhgFJCIiIiIiIiL/Vp5SCnILcLl8mDf5C5a370/z+IQjm3fvXsi373zKxlIn3lrtaJ5oxWIqx3pFRC6AiJh42l55NXu3b8Vk0eNNkbJi8EJiExPRiZXKu5QLRr9BRERERERERP6VjFhtlbjquh48tnQSuye9zo3rvyHY1/dIi5KSHPZt20qWqwZ3PXMrDcJ8MWtRERGp4HxtNirXrE1S5WrlXYpIhWMwgsVy4njViksBiYiIiIiIiMi/kgGjTyiV+7/KrNCWjB39DbMmr2LxMevCG2vXptsN/6X/NZ1p1ziFYItJi66LSIVnMBiwWH2wWH3KuxQRucgpIBERERERERH5tzKYMEdUo23v26jctBs3P5xP3jELw5sCA4kITyAuNhS70aBwREREROQMKCARERERERER+TczGDDYw4irGkZc1fIuRkRERKTiUEAiIiIiIiJSgbjcDrZu3UJQUGB5lyJSoWRmZuKf7PnnhiIiInLRUEAiIiIiIiJSQVh9fAmNiuWnyb/w25y55V2OSIWSkZVN7eBgTGZjeZciIiIiZUQBiYiIiIiISAVh8/PnisFDKCrI55hlKkSkDDQxGIhOSMRstpR3KSIiIlJGFJCIiIiIiIhUECaTicTK1cq7DBERERGRi4LGhYqIiIiIiIiIiIiIyCVHAYmIiIiIiIiIiIiIiFxyFJCIiIiIiIiIiIiIiMglR2uQiIiIiIiIiIiIyEXDUVLM5nVr2LT8dzxed3mXI1Kh2AMCqVq3Aam16pZ3KReEAhIREREpE2sWz2fhr9MoyMst71JEKrQGrdvSqHV7AkNCy7sUERERkXKRnXWQTSt/pyhjF3Vq1SrvckQqjFKngx07t7M8J0cBiYiIiMiZ2LRqBXZPCa1aNMbf37+8yxGpkJYsWUL65o1UrVNPAYmIiIhcskqLi/GUOmhQpw79+l1b3uWIVBhFRUWMnzCBuSvXl3cpF4wCEhERESkTpSXFNKzfgEEDBxAREVHe5YhUSH5+fsxdsRa3y1XepYiIiIiUK7PZTHBwMLGxseVdikiFUVBQQFBQUHmXcUFpkXYREREREREREREREbnkKCAREREREREREREREZFLjgISERERERERERERERG55CggERERERERERERERGRS44CEhERERERERERERERueQoIBERERERERERERERkUuOAhIREREREREREREREbnkKCAREREREREREREREZFLjrm8CxARERGRslZKwe5NrJ+/mDVp2WR6vZhsNkKq1KRhg2bUj/I/RR83pXm72TJrNss2ZrDP68VoNmNPSqZOk460SQy84GchImenIC+H4qIivF5PeZciUqGYzRb8A4Ow+viWdykiIueF1+2gZN8mVixbxtaN+9nr9WI2W4lPrE/1Jg2pm3TCPYHXizd7O79OWcTK9D14vd5T7DWG1gP70DjWjtUIu+d/x6TlLmp0v4LGSSZyls1l+bLNbC104AlLoW7b9jRJCiPQcswuCrezcNpc1pcm0rJNTSJce1g9fwUb92SS7/USHFuPRq2aUzM5CNv5vEBSISkgEREREalQ8klfM5/Jn33JT5N+ZcnWgxzwgtFuJ7R2S/r0H8bDt/Ukxe/YPiXkZaxm2ocjGPfjeOauSWePFwwWC/bKNWnfI4+Qp26gtjISkX89R2kJs38eT2FOFhaLbvdEylJBfiFNO3ahcu06mEyWf+4gInIxKc0lZ/U0Rn/1A+PnzGXN6j3s8YLZ7ENy5ba07DmU51+9kvg/23vdeLb+xujPxvDuqOks2rGTU8Uj0IThLS6ndtShgGT7tHd58T031yYnkrduFfM+/5qpM1axscCBK7IWzbpfz7B7rqdz7WiC/vxVm7+B6V++w3f5Tbllb1VMuxfww49zWLV9P3l4CUtsRocb7mXYkB60Sg66EFdLKhD9j1lERESkAnFkbmLO2A9589s1UP9yruoeht1gwOEo4mD6fnLXrGRt7vEBiavwABt//YwX3xjH3tod6HZPDAEGA263k6zMPWQvm8OSrOupHWgovxMTkdNSVFjAkt+m0qxebVKTUsu7HJEKZfTo0UQlJFKpWnUFJCJSsbgKyd40ixEvP887U7Ziqt2aljdeQ2wgeDwusg7uJ3P5ejbxZ0Dixe06yPIvn+XxVxawr9aVDL6nF8FGA+TsZO2MKczd48BY7XJuaNeB5nE2rMct9HCAZRM+YemK39hlqU6dfjfRyu5kx+xpLPzmbT6ITqZKdE/qxRw/HqR091J++PxXit0WQmt0YuDl4XgKNzN/4RLGj/yChNgEKt/YhigN9JMzoIBEREREpALJ3baN1cuXcKBSS26/92Ue6hlHIFBamsfurevZne4g1O/4PqWZWayfOZWNgdH0uvUlXhuSTAgG3G4H+9LXs+X3NHwCFI6IXAw8bje+vnb69O5D27ZtyrsckQpl3br1GI1GNHudiFQ0pbnpLP75I96ekoa5eX8euf92OrRqQmoIuN1O9qdvYMuyAqL/7OB14878nc+/XkSaoQ79Hn+BV/vVINJggIMbmPexkyEvTCU9oD23P383dcPsJzyE3sWMT74htW13Btx5PwO7t6RyoJP17z3ALa+OZe7cZezo04qaMTaOm2lr8++sr9KCq/rdyC1X96Rh9VjceSsY+dbzvPnZAhYuWcqqLk3pkuJzoS6dVAAKSEREREQqELfbjdvpxFSYR8Ge3aRlhpASZsfuE0hqzeak1jy5j8fjwelwYHSV4tq9na37IqgeHYC/yUpcQn3iEupf+BMREREREZELoITsvX8wY+x8csIbMOiOx7m1Z8qRrSaThZiEOsQkHNPF68FzYB0rdoLB1Irr+9ck4s9t4dVpPaAHlV+bwc4l69ngcFGLkx9Ch9fvxu2PPMtNl9UjzHZoa732LUgdOYON2blkljhwwHEBiSWoCi3638vQ26+iUezhYSK2BvTp3IHlixby844t7EjLhpRoRE6XAhIRERGRCiQovgaNWnRn8upZfPf20+xL70LTKnGkJtaifs0UEsPtJ/XxDYmidrsB1Jk7minvPEZBQR/aVY8hMa4GjerUoErMqRZ1FxERERGRi53XnUfevhWsWGsjunU7endM+edOBiOGwERSIwwszdzA7Hm7aN46nmAMkL+bP+YtZ5/TjbVyAvFmI8ZT7KLW1Q/Rp+nRcASAuIb07juYxIJqVI8OOOnBtTmyGa2a1qVy7PFzaEXFxRAeGUXO9kIKCgrP+BrIpU0BiYiIiEgFYouvR6cBD+AxBfP9zIWs/eQZphXYCG7Qnl7dOtO5fSua1K3OsTmJJSiWer0e5NkCXz6dNoeN37/Ka+kluGq2o0/3LlzeoQ2tmzYkOqD8zktERERERMqeweHEkZlNpo+dgEo1qRzqBf5hel2DCUtMS667qirffjKbN596i6DraxGFAcP+dcz88jvWl1Si87Bu1PXz5VSrNoWHh2K2nPBoOqQh1z7UkGvL6uREToMCEhEREZEKJrRqffo/OJy23RYye/ocfl+9jZW71zP23VlMmdufBx54kOs6JnDsWBJbeCwd73qSpt1/Z8bUaSxdvJXlB3Yy47Mn+GHa5Tzw8MsM61sZjSUREREREalATCbM/nb83B7yswso+qdw5Ag3AQGRGDhI4p6veOymA4c/jyAstQldug/gicGN8LOf/8fPjuISHKWl5/04UjEpIBERERGpiGyhxDbqwYBGPbi6JIcNS39k5Osv8uVvv/BNbDM6dBxA6ol9LDYCqrShV5U29LijlLQtc/jh9Yd4+csZvP/Oz1zZ9z7qlMe5iIiIiIjI+WG1Y49MopKtiNmbf+f3nQOpnnTytLzH8bpw7prM028vIKrxPTx8mz8zZ24+vLEKldv15OZuDYgPMJ1yeq2yVcqeXWlkpO8nJDCAoEANe5czo4BEREREpMJwkntgF7v35eEbkkxceBC+vuDr60/1GnVo0aQmY39ZhzO/mOIjfdyUFBxg55btuIKrkBwZjt0OZrOFpKRqdOzcjA+/2E5BTgFF5XhmIiIiIiJyPtjwC0yhZkMP41ZMYeR7rUi9sRv1aoVjBzweN/m5GRzcVUpA3WQiAVwuchbMZBZQs/1V9Oxfn/79/fE/78PNi3GU5ON0OsFigdI8Dm5dzPSpc1i/L4BG7epTu2rk+S5CKhgFJCIiIiIVRhFpKyczcuQ0cmIvo0W1RIKCAErI3beMKTPWkBWZwmXN6xDHn3MLO8hO/53Rr77KutDL6VinOmFhXsCNo2gLCybMJM03mqZdWpLMacxHLCIiIiIiFxELgZHVad3rGqquG83cjx/i/3bt5PpraxDuBbfbQXraH2xZFkbv74bRAfAChR4I9XjY9PMI3kuqTwwxREcfu98wkmpVoUrlaALNpjK5i/AUbGTJzB+IKNpEmN1+aEH4X8Ywevo6smsM4KbO7akV/c/7ETmWAhIRERGRCsNMkC0YW95OfvjlKb7LLKTQC2DFao8gOqUG3a8aRP+eTQg5po+vOZAIQymrxr3M1PfyycULmDBZwghPSqZ916u5/oYO6F0sEREREZGKxxKSQMO+T/JstonXfpjJtl9e447RuQAYjWbCwmtQvdnd3H64vcFsIb7NALon/MZXf3zGf4eGEhoK2dnZeL3ew62q0H5Qb6698w6ub5yAn9V0znWW7l3LhPfXMuH9Pz+xYw9JoHL1Htx6Sz+6ttSaiXLmFJCIiIiIVBh+JDa8nJse8SHh5+ksW7uXPV6AQAKi6tGsRwd6tm9MasixfSyExDek/2PPEVRrIosXbWebB8AHq70Wdbu2pXePjtRROiIip8HrdlCSvZed23eyPyOfPLyYzT6ERSQRm5xIXKjviR1w5mawbu02dufk/MVew6h1WXMq+RkwAAfXzeb3NDOVWzQlOchJ7sY/2LozgwNOD8bAWJJr1yQ52BfrqSY9L8khY89ONu7MIK/IAYC/fwQJlZOIiw7H13zMLbIji51/bGJbppnYqlVIiQ/CcmSjk7z07WzauAdnSCWq1Ugm1Adw5bM/bQub0koJSqlK1TAX6Vu2k7b7IPleL1bfIGJS6lA5JRjbuVzoPxXtYNGs9RTGN6R9rQCy9+xk2/o0DrpceIDg2PrUqhVNsI/5uDd3s7csZfX2UsJr1SU1yofStM3s2LaHjBInbr8I4qpWJzUyCL8Tnxg48snct4tNO9LJzCsBwGYLJq5SJRISIvGzWv+6VlcJBZnppO1I48DBQvK9XiwWGxFRlYirFE9UsM8JHTy4SrLJWPcH2zJyyfV4wWTCJzSchMq1qB72D/Pji4jIGfGLTKDbAy9QtfkUxk9cyLxt2wGwWGzUrNuVdr17HFmP0Os1UOwMJ6laDOaCeNq06Eaj6l42btx4JCAp2rmOuaNeY+FuPxp+eT8NE/yxGCC0Wls6domkalIQtjN8Mm3yi6dmjVQSogIOfydHE1W9A1dddxnt60crHJGzooBEREREpCKxR1CpZV9ubdmXW0+3j9WfkFqdGVirMwPPZ20iUrE58snbvJTfJoxjzPhJLFq6kx2eQw/Q6zbqTY8bb+eem5sS/Gd7twPHntXM+vFHXv5gDDM2bT7FTg1AC17fMIdhVU2YDLDi00Fc+1ECj8z6iu7GZcx4801Gj1/GqmInnpS29Lnt/3hwUEfqRduPD0lydrJx3jTG/Pg9n05azM6MfADi4urTdUAvrujTl5a1qxHhf/g2OXcNE98dztszgrjmmad4eHBDQo7EDAVsm/UNLzzxLZlt7+aZ1+6jfQRQuIvl417niU/TqHPTUG6utIVvR/zApGnL2OUBe0Qq7fo/wQP396ZTctC5X/P0CTx69f0sum4kK4Z4mDj2B0Z9Mpm1xQ6cQJX2DzBs+F0Mbp5EoM/R2/8NY//DXW9l0umNV+lXrYC1Iz7k+9GzWXKggKKERnQeOJT7bryCNpXDsP/ZrWAvO5bOZPxPY/h8wlxW78gEIDKyKpddcQVXXteXtvUbEh9iObnOkhwO/rGQ6ePHMW78LyxZuYddQEBAJHWbXsPVN93CLQMbcPSKuCjJ28mKn8cx7sOP+WnBNrZ6wGCx4FevMVcMfIpX7+hGXJmkTCIi8ieLPZjqnQZQvdMAHvnLVl48jiyW/e8uXvhtC8mDxvL1iCuIPWESrX3jnqLVTW+wfdZEftl5OzVi/LFYoNbAl/jsLG86rLHtufHpx7itR03K4FtUBFBAIiIiIiIiIufI6y4id9Nsxr72DC+P/oPCuFQSWnaisi94PC4K8rYyZ9wCOtzclFaHeuAqTGf1yEe5d/hcdsXXoVWnTti8HryFB0n7Yz2b89xYYxvQtkYTKtkNJzx2yWXr0pE88/U7LMmOJ75pa9qYHWSsXc6Pjz+AOfgrXuzfmITAP29589j1ywc89/QXzMgKJDy1Ae3rWDFTSn76Tn744AWmrsjhmScfoF/rxJNHTpwhT1EGa3/5klfTF7PKm0ClVp2oYihkX/pmfv3uJZw+IdR97ioiff95X6fDvHcOb939LeOzY6hUrxVt/UyU5Gzl9wXv8ODwQOp+MowWKcGYjxtVk8+udT/x1teTWbYN/Ks2pFE9LzlbNjD/zacxWPyIuPtKGkb7AAXsm/8d7z3zDt//4cEvpTrtKtuw4KRo/x7mfP8+M1btZtijTzP0yhoEHZuRuAo4uHYaX7/8Au9O3kZJfGUS2tSgms+hee0LsjYx9+eltBvYgMZ/Xj9HJlvnfcrjN73Dyvga1OrQiWQOLRRcVJjPhi+/YvJV3bg1uWyun4iInAkvbvcels3fgMFooXbzqvgUFYP96Mi+4uIs8mwOogxe9gSGE+ZnxKSlDOVfSgGJiIiIiIiInBNX5lbm/PgJL4zehLHR5dxz1/1c1aU1NcLB4chn+8aVbFnlPPq2p7eEvH0rGDFyPjsCqtPlsU/4+Pb6xHjcuHYsYOxzd3LnyM04Gt3P6PGDCD3piBv44p5nia7ZkF6PvMC9/dpT1S+HWQ8P5Ob/zWP0T/O5t3N14gKDMQKO/bP56KMJzM4OpFn/x7n//t40SQnGRhZbJ33PK2+9x5gFP/LD9BbUrRlL48hzu1Uu2rOJHTlZuFr14KGb7mRAx+b4mXfw6+hXGfbEt2z69QcmDOnGLTVPnFbq7BT/8j++T21Cv7vu44F+fUhN8uHA6s+44aYnmDXvO75dfi3VYoOItB/7dGorP77wFuEpNel8xyPcPfhKGke7WfnmQ9z/1himz1rE9d2aUzc6AW/2MsZ89xMTN3qo0vMu7rl/CJ0aRuFPHnsWTOajN97lk2lzmTJxMk2aVKFL4tHrV5qxll++/4y3puzCr2Uv7rr9Hq7s2JQqIVBSks22tWvYkWY8blqU0gMHWDPpBxYHx3PZsC/44p7aRGLA5Spl1/YlrPj1D3zLKFwSEZEzZzTaiUuKx7NkN1M+eIRPAvrSLDbuyPa9e5cx7s0PWVZoJanvNbSuZMdHT6HlX0o/miIiIiIiInIOnGRsW8fMSTPJSmzODXf9l8cGVj+y1WoNoFqdNlSrc0wXVwlFu5ezaLOFgIQePHB7A2IAjGbMlZpz1YM38s6Xj7J40gKWMIjLgRNfPA1Mqsftr4/gwctqEOBjBqLodE0XYsauZt/eDPaWHppmyodStk38iWk79+Dq+Bz/d09vWqX8OdFXKKk97uDhop3szviAVavXsnVnB+pHRpzTzbLB4k9C86u56+mXuK3Fn/FOJdp2GMwDXcbz2IJ1LFm2h1tqppzDUY4yByRz5dNf83q/yvgdnlcsusHNvHzdKK58cQ6zFm6m8LJksB+fKvjHVqP/E6/zf9dcRlLgobCmWec2VBk/j1V7s9hfUEQRTrJmzWDGmvXkNBnC8LuGcFXDqMN7CCSuZX/uKMlm/4Gn+GnLGtb/sY/LEuMPzw1fwu51K5nz6yLyq3bhxruH8+BVqUeO7+sbQs3GbanZ+LiycLlc5GYfwGqKJMFuoTjPQWmgDz5mH5KrtCG5SpsyuW4iInI2jJisleh991203vYV6btm8eKgieThPdLCFBBAeHgCdZq24p7H+1AtyK6H0PKvpZ9NEREREREROXvu/ezftYJVKwJJvbwtvbpU/+c+BhMm32BC/GCrK4OtO3NpkRSEj9eLtzibjC27yTcYsUSGEPIXu6h/zwjubVOLAJ9j5o1KrEePZi0J96lEqM1yOFRJZ/mCDWQfgJYN6xAWHnzSvlJr1SEhNo5ZG7awLT2DQiLOaW5zS0gNarXswxUtjq8+MDiYGnXqUzIjjb179wNlE5B4at3JA70rYTthZfr6jZvh47OETXv24XA4geMDkhoDXuDWrkfDEQCiq9G6UUvy0ysTE2zDTAYbVm8ifaeDWm2qkZgYxYniUlJITa1G0a/pbNm6k1ziCMeA153Orq2rWbc+jNr92tC5bepJfU/FJyCEqg27EDb9N759aiglpXfTq2EciUFRJMRGExlUNiNvRETk7BhMVnzbPMSssa0ZM+orZv28htWeo9t9atag02XX069PC5J9LBj/elenxxJCQvV6NPJNIj5EYYuULf08iYiIiIiIyNkrLiJ//0EOBoYRV70e1cO9nDze4wRmOwGprbmqnZ2ZM3/g6ScbEXZPI2I9bpzb5/L9Cx+xzhhJk2E9afYXu0iKi8NkOuGRS3RXnvqu6wktM9iXVkBJSSWiIvyxnWpqprBwEvz9iTRcWhOkx0RG4Ot7QtgQ3v8jdckAACAASURBVJJbX2/JrUc+WE3m3mzyc6JJDAkjwJ+TBQQTFRxMrMF53MeG/ELyMjPJDYmmTtUaVA49jZ8NwBqaRNPrXublA4/xws+L+fU/g/mhwIC18dXcNbgvvS+rT0pSAoHKSUREyo/BiDGpFf0eaUW/v17RvWyENWfIS80Zcp4PI5cmBSQiIiIiIiJy9owmTFYLVrcHV/Ghaa1OoxO+vmE0aNYQ7y9zKZ78EFd/XQQYMBj8CQhPoV6dIbz9SIsyKNCK1deE0ej66yZOByVuN26rGR+TCVMZHPVUPB4PTqfjPO39ZI7SUjz/3OwfWLBYzZj+bnVdtxuHy4XLZMJsNmP+MwQxmzBbLJjcblylTv7mX+AkfjFJXPP8J3QeNJOx345ixvT1LD84lw8f/YEP6vTjledfYVDbMKzndG4icjFzuVzk5OSQnp5e3qWIVBhFRUXk5uaWdxkXlAISERERKRtGIxkZGaxbt46QkL+aEEVEzkVaWhoORymGS+wtd/mXs/sTFBNHTGkBuzZtZEuum6Sgf7jV9BSSuXMSL/x3HlGVr2DINQYmTVoHmDCZG9Kwz038Z1ALEsqkwHgSq4Rgn7+X7JwCHA4X2I+tz0XB9m1sPpBFdnQUMaFBxy0Y7nG6cDtdxz3cdxfnk52TQ67zTOIHD0UFOezYuh2zxR9/P/sp2nhxOwvJ3L6DjFIDAeFJVIo51ZCN0+Fk84ZNOB2lRAb6YzKdbewTRVRiJCHhmygoKKC42AFBx8YSbor27mL77nT2hdUhOjqcI5OY+QcSGh1NZP5S9m3eyo58N3EBZ/AYwuJHUJ2e3PxiT254roRNa39hxH+G8v7UcTz+TANa/jaU05jQTUQqILPZjMPlZM6ChezPyirvckQqDLfTyY5du/ALjijvUi4YBSQiIiJSJiJjYpk8dhSjxo4r71JEKrRWXXtgtdnKuwyRY/gTFJJIper7mbttAqO/7UDNa+sRHmbDAni9bkqKiygu8uAbHoQd8BYVkjl/Nr/aA+h45+M8dldVnn7aivW8DAeIpFLNBMKCFjPpxwlcWSeBqFbJ+PuaMeKiNGcjE3+azro/cqjSO4GIiMOrj5jMmE0mXOl72LEjjT3FDQizmXAV5LBt5ji+GTOOGXs8tD3lMV24PSW4XC4wW8DjxlGYzuY185m7cD8RsbW5rE3dk3p53cUc+ONnnh0wmE93BNLmujf59o3rifrHjMSBw+HAa7eAwQDOQnL2LuXnKasodgdzTcemBAacKpA5HaHEpiQQFbmfqTOmMLtxTar0qEuwvwUjbhz5O5gzfSbzF6WR0LgrCfFhx/QNJjQygYTKu5m4bgI/jmtJ5V61CAvxxQx4PC5KioooLQXfsEAO/Wbz4nIUkpOVjcc3nBA/GxYLmM0+1KjZktvv6s/kSR+xd+s+Dp7lGYnIxS8kIpo6LduyfcM68su7GJGKxALx9aKpVPXSeQVBAYmIiIiUiU59BtCpz4DyLkNERC44OxHxtWnWoTmjP5zHqGdvJWfXfxh6fW0iMVBamsfmtcvZutZO6xevpxXgdrvJzM7EWFzEsgk/8H3NViQa44iPP7pXg8FOcGQYISF+5zyNUt0rBtJl/Gq2TnuPp571cOCBfrSuFoadg2wc+zlvj1vGLlNHHujchjpV/A51Co2hUkIssX5zWTj3O76vHURp3SDy5vzExx//wNRN+QTYAk95PK8rm/27F/H7olAKwyMwFGexZ95YPnvnQ37Iq0HnfnfSq+7J63G48jJZ+/0rfLjeBWSxaNxjvNrvel7r+PfnZyxewaK5s7BVTsFsNGLYvZhx/32UVxfm4XPZcwxsG0mI39lfvyrtutJp+mJWjBzDu694KSy6hR4t4ggkl7QZY/lgxBR+L2nC9W270qph8DE9/YlNrUejNg0Z/+Ucvhh+N5m7H+XmvtUJ90JxcRYbV6xkz74I2j3el8YAlHJw9zw+f+kddicPpm/zBsTEALgoKVjL1J+nssEaSJW29ajE6a1pIiIVj81up3bjZtRu/FcrVYmInB4FJCIiIiIiInJObEmN6HbTS2QeeIxXJi9j0uuDGPPiobU2jEYTNnsytVsPo/Ph9ma7P5XbXkEL6yJmzBzOLbN88fHxUlJScriFEZOpIf0ev4vbhvajbaT93B6DR3XhzqG/syavmFkrvuDBPh/gcrsBKxabncDgutzw3L1c170BUUc6pdD88s60WbWMTydP5LVZP/IiZnzt/oTW7M5Vve2UbJ7L/lMczpm1g4UjXqL3iJeOno/ZD//gFFpcdhVD7+pyzHGOMhhN+ARFEuJrJMdhwC8wisjTGPjhWjWOe3sdO4LTF9+AYMJjO/PAUwOpGxmI5fSv1snCWtB38LX8kbGf72ZO5qXbxvKsywWYMfv4ERBUld5Db+O2WzpS6YSu/lXbc83Nz5KbNZz3flvF989dy4inDq1UYzSasfvVoHnP++ly9Cpgdhlg+1pGfzeEzwpLcXgPfW4w2rAHhpJcrRdD7uxLPCIiIiLnRgGJiIiIiIiInLOwGk247fURNO7wHZ9/M52Zm7cA4OcXTvO213HlTdfQ8HBbr8kP3+gOdOtQg7nTDxAf35K6NZysXr36cAMvjryNfPv8LXy/2Yf9IwYQ4nMoIrGFplKpkpVIPyPGM0hNIi9/nPejG/PTyJ/4euZC9uTkAimktOrAtTf0p1fzlJOmsgpu0pM7Hi4g1PY1E+fvY683htqtr2DwsGupUbSA795KwxQRhO2E5T0MRh/8AoIJDbEfvukOIiimI91vGcy9Q+qeMhwBMAdFUn/wcJ6et5sPt/rSbtC7PHwa69QbfUKJiQ7EeuSC1KVOr1sY/p+O1A6xnRSO+AbHEJ+YTHSwDxbjP+8fILTlTfznpZo0Gz2OrybNY8P+DCCO2Lpt6XV9X/p2qE+l4FP3jWp0Gfe+lUCzCaMYMXoW87dvAyAoKI4WHQZx9Q3dqXOktQ/hSS247cXX8f98BNOm/sF6L4AvPv5NaD6gJ7cO7ktLpSMiIiJSBhSQiIiIiIiISJmwhcXT6vqHaHX9Q3/TyosjJ42FH93Ao9P2Ue2a95g68lrijxkj4nE52PLxMOrc8zGOUe/zxfB+DKtqwmSA1k/NYvVTZ1dfVL0u3P56F24/7R4hpDS5k0dH3smjJ21L5r9trjtlL0t4XS6//Tnee6YLMWc09sVMQHRzho1fy7Az6EWDR5n06zDq+Fk5nbyjwR2fM/WOMznAIaFVmzPgqeYMOIvr7x9dmY63PUnH257858Y+gYQ37su9jfty75kfSkREROS0nea7IiIiIiIiIiJlwUVR/nYWzvgDW4CdLtd2I8LtOa6Fx+sgtGE0dQwGDFbfk0ZoiIiIiIiUBY0gERERERERkQvKaDTha/elIDeLUe8+RpuYIbROSATA43GzdfN0Prj/GZZ5LQR26E/nZMMZTaclIiIiInI6FJCIiIiIiIjIBWQhKKwWA+/ozxt3jyZ39v/o1/gDXMe0MJjN+FgDCQ1rxYsf3EqqkXNbpF1ERERE5BQ0xZaIiIiIiIhcWPYIkvu9y47ZX/Lfwa1oHRxEUNDhP6GhRHXuwl1vjuP3A5O4LRkMF0s6YjRi8rETEOCP3cfEeZ8ZzOiDf1AIYf4+GmEjIiIichY0gkREREREREQuPIuNgPq9uf+T3tz/SXkXU0YCqtP53v/R+UKtLJ5yOz/vP/0l50VERETkeBpBIiIiIiIiIiIiIiIilxyNIBEREREREalg3G43LpfrnxuKyGnzej3lXYKIiIiUMQUkIiIiIiIiFYTN7kdxaTFdunRWQCJSxmx2O/c8/ypmix6liIiIVBT6VhcREREREakgbH7+DP/fSPCWdyUiFZDBi8FgwmAwlHclIiIiUkYUkIiIiIiIiFQgRqOpvEsQEREREbkoaJF2ERERERERERERERG55CggERERERERERERERGRS44CEhERERERERERERERueQoIBERERERERERERERkUuOAhIREREREREREREREbnkKCAREREREREREREREZFLjrm8CxAREREREZGys3/PLnKyMnG7XeVdikiF4uPrS1RcEn4BAeVdioiIiJQRBSQiIiIiIiIVREFeLp+//ByOwjz8/f3LuxyRCmXXzjR63XInrbp0w2L1Le9yREREpAwoIBEREREREakgnI5S3E4H9999F02bNSvvckQqlMceexxXSQlulweLtbyrERERkbKggERERERERKSC8Hq9GI1mIiOjSExIKO9yRCoUf39/MBjKuwwREREpQ1qkXURERERERERERERELjkaQXIWzBYzWRn7mPyfR7FrXl+RI4qLCqlfqxY+3buUdykilwxfX1+KcrN5T99JInIeOV1OAmw2brnxxvIuRUREREREpMwoIDkLVSpX5qUXXiAnJ7u8SxH51wkMDCQ2Nra8yxC5ZKSkJPPsM8PJysws71JEpIKzWq1Ex8SUdxkiIiIiIiJlRgHJWbDZbFSpUrm8yxAREcHX15fUlBRSU1LKuxQRERERERERkYuK1iARERERERERuajt5fcf3+L+LkP5bn0+Je7yrkdERETk4qARJCIiIiIiIiIXta388uL7fLc8goh8Fx5vedcjIiIicnHQCBIRERERERGRi1oRB7fuIc/jQdmIiIiIyOlTQCIiIiIiIiIiIiIiIpccTbElIiIiIiIicgq753/LV6Pm42pwDf2vbYz/+l/5ddREZm7OICskhTrd+tGvR2tqB57QsTiL9DWz+X7CNH5duQsAP78ImrbuRs/rOlItNOzkg7lKyN+6kJ/Gj2f0nC0AmM0+1KnblT53X0H9qOijbb0eWPYRVz4zBY/XCxxkfYGTUu9GvnqgP/OCLZgMR5u3G/oRN7eLJ9RWttdHRERE5GKngERERERERETkFArSN7FszlwcPomETlrK6q++Ydb8LezOLaLEJ4gFSzaxf9dQ7r39CmoFHe6UuYmVP33CG59MZva2naQdKATAYrExf/FiZiyfR+9bhnNzq9CjByrOJGPmJzz38vdM37qNTXtyATAaTSxYuJJZyyZx+dCPeLLbMSHJgVVMnjwJ93ELjuSwccE0Np5wHn69ChjkKuurIyIiInLxU0AiIiIiIiIi8pf2sXTCF2yeWow3MIUWD79Ch2qBHJg3kTHf/MLEiQnUaNiAWp3igUw2L5vM/17/khk5kdTv8wxPd0km2FtKftpKpn39HWPH/kiuszK1qt9L8zCAIrL2zOHjp99n7B8lJHd/kI8G1CLC68FZtJ3Fn33C21Onkpb9Jk0bvEyXaMBggIZ3MmZsV7xeL7CKL4a8wtT8BPq++BQ9U/3wOWZC7YSG8YRo9IiIiIjISRSQiIiIiIiIiPylXPZtPoC9XQ+G3H0//To0IynMh6JEM1nb1vDqqp1s2riL3E7xWHdtZP608UzOi6LhwP/j2bt6US0lGBtuSvPaUSsmFl59ml+XT2baquto3iEMV95B1v3yNV9sdhJ25SO8/vgN1K8dgR0vbmcOTROrwtMDeW/JaEYteIAuvaMAA0TV5+qr6x+u0Z85txowE0rN9j3p1SgEu+72y1Rubi55ubmsmz6VXTu2YbFYymzfe9N2kL1rJx988AERERFltl85d+vXr8fl0vArEZGKTP9lEhEREREREfkbEQ17cN0tj3Bz12bEBFgBsCYkU7VKJaKXFlNSUoqDYrK3ruf3eStwxnekbbcrqZ8SfHgPJnwCY6nTuj1XLa3G2K92sWT2arI6tMaYuYPFk2aT6RdO16uvp2XtPx+QGzBZQkhq2p5berXgnfkLmT1hIft79yISwynrlPNn0qRJrFmzmh0701i7bDEGQ9n9GzidTjxOBzu3b8NkMpXZfuXc5ebm4na7y7uMi96OTX+QmZNDQEhIeZciIuXI8y8NnBWQiIiIiIiIiPyN6GqNadTwaDgCQEhV2l/3KO81LyWiRg0CySMtYwfbN5gJb5lMasrJDwJ9AgNJqFqT2NJ5ZGUcpIgSjAVbWbe0BFtwZerUjjypj9FsJq5+E5K988nYlU4+Bk5uJedbeno6ubm5FBbkn7djFBcXn7d9y7kxm80kJSVhtVr/ubEcp0mTJhQWFVFYVIRBAeAlq6iwiFWrVlG/QX1sNs35eKkyeKH6M8+UdxknUUAiIiIiIiIi8jdsPj74nPhg1BpKUv12JP05yxW7cJQWUVxgxWIJ5JTPf8xmrHY/Qo4MPnDjdhVSkG3EHBpCoN/JXbwGA4aAQMKAjLI6ITljPXr0YMaMGcRWrkZc5SqYzWU3xdaBXWlkpafRpGFDwsPDy2y/UnZiYmKoWbMmZrMeo52pqlWrEhUVhdPpLO9SpByNGTOGndu2cs9dd1K1alWMRuM/d5IK6d8YNOs3u4iIiIiIiMg5s2H3CyYowkLeXzUpLaU4O5O9Vgt1IkIJwUK+NYzwhL++NTd4PHgO7GOH0YglNgqtUFE+atSoQVx8AknRCTTr0Bmrb9m9Ab1u6SK2/76AQYMGUa1atTLbr5SdwMBA7HZ7mU6tdqkwm82EhYWVdxlSjvLz8/n5559Zv349S5YsoUGDBgQFBZV3WSJHKCAREREREREROWdBBIbGEZNQyOK9m1i9ejddo+OP2e4ke99WFs1YQr5vEHHJ8fjhi8OWRKUqLvLXbWHO/C0MSqx8TB8PjtJ9zB73KwcNJurXSCXwQp+WHGE0GvEPCCQkPApfu73M9hsQHILd7kdERAQxMTFltl8RkX+DKVOmsGLFCoqLixk5ciTdu3cnICBAo0jkX0M/iSIiIiIiIiLnzEJkpao0aFYN4+bZ/PjpR4ydv5tcAEop2LuamaO/ZeTcAiLCm9OhXTxgwi80liaXtyU0ez1TP3qRT37eShZewIOreBcrvvsfL03cgcXSkn5XpvzFsSOISrSAcSdTvp/Lqj1OXJ4Ldd4iIiKnlp+fz2effUZu7qFvww0bNjB58mTy8v5yrKXIBacRJCIiIiIiIiJlwC+uFu26XUvnxS8watoI/pu5jam1I/AzOCnOTGPN/NXsC/h/9u4zsM67vvv/+2jvbUmWZQ3Le+8RO3HsxM4OmSSBJBAgtKX3XcootAVKoe2/hZbRcgcII1AgBMheTpzhON57b8tDtrX33jr/B3YcGzskwY7l5Lxfz3St3/ccH1nnuj6/MZWPfeZ+FhYdX3AkMjGT8Vfdz92Lt/Ct5Y/yrX9pZM3Lg0gMBOntrKb49WVsbBrC7V/5CneMfavxI0Vcf+dsvrX3ZdY8/B98s/wlijLCiQg7Ph3QpDv+kZsnZ5IUfYHeCEmSgMWLF7Nx40a6uroA6O3t5Te/+Q3XXHMNiYmJhIeH93OFkgGJJEmSJEnnR1QaBTNv4tNf6CLi4UUsW/MqP1tSBcQRlzKUUbOv5TM33MFH7phE1olTAuFxpA6dy8f//p9pyXyCZcvW8tD/HAPCiYgaQtGsy/iLuz7Mp//PpeS9ZcNJjLvry3yhNIlXF2/k1T/8mBd7e0/u/fCYv2ThWAMSSdKF09LSwk9/+tMzRovs2rWLF198kdzcXFJTU/upOulNBiSSJEmSJJ3FgPELuedzKbRkzWJExjs7JyotnynXfZLMwmks2H6Aw7W1QCwxSXkUTRrN5NHDGJhw+jnhsSkMufRuvpw9hisW7md3ZQUQTkTkYAZPHMn0SePJf7v1bPPm8jefT2H2nN1sPVpK9ykByajpmSQajkiSLqCXXnqJ9evX093dfdr23t5eHn74YRYuXEhSUpKjSNTvDEgkSZIkSTqL9BGX8KERl7zr86IS0iiafjlF0y9/x+eERcUwcMwsbhgzixvedYvHJRdMYH7BBOb/medLknQ+tLS08OCDD9LS0nLW/Tt27OCll14iLy/PUSTqdy7SLkmSJEmSJEk6L1555RXWrVt3xuiRN/T29vLb3/6Ww4cP03vKiEepPxiQSJIkSZIkSZLOWUtLCz/60Y/ecvTIG7Zv384rr7xCY2PjBapMOjsDEkmSJEmSJEnSOVuyZAmrV6+mp6fnTx7X29vLI4884igS9TsDEkmSJEmSJEnSOWltbeWBBx6gra3tHR2/bds2lixZ4igS9SsXaZckSZIkSZIknZOWlhYGDRrE7bffTjAYBODo0aNs2LCBrq4uYmNjmT9/PgkJCSfPCQaDb7lWiXQhGJBIkiRJkiRJks5JXFwcX/nKV06GIwCLFi1i165ddHV1kZyczOc//3ny8vJO7o+IiCAlJaU/ypUAAxJJkiRJ+sCIiIikp7ebJ598gi1bNvd3OdIHyp49u5k+bDSBsEB/lyJJF6XExEQSExNP25aVlUVY2PFVHiIiIsjPz6eoqKg/ypPOyoBEkiRJkj4gYuPjmHTp5Rws3k9xzZb+Lkf6QEkfMpLBRcOIiIzq71IkSdJ5YkAiSZIkSR8QkVExXP/R+/q7DEmSJOl9Iay/C5AkSZIkSZIkSbrQDEgkSZIkSZIkSVLIMSCRJEmSJEmSJEkhx4BEkiRJkiRJkiSFHAMSSZIkSZIkSZIUcgxIJEmSJEmSJElSyDEgkSRJkiRJkiRJIceARJIkSZIkSZIkhRwDEkmSJEmSJEmSFHIMSCRJkiRJkiRJUsgxIJEkSZIkSZIkSSHHgESSJEmSJEmSJIUcAxJJkiRJkiRJkhRyDEgkSZIkSZIkSVLIMSCRJEmSJEmSJEkhx4BEkiRJkiRJkiSFHAMSSZIkSZIkSZIUcgxIJEmSJEmSJElSyDEgkSRJkiRJkiRJISeivwuQJEmSpFATCITR1dFOVenR/i5FUj9rrK2mt6eHsDD7sEqSdKEZkEiSJEnSBRQIBEhNTaGi5BD/cNeH+rscSReByy+/nISEhP4uQ5KkkGNAIkmSJEkXUEREBDNmzODYsWP9XYokSZIU0hy/KUmSJEmSJEmSQo4BiSRJkiRJkiRJCjkGJJIkSZIkSZIkKeQYkEiSJEmSJEmSpJBjQCJJkiRJkiRJkkKOAYkkSZIkSZIkSQo5BiSSJEmSJEmSJCnkGJBIkiRJkiRJkqSQY0AiSZIkSZIkSZJCjgGJJEmSJEmSJEkKOQYkkiRJkiRJkiQp5BiQSJIkSZIkSZKkkGNAIkmSJEmSJEmSQo4BiSRJkiRJkiRJCjkGJJIkSZIkSZIkKeQYkEiSJEmSJEmSpJBjQCJJkiRJkiRJkkKOAYkkSZIkSZIkSQo5BiSSJEmSJEmSJCnkGJBIkiRJkiRJkqSQY0AiSZIkSZIkSZJCjgGJJEmSJEmSJEkKOQYkkiRJkiRJkiQp5BiQSJIkSZIkSZKkkGNAIkmSJEmSJEmSQo4BiSRJkiRJkiRJCjkGJJIkSZIkSZIkKeQYkEiSJEmSJEmSpJAT0d8FvB+0tLSwes0aXnvttf4uRbro5A4ezBXz5jFixIj+LkWSJEmSJEmS3jEDknegvLycpctXsKe0gvxhI/u7HOmi0dLQwKE168gcMMCARJIkSZIkSdL7igHJO9DW1kZbRwcFI8cy44qF/V2OdNGoLD3GupcW0dzc3N+lSJIkSZIkSdK7YkDyDoWHRxCdkEhK+oD+LkW6aLS1tRIVHd3fZUiSJEmSJEnSu+Yi7ZIkSZIkSZIkKeQYkEiSJEmSJEmSpJBjQCJJkiRJkiRJkkKOAYkkSZIkSZIkSQo5BiSSJEmSJEmSJCnkGJBIkiRJkiRJkqSQY0AiSZIkSZIkSZJCjgGJJEmSJEmSJEkKORH9XYD0wdBJV3M5tYf2c/RIO2HpYxgzq4jY/i5LkiRJkiRJknRWBiTSeRDsqubY+ud46eHn2FeXyuB5n6Jo1hBiCfR3aZIkSZIkSZKks3CKLel86Gqiau821r2+mT2ldbQG+7sgSZIkSZIkSdKfYkAiSZIkSZIkSZJCjlNs6aRgRz11R3ZzeMc+KqpbaA1AWFw8qUVjGTFyLLmpf7SiRncLTWX7OLRjFxWlDTQCYdHRxA8soGDYOAoKs89YgyPY20VX7UEObttC2cEaaoFAWBiR2TkUFE1m6Kg8Es7na2ot59jerRzbVUJlazddAQhPSSUzfwxDRw1nQFLcWX4J2mkq3sahLTs5WttGWwDCErLIHjqeUSPySU+OOX7t5qMUb17L5j0VBDoqKdm8//jIkfYqjm56lmce3EVs4PgUWwkDChg++zqGZjrlliRJkiRJkiRdDAxIBEBn5Q52rniZ1cuWs3/DdkormmgGwhITSRs1lwW33891184gI+b4A/7uhhIOrVvM8iXL2Lt+E0cO19IAhMXEEJ8/nPGzb2LBRz/GzII3447ejgaqNj/Pay8vZ9f6NZTsqqCaIISHEzW4gJHj53PlX3yJhSOTzstraj/wOiuXvMbmVcs5uHE/pa2ddAERGQPIGTaFWR/+K66eO5mByVEnzwl2HKN49VLWPfcMm1dt5GB1C21BCEsexOAx05k1/3rmzr+UwvxkaDjI9hd/wUO/33B6w21llKx4hJIVb27KmriQW4dex9DM8/LSJEmSJEmSJEnnyIBEdFbuZOPTD/KHPyxmz6HG0/b1NTdTs249O/NmMnHeDDJiAFqp372Ul370fZ7bVnv68R0dNO/dxrbuGLKn3nJKQNJJe/UWVvzw2/xqVcXpBfT20nX4ALuraomd/unzFJBUsufxB3nkdysobew8bU9PTTVHal4kkDuPaePHnRKQtFOz5UVe+PFPWLqxhLZT1hHpayylZNWT1B06QHt3ODfdcQ3Z56FKSZIkSZIkSVL/MCAJefWUrniCxX94gT2HmgmLz2PQqAkMKxpAQhQEu5ppLGskbsApk2V1V1F5cAf7ttcRFp1B5vDJjJ+US0wQ6Omms76aJuKJPiVgCPa20lK+hU2rKyAijoTBU5k5ZyhxQLAvSG9zPbW1Zedveq22nWxZWUxzYxfhKWOYOGcsWWnxRAQh2N5OQ2UxPamJp/8CNOxh7YsvsWn3MdqCWeSPm8yw0QOJJnskSgAAIABJREFUi+qk5ehW9m7fQ2n5NtauXk7R9EsYWDCIolk3cGPUeILddVTu3crOLYdojx5A1vDJjJs46Ph7AiTmjqIwzem1JEmSJEmSJOliYUAS6hr3sWPDZg4cbiYsPpchl97OdXfdyazJg0mJCxDsqKFq3x4quxJJjzr+gD/Y2Ul7SxOtBCE8mvicIkZesYCRhSPJGZBIsKKEw6XH6EiKf7Od3h56mhpoCkIgEE5ESi5DLruSUQWjyS/IJLqmksMHNlAacX4ikr7Gepq6u+kJBAlEp5A5birTp02naGgBaX2d1BzawuHWbNISI0+e07R7Ndt37aWitZf04fNY8In/y4KFRSTHtNGw+yme/cGPeW7xfmr3H6ZkdzEtE6cw4YahTLgBgi27WPvr73NsyyHa4wdRdPnHuO+z80nFUESSJEmSJEmSLkYGJCGu6+hBSirLqQlCfMEs5t58C/Pm5BFzYn8gJoOs8XPIOvWkyGTScoaQl59A6eFSDi3/Fb8q28i4SbMZMXII6Um55I0bR2HuKVNlhcUSmz6MYaNSOLC7gcYdj/Krb21mzITLGT9lGKmRAxk8YRrTitLOy+sKiyukaHQO645V01a5kpcfKmbv6jlMmD6enJQcBg4ZRuG4PNIS3pxeq7x4Pw2Vx6cMi0nroqFsDaufXnNifzUtPQnEBII0lldRXVpFA0ESDEAkSZIkSZIk6X3JgCTEtbc00dneCkBidhYDMjNOhiNvJRA9kLwZN3Dtfc2EvbSeg8UHKN++juXb17GcOBKzRjPh+uuZc811zJx0PGwJRCSSMmwBN/7lETqeXkPJ/j0cKt7NxuLdbHw8nIiYoYy//ipmXv9hFlw6jNi3qeFtJU/m8rvvoT4umx1btrHvQDkHlz7OwaWPA1kUzJjNlOtv5Yorp5OXmUQELbQ2tdHZ0QdA6ZoneGzNE+dahSRJkiRJkiTpImVAEuIio2OJiIwGoL2piebmFrpIIeptzovKHM3U279I0aQNrF2xmq27S2ipPUr5gYOUVm5g1cNHKCvvJPMbn2X0ibU3whMyKbz6c3x2/FY2LFvKmk2HaWkqo7p4HweP7mXTkyXs2VPPwBH/ybTMcx+ZkTDxTu4unMG+dUtZvnoXlZVl1B3dT8nBcg6vfYKjh8qIiP86N141ifTTUqEEskZNoHBoDvERZ6tjMKNGDyI+EIDgWXZLkiRJkiRJki56BiQhLi5tAClJKUQFjtB8YAsblr1MbvbVjBicTVxUALpbaa6qoLEnmviBg0iNChDsaaKpvJSa+kgS8+cw/y+u5IrOJqoOrWH9U4/w7COLKWupovHAMnYf+Syj0yDY10Fn3RGOHuomYcg4pt09g9l3dVJTvpXdi//AIz/8LYcbOug59Cwb9v0n0zLP8YW1H+XI7nqCGTlkX34v9y0Ip63xMEfXv8AzP/0l67aV0Fa1hv37S6mbNYn0mGgSU5KJiY0EYkkbfRlzP3IbU4dnkhh3PC7q7mqhqeowTZ0JJGYVkPpW4UhnOx211TQ3dpCafM5jYSRJkiRJkiRJ7wEDkhAXTB/CkPzB5CTt4HDdNtY/0UR7zTFmzRxHWhzQVkPFnv20DJjC1DtuJzUK6Cjj8PLfsXhxPcmzp5I7KInjS6t3EpGQQVZCgLKWKCIiEomJOTECo6eJ+l3P8sT3dhI7bw6FRWkcX6Gkj+6EgQxOgsMNAQikEB937q+rr2Edr/3weaqzRzFoQiGZcREnPuxxZCTGER8RoK0rnsiYKMLDAZLIGTeGnNwsdh0tYf/rj/J0ew3V08aQlX485Ghvq6J8x0qakmcz/eb7yUg4ZXRJRCSRUdFEBaCvpYxj657jld93UTTo+KuMSRnI4DEzyEk599cmSZIkSZIkSTp3BiQhLpAwgtFXLGBa8R7qVxykse4w2576f2x76tSjshh/21CmnrKls7mCvSufonTF78963YiYbAbkTadoYBBOLGTe29XMkW3Pc2Db82evJSyG1LwrGJN/Xl4aDWWbWbX0edoeOfv+uAETGZafTXLCiZ8LpzJ16hSOFNeyr7qYPYuK2bPozPOGXj+K6X9ce0waqdl5DEyN4HBtMxX7X+YP33r55P6siQu59Z+nc2OKi7pLkiRJkiRJ0sXAgERkTL6OhXd2Eoh8mo27jlBZWUNLRwcAUdGJpGQNY3B+DsmRJx7uRySQmF1E0ch8+iqraaxvoy0IEEVEZBLJGWnkjp/F5Tddw8jkE+eERROdWsjQcUV0VVVTV9VEaxAgjLCwFBJTk8gcOpJZN3+UKennHiIEYnIYNGoEhV09lJfW0tTVSw8ACcTFJ5IyaBBj5t/BnAkFpEcfby+QOIZLbr8b+sJZvGQdh45U0NDaSRcAsUQnZZCSncmQonzSzpg5K52M4dOZdP1USl/bT3VNHe1tLlAiSZIkSZIkSRcrAxIBSQye93HuHDWLSSuWsXbdNsrrGgBITM1j6LQFTLx0CgUnRloEYnIZctlH+UjKQPZu3Ma+PeXU9AWAOGLjiygcP4rx8+cwqjD1ZAuBiGRSR9/EHf+YyL7NG9m7oYSyYACIIDyiiPyRhYy5agFTR53r4iMn2kudxYLPBCnaupq9q3ZzsLGDzmAAyGHAwHxGXD6HKdOGk5YUc/qJg2Yz6/48Bk55ja1L13HwWAONwQCQTnLhOIZOn8LE8UXkZZ0Z4iQNm87cT32N1BEvs3nbHmor+07uSxkykezE8/LSJEmSJEmSJEnngQGJTorLHsGk20Yw6ba3PzY6dRAFc++hYC5c9Q6vHxGbTM70W8iZfguX/8U5lfqOJBddwqSiS5h0y7s7L5A4mMK591I499532WIsyTlTufSOqVx6x7s8VZIkSZIkSZJ0QRmQ6CLVR7CvntI1O6kMvpupqhLIHj2arORYIsLes+IkSZIkSZIkSe9zBiS6SAXp61nPY/d8nBd5NwHJGG5/6CFum5VPcpQLokuSJEmSJEmSzs4+9pIkSZIkSZIkKeQ4gkQXr0AquVOnMaqv7+2PPamI7KQYwgOOHpEkSZIkSZIkvTUDEl2kwgmPnMFtv3+Wd7BmvCRJkiRJkiRJ74oBiSRJkqQPhLq6OioqKujo6CAYfDfr2En9IxAIEBkZSVZWFpmZmf1djiRJUsgxIJEkSZL0vtfd3c3DDz/MD37wAw4cOEDfu5qmVeofgUCA7OxsPv3pT/PVr36ViAhv0SVJki4kF2mXJEmS9L5XVlbGM888w/79+w1H9L4RDAYpLy/nscceo76+vr/LkSRJCjl2T5EkSZL0vtfU1ERnZ+fJn1NTU4mPjycszD5huvgEg0Ha29upqak5+XNXV1c/VyVJkhR6DEgkSZIkfeDce++9fOhDHyIuLq6/S5HO0NXVxcqVK/mHf/iH/i5FkiQppBmQSJIkSfrAyc/PZ9q0aSQkJPR3KdIZOjo6qKqq6u8yJEmSQp7jzSVJkiRJkiRJUsgxIJEkSZIkSZIkSSHHgESSJEmSJEmSJIUcAxJJkiRJkiRJkhRyDEgkSZIkSZIkSVLIMSCRJEmSJEmSJEkhx4BEkiRJkiRJkiSFHAMSSZIkSZIkSZIUcgxIJEmSJEmSJElSyDEgkSRJkiRJkiRJIceARJIkSZIkSZIkhRwDEkmSJEmSJEmSFHIMSCRJkiRJkiRJUsgxIJEkSZIkSZIkSSHHgESSJEmSJEmSJIUcAxJJkiRJkiRJkhRyDEgkSZIkSZIkSVLIMSCRJEmSJEmSJEkhx4BEkiRJkiRJkiSFHAMSSZIkSZIkSZIUcgxIJEmSJEmSJElSyIno7wIkSZIkSfqg6uvrY8WKFXzlK1+hqanp5Lbm5uaTxxw8eJAFCxYQGRkJQFhYGMOHD+fXv/41UVFR/VK3JElSKDAgkSRJkiTpPRIIBMjIyCAnJ4cVK1ac9ZiOjg5279598ueUlBTuuOOOk4GJJEmS3htOsSVJkiRJ0nskEAhQWFjIzTffTFJS0tseHx4eTl5eHvfeey+BQOACVChJkhS6DEgkSZIkSXoPxcTEMGHCBK666qq3PTYpKYk777yT7OzsC1CZJElSaDMgkSRJkiTpPRQIBCgoKOCWW275k6NIwsPDyc/P55577iEszNt1SZKk95rfuCRJkiRJeo/FxMQwceJEFi5c+JbHJCcnc/vtt5OTk3MBK5MkSQpdBiSSJEmSJL3HAoEAeXl53HbbbSQmJp6x/43RI3fffbejRyRJki4Qv3VJkiRJknQBxMbGvuUokpSUFG699VZyc3P7oTJJkqTQZEAiSZIkSdIFEAgEGDx4MLfffvtpo0jCw8MpKCjgox/9qKNHJEmSLiC/eUmSJEmSdIHExsYyadIkFixYcHJbamoqN998M3l5ef1YmSRJUugxIJEkSZIk6QIJBALk5uby4Q9/mMTERMLDwyksLOSuu+5y9IgkSdIF5rcvSZIkSZIuoNjYWCZPnsyVV15JWloaN954IwUFBf1dliRJUsiJ6O8CJEmSJCnU9PX1ceTIEdra2vq7FPWTtrY2LrnkEo4dO8aECRPYs2dPf5ekfhIREUFaWhoZGRn9XYokSSHHgESSJEmSLqDe3l7279/P1/7pn0gdkNnf5aifBIPQ3NxEICqapxe94PRaIayzo4PhRUP49P33M2DAgP4uR5KkkGJAIkmSJEkXUF9fH0ePHWPX/gPcfd2t/V2O+tn4YJBAINDfZagfFe/azp79xdTV1RmQSJJ0gRmQSJIkSdIF1tPdTUp6OpMvndffpUjqZ4GwMIpX1dPT09PfpUiSFHIcwytJkiRJkiRJkkKOAYkkSZIkSZIkSQo5BiSSJEmSJEmSJCnkGJBIkiRJkiRJkqSQY0AiSZIkSZIkSZJCTkR/FxBKent7qS472t9lSCfFJyUTn5BEWHh4f5ciSZIkSZIkSReUAckF0t3Vwc4N69jw2iskJSX1dzkSXV1dJKZnMPuaG8jIGtjf5Uh6h7q6uti3bx/rN2ygt7e3v8uR9AEWFxfHqFGjmDRxYn+XIkmSJEnvCQOSC6Srs5M9G9cT1lLP7Dkz+rsciSNHjrBq/TrGzbzEgER6H6mrq+O1pa/zwtLXyckf0t/lSPqA6u3poaWhluLiAwYkkiRJkj6wDEgukGAwCASZNm0an7jvvv4uR2LTpk3s2lcMwf6uRNK70draSnVdHVkFRcy58Zb+LkfSB1RXewebVyzlSElJf5ciSZIkSe8ZAxJJkt5nwiMiSEpNY2Bufn+XIukDqqO9leTUNGrKj/R3KZIkSZL0njEgUf/r66a9fCNP/mEtTXnzuPPW8aT0d02SJEmSJEmSpA+0sP4uQKKvk7YjL/PfX/4KX/3Zaur7ux5JkiRJkiRJ0geeI0j09jqbqC7Zw+5teygpb6Q+GCQ8Lo60wUWMHjmOYfkZxPV3jZIkSZL0TrRXU3FwN6V7S6hq6aQLCEtMIn3oREYOKSAtPuq0w7saK6jYv49Dh0ppaG896yWTBo1i2OTZ5Ka2Un9wJ3tWbKc2IYvcsdMYNaCVso2bKCltoDEQSUziEIZMnsyw/PgzrhPs66anvoTDO3dQfriGeiAQCCMyK5vB4y5l7MDE045v3f08SzaU0xeEjEm3MH10KpHhgeM7yzfw8vKdtHV0E50/hznTikiIi6Tj0ArWbDpAY2sCQy69nNzYJqr3b6LkWD1t3ZCQNIL8CePJzU0mJvJ8vOGSJEkXLwMS/UldVfvZvPwFnl70EquWrmHXoVqqgxCemEjmyIlctvAO7v7IHVw/OqO/S5UkSZKkP6nj6Ho2LV/KxuWvsW/9bo41tNEehLD0DHImf4hb7r2PS6cNJTHyeMjQVbWbzUue4fVFy9i+Yz/VjY1nvW7evPu4a/BsclMbqd62iKf/5UF2Zo1l0rUfZv6APax8fDE791dTRyzx6WOZdvOd3PCRmxlzSkjS19lM7Y6XWPbq62xfvZxD28uoDEIgLJyIgkJGX/phrrhkIbOvHMUbZzWs+zEP/tsGenr7GPWlGUwankxkeDgAwcOL+c13HqKypoWw677DmJGDSYiLpHnH4/z+v5/hUGk8s/+2ivyuEg6tWMSO/VU0twdJy5jK6Hkf5ZpPLGTM8Axi3tN/EUmSpP5lQKK31lnN7td+x3/9+/+w6GgCIyddwbVXphATCEBXFy01ZRzdtJZX82cbkEiSJEm6qHUcXc+K3/83jzy+ktKqttP29dXWcOzlJWydcDmjxw8jMRKCnRUcfO13PPvzR9hUkUjOyNnMLUwnqrOM4p1bOXSohvCUPApHT2LW3OnkJAdPu2ZvYxkHXv41Fe37OVLdd2JrO62161n9bCvBrHEUfWLC8QCiu5XmPa/y+AP/ylOvl512nWBfL90Hi9l2+NvsXrmPQP5/sGDY6SNJ/jyV7Fn8IzYca6Kzuf3k1rqaDax4tImenERS069gSLrzBUiSpA+ukAtIGhsbqaurIzk5mbS0tP4u56LWWb6VZa8uZnlxFOOvuZvP/d1nuHr6QJIAOjpoKNnD2n2ldKSkv3lSTzPVB7ezcn050UVTuGxmAaf0iaKjqYydry1jb2cOM669nKKEM9sNBntoKFnLyiV7qQgev8nIGrGQOZfkkhwWIHDWaluo2LSOnbuPUtrZQ3cQItLSyBszjan52SRGn/iotx1h3dIN7KsIUnDJbMYXZZP0x8PGO8rZsXYjOw4EGDx9MhPGDuTNMjtpPrqf4i272F/dQvOJ6cZSC0cwbuRohqTYv0qSJEm6+NRw4Nmf8sSJcCQ8cSgFY0eTl51AVAQEOxuoPdpJyik3B4G6XWxZs569BxtJnngd8z/xOa6ZO5jY9m28/Ivv8uj/vkR9TD6jrvwUH7pnOn98a9PXVkPtkRqak7MZMmcWwzL7aDy2i53r9tPa0Ezplp1UM57BBOhtqebgkp8cD0fCY4jJmsjYSUNIjwsS7KmjcvMSth7upufQczz24A1M+s7VZAQ5Z7W7KwlLHs6wS0YxODuevqotbN9+gNrGfWx6/jWmTRlLzuxCR5FIkqQPrJALSI4cOcJzzz1HeHg4s2fPZtSoUQYlb6GtuoKj5aXUJo/kpksXMm969vFwBCAmhpQRE7lqxMTTT+qq5dDKX/GNL75O0kf+jfEz84k/GWl001q1ncf/+bM81LSAb884MyAJ9nRxePkj/O6xn/GLB5ZRfKKj1dC5f8tnvvm3/N/ZeUSE/3FEUsGWp57kqV/8nKdf2c6u9i66ghA+eDATr/wLvvmF+7l8ZCZx4UBnDRv+8F3+8/GjjP/SD/iXv7yW8QNO/zXoOLKKR77/TX6+Oo9P/vs/MeJkQNJE6bZVvPyrX/Pkky+x+lDN8enGUpLJmXo1H7/vb/irWy5hoHcPkiRJ0kUlULeRVct2Ul3VTnjiUEZdfR8fuvMmJo9KJz46QLCllJKtO6hPziMhIggEoLWZxo42moERRQUMG51HahwQl8fIocMZkvoya0prqC4pp5YgCWfpyhWVPJDhV97DzR+/n9nDOji89Jf8eM/32NLURmfpUarbAwyO7aK1+Sg7lm8FwolKKGTiXf/AJ+6cQV5aHz2dR9j3aDf/9Y0llPV2c2zRM+z4xlVcHn/2rmPvRljycMZedz8333EDE4anECz+FT/95wdYtukIbcV7OFxaRVNPATER596WJEnSxSjkApKOjg5WrFjB66+/zpQpU7j++uuZPXs2I0eONCj5I1EJyaQkpxDfUUnxzm2s3zac2cOzSH6vAoBgD51HV/Kzrz/La2VjmHHD3cxICNJSvo5nXvtv/v6fBjD/sb9jXHokYad8P2898Az/+bmvsZjhTLr6Fm6LiyAMaG2tpnLjSlYduJmJRScCktTJXHv1VH6/Zgcb12+j5EOXMGpABm/2E+vg2Nat7DrYTOLsqUyeWMgbk4d11mznxYe+z3d+u5/A6NlcPiuB6ECArq4W6irqObB2I7uuNCCRJPWvnqZSju3bwYHSZqJTBpE7ahIFmf5xkhTaOvbuYF9jI80ESRh9HR+6+3pmjM3gjeXYAwmDKJg9iIJTT4qKISYimqgANNXUUl1eS9vANCK766isrqa6LUhEUgKJaUnEBwJwxoiOBNKHX8GVH/8Us0cnAdGkjZzLlR8pJb08guTBecR1BQlGt9FRs5U923sgPJGkvEu59q4Z5KUGgHAionMpuvFTTPv+Up6u7yMQ3ElZCTD63N+X+DE3cdu91zJ5WOrxhwOjZzK+8Cl27DhKW2c9bc1tdHQGQvDJgSRJChUh+zWntbWVZcuWsWHDBqZMmcKNN97I7NmzGT58OOnp6W9/gRAQnzeGWTPmMHHpL3ntsR/SUlvF3TfOZNbEYQwdnktyzPl92BLs7aS9+AmWpV7PX//9X3H/tQvIygxSsfUhmu74G15f9kt+sel+/mN+xmk9mA4/9wSvNzST/rG/59+/ehUTM6KJAGpr97HrtY20DUsnNuzNdgqmz2DUwMXs2LSBbQfLmDk6g5ODSDqPsm3LLo7WZTP3kpmMH/Hm2ip1O7axYesW6kffwOe+9k0+c8XxkSVtbTUc3L6J0sY4snz+JEnqZ11l21j1v1/nV4tKSJtwLTd97tsGJH+WHnq7m2irqqS2upH2wCAKJwx+D6eZaaOjror6ynJqGlMZNLaA5IQYwt+z9qTQ0txQQ3d3FwAZQwoYkJx0Mhx5K8H0QoYUFJGbuJvD21ex9NFUuo4UEtu6g5VL1nCgPpr0GaMYPm3kW0x3NYD0jIkMHf3GOPxokgbP4Mq/m8GVpx7W1U13Qy2NQFhkDJF5YyhIPfWAAIGwDFLzg1APwWADbacvofJnGzC0kPSEhFMeDKSQkBFHVGwAOs9PG5IkSRezkA1I3tDW1sby5cvZuHEjkydP5kMf+hBz5sxh2LBhBiXxQ5h+7Z18uqmVyGfXsvv1/+Jrr6Yxc97VXHndXMYMncDICcMoOF/rbgQiiB00k/u+8SO+ujDrjY1kT/wk3737B8z45nZeWlHMv85Ng4g3Hxe0tbTQF+wjo7ORuqpmGpMjSI0MJz19OJfeNvzMdobM4NrJw1m9ZSfL1u3m6hnDGXBi2Efnka1s2FlMY9ZUxo0ZQs4p6xF2d3TR2dVJbKCD3sYmqpvTiUqMIi4ug7EzFjL2/LwLkiTpIhDsa6Pl6ApWPPw0W/fV0DnwXv56Qi4xb7Ea2jm317GfbU89xoa1q9jTcCX3/NsnmTDUgEQ6X6Ji44gIO/4b1VZXT2tHJ73E/cnfsUB8DpkD80lNiqWstpi9L36fbU91ALFEJw1g0Nh5zFhwNePHDjyn2oJhYYTFxBEDBHt76G2ooqE9QGbsqQe10tF4/P+fQGAIGQPOvE5ba9spo1jaqCwppa+n593V0tlAU1M7nd1BIJbI6Egi35hyTJIk6QPooghIDhw4wKpVq4iKers+POdu9+7d1NXVnbG9ra2NFStWsGnTJiZNmsTNN9/MnDlzGDp06Hte08Usvmg2H/nbYcycu5THF73Esk3bKd37FF9/6QmShlzGR/7vJ/jkgksZVZByzm0FwqOJGf1RPnEyHHnTxGmzCA/bye5j5fT19cEptzIFM29ixrAyFv/8X/gGR7jxsuEMy85nxJAihuakEB35x7c9Q7j0pssYuXwjryxaxvaF0xk9sJBYOjm2ZQu7DnWRNXsy40fmnLLAPKQWjmPChJm8+sgyfvrdf6WsbAHTh+ZSlDOE4QU5ZCS9959fSZJ0gXS3Urd7Lc//8jkOx+VQcG7PP99e3R6WPvwEq0tq6BxxKd0+i5TOq8TswSTFxh4fab51GWtXF5KSOJvBA5KJCge6mqivrKIjOp2ktFTiI6C7fhv7tq+htLSLgWOmkDVoIH1drYRHppIyeCyj585m0oQRZMS/Xet/WiAihugBuQyMD2NHcyst+5eybNUtZF0yiOTYIH09DdTtXsqeEiAQICwli7QTHbli4xJPZhclBw/T1jeJGDqp2fw8Tz2+lJbWjndcR7CzkYrNr7J5Rwn1bX2ExeWQnp5MbMzZpg+TJEn6YLgoApLf/e53LF68mLCwsLc/+By1tbVRVVX1J/evXLmSTZs2MXHiRG699VYyMjJoa2sj+j2v7iIVn8mQOR/m7+Zcx19Xb2Pla4v4/dNLWP36y/zs6wdpOPY1vvaF28hPevtLvRcGXPFF/vWzfaQ8+iJbX/l/fPehappzZ3D1dTdy61WXMmvqBAZnxHNqTpI6ZjrTh+Sy6sk1rNt7lMtmFjKkez8r127jcNsorp81nbEFp9/pJI6Yzx33BQlG/pwnV6zlua8/wa/JpGDOtdxxw0KunD2FkUNySQzZD4okSZJ0kcoezejcNPbtL6OmYinPP1hHU9kxpo7PJyEaaDrCgQ17CU69mTkLZhOfAO37drKv5AAVwXiGJ+UzdPIccjLjiXvjNiFYTnlZBIFBg0mPP5fOUlHEJBQydEY2L79SRnv9Nhb/8IfE18ylMKOX3o4Sdv/uAbb09RGIiGbAvFsYe2IESVr+CJICr1EPhO1ZzrIl8QyMrWfTA/8fr+ysp/1tBpC0HtvG9pWRVKdGEWw4yPpFD7PxQCltQUgZN5ycrHRiDUckSdIHWL8FJFlZWZSWlhIMBikrK6OsrKy/Sjmr9vZ2Vq9ezb59+xg3bhw5BUNIffvTPuDiiRswiwUfnsXsmTfx5IPf4J9+8iIvvPgbRlx+FX83L/E9a7mttZVg8K2/mY+5+0v8YuG1LHnhSZa9sJl11RVsf+LfeOmFcdzzmX/h8/deQlF6DCcjuLQxzJ09jifW/I61W/ZSumAGA8peY/H6AzSNu4OpY/M5y6h1sqddwd+OGsN161/h5edfZe32ErYfXMT3/vkFnr3iU3zps3/BtZPT33Y+Y0m6aAR76Wuro+rYYerLG2kBCEBYYjIZ+aPJS4sn8Ec92Tsbyqg6WkFVfcOJUX1nSi2aSm52CjGRjVRv20dZfRN9qUMYMmQAkc1YGGIbAAAgAElEQVRlVB2poKGji+5gHImZBQzKzyQx/syvJcGeNlpry6gtraSxuZ3OIASio4kdMIiBA3NJO+WBVG9bHTVH9nKkopXI+HQGFI5mUMaJ1Lq7leaKA+w5UEUgKo6kQWMYnp9MX3c7Lcd2sLekmfDoDAZPGE186xEqjh6mtqmPQCCMhJThZA8fRErs+enSH+xspL7yKPWltTR1ddMThEBcHEnpg8gcmE1iXPTJcZLdDSUcPXSE2sZOYjIKyc3PIzUx8vjO9mrKSg5RWtFEeEImWflFDBpwZjfmYG8nrZXFHCspoaktSERkAikDisjMzyA++iyvqa+HnpYqqo4dpaGqmVaOT/8SmZxCWmYB2QPTiAaCfT007F9FcXkXBCCp6BKGD4o74/NCQzFbdx2jq6uHyMzRjByaRUxU+In3ooH68iPUldXR2N1DXxAC8fEkp+eSmZNFQkzUeZliKtjTTnt9ObWl5dQ3nvgcRUYSk5rJgKxcUtMTj//t7m6hsewA+w5VQ3c9lbuO0haAvt5O2ip2sHVpMm+MmQ2LiiVr1Gxy3/iCGOwj2N5GQ+1RyqtbaG1qPNl+WFIy6QMKyBqUQWzYKW9QwwG27jpKV1cP1O6mtr2b3iAEWo9QvG45gaPJJ7+spxROJjcnjdjIU19ZJ20VJVQfqaS+vZPuIARiU0nNyiU7O534mIuiL5R0UQikTGfWTVeyt7ScDbtraa/YxtKfbmPpaUcVMjd34cmfwuMTiY+JJ4qD7Fv1MPtWPXza0eEpqWROu4LLr7mLK2ZNJDcz4c+sLpLY1OFMv+VOFm37KSVVzTRv+Tn/u+Xnp7+GsHBSR1zCrR9ZSNqJbcHCcYxLCmd5XR+9hx7lJ5999OTx8VnZZNZWU9fTy9n/WkPlkh/x4yVnbo/NHsGca+YzckhO6HYUlCRJIaHf7po++clP8thjj9HR8c6H/J4PnZ2d1NXV0fY2q9rFx8eTl5fHlClTGDFiBBV1DReowveHuLwpzLvhY9y6ZjEPHGviSMkxYNTJ/X3dvfS0dNBxyly1fV3tNBzbz8Hm3nfZWhvbN22jLxikKHMAYYG3eFSSOZb5HxvL/I9BdfVOXvzRP/LtH77C//7g98y8dCgD0/N485YljanXXMG4Z1bx5LotFJfMoGfrVsqq0rji5lmMHX62eOSEhGyGzbubYfPu5t6WSja9/At+8r0f8NyzT/FI3gSmTr6WXOfolfQ+EOztou3YZravWsraxc+wY3kxR0/sCxs6nCnXf5m/uu8ashPCTwbMnRU7WP38H1jx7Eo27NlLR3f3Wa898++f5f7bpzMo5QCrv/8VHlu2lfrpn+av7hpHxI4XWP7McnZVN9MazKJwxk1cf99dzLlkGMmnhCQ9TWWU7VrDxqUvsvnVlRQfrKEOCEtJYcC0K7l8we3Mmz6e3MFpRABdFTtY9fMv8+ATB0kePpdrv/gDPnbFiWkbWys4/MJ/8rVvvURkxlDGfuz7/PtnptHbWsW+x/+er/1oHwmZk7nx3/+O1I2/Z+WLj7HlYB9hYZEUDL+Xyz55H9fcMozkc3zPu2v2sX/TSta/+izblmzmUH0bbUEIzx5I4aQrmffhjzF36igy4o6/D227nufR7/+Y1zZWkr3ws3zir/+ay8aeqKJyC0t/+l/86qktRI66gTv++svcfc2w0xtsb6Rpz0pWrlvCM888Q3F5H3HxuYyc8TEuv/cWZl+ae9p0kn3dbTQd2si2VUtYt3gRu9cfpjQIREQQNXw002bdyjX3fYypA2MJ9nZT9so3+I/v7aA1GKDg00/znS9MIz7i9BHBTSt/wH/+01PUNHSQec8v+PbfzCc7LZyu6j3s37CCda88w7bXtnK4qYP2IITnDGLopIXMv+tjXDZxOKmx5xaR9LZUUblnLZuWvcSmV15n395KaoCwxERSR0/jkoV3suDGaxieFkWg+Rj7n/02X/veK6dfpLOWipU/5Dsrf3hyU1xmPtd/bx2fmAnQR19PM+WvP8erK55nxfoSjhwoPnls2NChTJp2E5fefBuXTswnPvz4exTc/Qjf/dwvqKxpOb29o8/z268+f9qm6V/4A5+6cy55bzwV7aqhbP9mtj39CKueX8bOymZagxCeOYpRs69i4dVXM3XqSNJSYpF03KAFn+aWml6iXljK3uJyquoa6DrxdywmNoXkrCJyMlOICT++5kZcwUiKCgvJXHOIY51ndtbqbain/OXHeHxXNa2f/jL33T2FP/c3LhCTRvqMj/PJj1bz20UrqSqtpq6l+fi+QBgJKTnkjBrGlPv+m2tPWfwwMGA28269lCOLNlNS2kBfMEhYQiKpg4cz67qZBB/6Da/VN/HO7rrjiEvNIH1QDiOv+wzXL5jKoHOfSVmSJOmi1m8ByRe/+EUmTpxIU1PTnxwZcL4dOnSIJ598km3btp11f3x8PLm5uUydOpXbbruNefPmcfjwYX79+0fPevwHWXtTBTWNLYTHZjIgOZbIyBNdFnt66Kqr4uiBYkrqYklPy6RwyIkHUGHhhMfEENnaRO2+LWyvuo7czETCOxo4un4pj/z4f/j9gU6yhpytxSCBYBut7W0QGwcEoa2WY7tf5uFn90BCEfdcO5XIyFMfvLRTfmA/zRFZZKdnkBAXTlgYDBhQxI03L+S5RzdQcriJpq5ezhhdPnQK84fnseKXG1m24jE2btpNQ+JYxo8uZOAZHXB7aKwppbaph9ikgWQkxxEZCQkJ6UyfOZvimUt5fV05bQ1ttBqOSHofCPZ20XJoHUt/+iUeeOzAGfv7ivex/vsPMP7qBdxcdPz/1mBnOTt+9Y888OuNtAZyyB0xlZSECHpbjlC8v4zOzm6i0osozM+iaFASf9x5ve/IOhY/8BzVFRXUNb/Rl7WSQ2sf5JGYSOIz/pJLJw04PmKgvZaSZb/hNz/9Jat31J5+nYYGKl9+jEfXb+fQbf+Hj3/mZoYkR3Juuuho2sjrD32J0pVvvh99fd0c3PNLSv6xjKiJ3+WWIWl/4hpvp4nDT3+HH/z8JQ5Vnt5Ro7einOIXfk1n7HCGDioko+jP7YV8us6K7Wz81UGWVVZQfWIC+bbWY2xa8hMqm5qJGfo3XDbwjRGgPXTU7GTVA1/gf54rOf1CPT107drG2pJj9BRey9S78giLiGDEjZ9i/E8/z+rmPo4seYlDn5nC6MSwk4FasLOcta+toLOjk7D4POZcMp64uGigkcOP/wffeWgJZbWdp78XZaXsLfsF7YljGDYoj9S8c5ncv4P67S/w5H//F8+uP32K1b7mZmrXLmFZMyTnz2L4vMxzaKePno6DLP/ZF/jtljO/1/YVF7Ox+L/Ysq6ClIf+hamD4og4p68LXTTtWcST//ZDlmw8ROspTfZW7WbHk7sp3bmTpr/8AguvmkhSjN9NpOPSGHXXVxg080o2v7ycNZt3UH8ihMjIGseIy69l2iVjyY4NAF20NfcSCA8jKj5AXHI+AwcNJvGN+aZ6WmkuO0JFaR2tpaWU7d5PafdkhkZGEzdgCMMumQN9WRSMyH7HoUlUShaT7/9ncia9yIoX17Ll8EEAwsOjGTL6Si77+HUMy/zj9RqzmPnl7xLMeZDnX91FT28v4UOGMunaT3Pd5FZWHjhKXWU9geHZxESdOaV1bPZI8gelExMdAHLJGj+VaQuvZPyIbP/vkCRJIaHfApKEhARuuummC97u+vXrWb9+/RkBSXx8PIMGDWLq1KncfvvtzJ8/n6SkflpU4yJRtn0Rf1j0Og0Js5g9Jofk5BM9VtvaqN64jMee+A1PFacz9655zB574oFRTAKpg0cwPreZx0qe4Gc/LqTn8qHEVWxj8Y9/wU82d5M3IJLOszUY7KGzbiWLn86mdmAOBINwbC2Pf+urPLAznmH3fJO7Z0QSdVpH0kpe/MHnWdwzh3mTZzE0P4aICIBqdr76DGuqe4idOZGitMSz3JgMY9L8iQxd/hOW/aSUupYIRt51N+OGDuTMRzGN7F76a37/0n5iihZyyej/n737jq+qvv84/jp35q7sHZJAAmFD2HvJEkGWqLjFrXW1/rRql1r7s9ba9dPW1tbW1lnFASLKXsqesncY2Xvf5I7fH2ETkKVReD8fDx/Kued8z+ccb0hy3vf7/TSj4e1RRd6ueXyyYgelye1p3jGNWBo+cSYi8t3lx1e1n/V/PxSOGCYsnlSSW8Q3rMNOw9JHRblujGPXS9o/jf+++xU11T5Ch/6AKT+6mm4tXVTueJ0XH32RDdvyIf0qbvvfKXRoEXnS0kj+nHVsAxwxLUhvEYvTXE5B1n6Kiisp3bqTrAPZdOkSQxjg3TWP2dM+ZunGIgxbOGFxzYiL8WCz+Kkvz6Xg4EGKSrexddE0FrfrSuK4lud9V3y19WR/mYUtLI2k5nG4bH5qc7ewc38FAf9s/v3CfIb/5SrOeUHJug2s+nwjJXk1mBzxJKUnEea0NXzHqK+jpqIIlzPk5CWqzkNVeTnV1QHc8W1omRCOPVBBac5uDuYXkLdnNnPeHkCPHw1s+B4ZqKAiZzlLZ+zHMFmxRabSIi0WK0EIBgnWVlNd5z261IphxojvS99ebpbOKSewczYrtj1Mm64eDreVq9v5X+YsLKamNoi9/20M6BKOK8SAunUs/WQTlUV1mJwJpKQl4XZaj96L8kLcDjvn250u6D9I1qY1bFtVgGH1EBafTEJCOBaCBAN+/FXlBGPCORyvBS1OPElt6dizCiNQR01pNgd25VBr2AiJSiW1RUzD/QAc4fEkHvujomFgOMOJTk0gKjwM27FfS7u3k1vpx7/rDeaueIzOYxxYbAZGaCptuvQktqwGo66AfVv3UV5bB85EktMT8TisR36iSEsMPxo6Vu1i6dRprN66j6pgGNHJKcTEerCY6/AW7Scnu4CS7bOZM78rzdq2pXdGyHneSZGLS2iLXgy6qxeDTrNP0JfL5g/+zvQP5rK7Opxu19/LDXfcQrv4hq/KYNVWvnr9j/znpY/4yluDt66S2hrAGkWzfjdze7+bz6k2i91Ns36TmNxvEpPP+KgE+tz0FH1uOvmVYb99lWGnO3LEQzxw1xWkJ+jvCREREbk0XfILE7tcLhITE+nRowfXXnstgwcPvuSDkcMcZgfevet5Z/6n/Kmk8shyaIbVitUTQWR4LP0njuaG266h15EP1EaQ1HIgE+6+jMUvzWP+U/cxI2jGZo8gsU0XRkweQ5ei53hl9dHzBA0Diyualq2S2LdlFs9cN5XyI6+G4olvTWbfATz29FU0t1lOiB5CiLPY2TXtJWb99VnKjqyv68YVFUlC4jAmT7maTonRja6d22rwKAZMXcSaqUupcI5meP9etEtr7JOqVjxmOzVbFvPu2+/yuyovdUEAGzZnBNEJbRg+ejJXDuumXjUi8t0XqKUmbz4zp+4Bw4Q1oiVtxz7B7XeOonW8AQQI5q5lyYxl4DQdeWBv5OWQFQjgA7pcPpR2qU5sFohsO5Rhrf9J1t4CCldsZFd5JelE0tgcCEdMczpf+wQ3XjuClq4NTHv2OaZOX0ZeXj6lhWVU+4OEmWs5sH0LObv3AjY8LYcy9NYHGDuiLXGeSoq/+oBPXv4jH805SPn2XWxZsoz9o9Npdp63xTBZsEa1peO4R7nl9hG0jKgme9oDPPbjTykOBKibu4B13qvoZ+ecHtwHigop8nqpM4IY0V0ZcNsN9O3WgbiYKFw1FRzcsogtpUmEh1yIrhuHrsniJix9MP0n38v4sd2I9a7ny9ef4uW/LqOiqJiCVWvZVT+ADlaDoK+euqJ8ioMBsIYS3nYc1/5kHGkRCUREuCB7H9u/msfuw0/+MWEyJ9L5yiFEzp1GcXAbKxZs5prOPXCbTEAt+xcvYK+3Dh8x9Bjeh3hnCGYgWJhPUZ2XeiMIMT0ZdM/19OrUltiYKJxVZRzYNJ8tFemE2s/vXhhVlVSVlVJBEMOVTPrQm7n6hsGkRMfhsUH1no1s2ZtD8PAMpNAUWk/4KS9MaJj9snfOS7zw4N/Z64gmYeAPefI3E4lt9EMQBobFQ/zgSVzV7CoGZGYSHXfoIWruar54/m6en3GAen+QA1lZ+P1RgAXa38QTrzQ80Qxmv8sLNz3D0qxCvCnjuOXF++ieHttoX7PajfNYumEH2ZV+XPFDufKBhxh5RWvCHWXkLXmVt/70OovWFJC9bQf792TRNaO1+qOJnK3yfWTvPUhRSQBLTHuSktOJC/fT8Cu0j3os1LpcBMPAXBFDRGwzosMMUENzERERke+VSzYgcblcxMfH07NnT6677joGDx6Mx/PNNRn/PkrsPYY7w6NI6jyfmcu2kZOTA4A5MpKott3p33M0E4b1pOUJq43Y49MZcPtjvGAPZ+rUnewMuoiI68WEH1zLsM4e1v9pHl39rYg59Ju6YQ7B02Ykz7zsof2b89mzZTMbAwAGGJ3oNO4WfvJob5JNRiOPJOK54pFfEmzxFnM+XsnairpDs1MyaDl4AFdfO5EhbSPxnKqzYFQGHTMSiQuzUNuzC5kZyTS+wEYo7S+bzAN2N2lTZ7F0Sx65wSAQQ3RaTy6bdAXjhnQlTWv0isj3gddL5eovWR0IYFg9RPT9IY/9bBTRR/6WNWHEd2PA7d2OP85mx2EYlAHl+UVU1STiDjETqCqkoKqe+mAQc3goLov5FI21w2g59n+4bvIIWiY4gAza9u5Ll2I/WaUxhLpMBGoNgva9ZG/bQ16WH8PWnA4Dh3HZyLbEuQHcRHYcSo8h29m88B+sqyumqvIgJYXGeQckJlsYcYMe5JEnRhCJAdiIHXkdfZ/6lE+qg0AWBblBjBTjnCYKGvYIouJCse0wU73/U979/Ves6z6aAcMHkhYXT2RSH/p0jcRpP9/lwo6yRLej+1V3cMtN3fAYBpBMWu8hdHh9OUtra6irz6Wk2IA4MAwLNlcs0bEOduWXkr/8/3jh8UX07ncV/YZ0JtriIabX1WREHf0giWEyEz3qdob+cjrvFwbZN3c2e+/qSlurCXPdDtYs3Eqd1481cgzDhrbAdbjHjC2KqIQwLPsLqcn6mP+8sI7VPa5k0PD+pEbHEpk6kH5xETht53cvgmYnrvBIQsNs5JRuZu1Hv+bg7sX0HTyKzE4ZRDvjyOjXgdBQ53mdB8xYQ9IZdNsz1JUXUJS/laycaqoPPSmN6tQZZmaD309WTi6BwKnaJZ+JOvZs3kBpUcPSc4m9WxIeXkXOttXkALjTSYhPI4ICsrdnsX9vNkVkkKDZrSJnxbB4cIZGYHdY8RVsZ+fiWayM85Ma7wYqKdw5jzkzZ7GpxEVU90506N2OeIUjIiIiIt87l1xAYrPZSE5OZty4cVx//fUMHDhQwcgpeUhqM4I724zgzrM6LoTwuAGMf2QA4x85+dUWz37E8YurmTHZ0kgfksaTQ248+zITujL6B10Z/YOzP7S+rIDc0kpqLdH069GZtJTTNGcPS6b9FffS/op7z/5EIiLfIX6/j+L8hnbsFquZ5r26HROOnFowpROdo0Mpqqhl3Qf/YU7kBLq2clO59Q0+WZ9HWW0IceP70CYq/BTrrXelY4+2xCY6Dn3CNoJWVz3Gw1c9dvx5SsooqyijKgCmqFTiUlOIdR27fKGbkLBI3PEG7KukzltMVWXw3KZ1HMMSYqd598xD4QiACcMUT1xGENad/8NlI3IQo26ZSHZgOhu37KMoN5vNH77C5g9fAZLJGDqKwZMn0rdHW2I8IacImc6OJy6alIyWh8IRgBBsrmjCm5lg5wk7WyOJaj+OSfdspPCt1ZQWFlC0biXz1q1k3ss2bM4O9J0ymaETRtO5RfShGQkmDKMbvSfGMfXVXALbZ7NyxwO0zgzFv2sBq7bVUu9zEDNuMG1dIUdmMRjRlzHu9rUcZCY7duyn8OABNma9xMb3XwJSaHv5GIZcO5He3TKIdp37UluGqxXthkxgRF4etXM2UVxYTO6iGXywaAYfEEZ0Wl/633w1g4b1o1VC+Hn8YBwg4K+lZNdmNi76kIVTl5C7fSu7z3m80ymhvLACb1VDyLLjo9/w+49+842cSeSSFtqZTpeNZ3d2CV+u3cH+Jf/k5fl/o/7QyxarE1dYNKldhzHompu4bEBKk5YrIiIiIufmkgtIEhMTefzxx4mOjsbtvjANUOX7yEdNeR7r33uFv3++gfzm1/DwkK60Op/+rCIi3xOGYWCxNaw1HgxCbUUFdfC1S/AYcYPo2a0lSw4WU39wKm8/+SZvBYOAA3toKLHNu3PlmL5ERJ7np/EtZswWM2YjiOGrpb7WS93hVU0A8BPw+fDXGUAkTmciYRFA2dEhAoEAvnrfkf199dVUlVWdZSFBgnWVVNYcfjxvx2qD4LlNIAEgvN/9/KjtZayb+yHTP11Jdm4BNWWFlBRns33u39i1ZQ+1T/6YK4Z1INx6/FkCPj8Bv//Qn3x4qyupqa49uwICPvzeGmq9QcAMhh2L5Wj4ZAlLpuP1L/J87y+Y+/EHzFq0nTpvOVVFhRSXrWHBK1tZuSKPX/39Udq4G44xDIP2l11H9Jt/pKBqKysWbmNSx47kL57Lnro6AiG9GT22Bw7X8dM5wwc+whPtRrJ69lSmzVxNfkEh1aWFlJQcZMtnf2b7pr14f/EYlw9og+c8Opo70gYy+qEMOg+aw+effM7qDfvwVpVQVlxC4e6ZTH9xB3t2P8j9P76G5HNsSBwM+Kg6uIB3H7qd6TuCOONSiW7XgcOdcYJVOezeV0wweKE/Xm7DE5dERISLRnovAy2JjfZgNbTsj8i5iOs3gRtS0+k46zM2LV7DvqJCSg59HYdFtaLNwLH0Gd6PlslhTVzp2bGGNSOlVTvMYdUkJ4QTYtUMMxEREbl0XXIBSUxMDDExp5klIBc1X3kO+3JLqKzNZevCf/LcyzPYWdKGO//nKi7r1qKR5uwiIhcfk8VKdLN0bMYK6uq87Jz7CRuuiKJ9XDwO26GHJPWVlBeXQ0QCbpuBCagvncOKeV9R57XQtv9ASvNzMVEHRitS+vdj8LjxZLYKw3GeD1oMTzSREZGEWk3kFuxk98av2HmwC55mTmxmP77qgxTs201Bvh8sVswhIdjMYDKZsFgaYp7aqioKcnLxEU+wtpCsdQtZMHPZWVQRIFBTSv6aT1m5LQCYMRxtaJZw7tcV9JVTXlBD0JFKu4lP0PlqE+XF29g5/z0++NdUNm7LoS57NuvXT6Brlw6Ex4PJYsFkbrifpYVFlJeU4ScUX+ke1i6az+a128/ikurxFu0ha/2XbD3gxzA5CfGkEBN1uMB6fDVllJcEsCYPYfRjIxjzoxpy937J6vf/xdtvzKakppr6Lf9kwbpHadP/0HGGGbrfwI29XuWPCyrZO/cTdkwI8NXcLXjr/bj6XkGn5Ib/R0fUl1FaUIPhSqPjNT+n63UGZUVb2D7nHd7/1wds3VVA/f5PWbvuarp2aIPnHH90C/pr8JZXUFNvJ7L7ZG7tdyPXVxewb8PnLHz7LWbPWkNFxU5yN33G+p3XkNzhVPcugL+6ktqaenCcHCUGvFVkffAbpm0PYLKFkHHP7/jRTX2JwaC+KoeCj5/inmemU1fvb2TwkxneKmqqvPj9ATCfmHxYsDtCMFvNQBztJj3K1deMICPehc3SsK/fX4u3ohRv0EGIOwyHwhGRc+Zu1om+t3Wi721NXcmFEz7wEZ4Y2MhUfxEREZFL0CUXkMilLX/ei0x58jUWbSnBbncRHh3HpEfv5bYru9JC6YiIXCKCFiu2lHZ0dJtYXVFD9bqX+OXDB7j7oQfokAgQJJi9gvkfrCbsgd9yZQsrJhMUznyXpTU11AXTSO41gXGtM4hPtB6agQCGrZSqGitWsxOL6XxCkgiiUxOJSAyBvXlsWzyDT8NiYFQHEkIrKVr7AfM/+4SdgSD2+FSadexCShjYfR4iYhKxshV/ZSkF29azeYeFwPZFfPbicyzIOv3D6aDfR03eXvbtrCEY8OHdu5h3/vB3dgOGycDZtxNJnPtKXsGCeXz63EKq0nvRsn87ksLs2IHYzkPp23EV+QdzOVBmxWw2Yzp0Ek9UHJ7QSCzk4s/bz97tX7EjqYC8z/7NtDensqng9L0s/DWVlBzcxb6dxVBbzP7lH/HBuzPJCYItMpSo9mkczUdKKFz9Fu++epCYCWNp1yGGSMMAEmgzbCz9F85h+nYAO5YTQzAjkcwRvQhZNI+qrX9l+m/2sXJ9FT6fh2HXXUmiy3nckmHBgllMe2YJdR0HktEvgyS3DSsmEroNZ8DK5RQeLCKnyozVbMY4j6XTjKrtbPx4Gss3Oki+fCDpqWF4DHBEtyezbz+y165j2UEwGzYsJ8xSMQwDw2LFbIJAbRll62ax7PM06NAw3dRktuKOb0G4wyDgD1BwcFvDcUHwFtRRs3M7+4C8lS/yn6enU+/7mr4jVitWw4wB+Pd8wdrPOxMTyCTc3dCHxRHVjPBQF1ZzFC26dCBm9kp2F+xn5Uf/wKgtZdRlXUmIbpi9VVGWxe4vppHjGEy3yyfRLfnc76GIiIiIiMjFTAGJXFIsrliSm7ckw19GWlp/rrn/EcYMbkeMwhERuYQYZheOtAmMvubf7HhjJ+Xeerzr3uNPU947Yc+u3P6Dow91zQ4XVpOBwTY++e09fHLC3ub0dDqNf5DrLx9Km+QorNZzfbIdTnr3QbTruZ4NOcupyV/B8tdWsPy1E84X4iGtew96D+xBqGGAK5SwhGYk22B3xW42vfcEjx26JJPZQojThamm6sj68Seqq8hn1e+vZtXvT3jBMHDEpDJ+yiRiz7PRdVHWYuZ9+hbVf2r8dYujNYmJsXgOrQIajI4nKTKcKDPk5S3h0+eX8Onzh67fbsdhB3+d95SrJ5VtX8SHP1nEhydsN1tDiG/TgQFXDCbimO31tcVs/+LfzPzi342OZxg2HKG9ST9pqUi6P4cAACAASURBVH0TMf3GkRm2iKXFdSydNRMAW+QtdO/qxGY7+b4V7p7P4jnv8P7vGq/d6uhIUlI0rvNcsa26aCerPvqM6R++0OjrZkscYdHtiI89ts8NYHPgjEshyWFiR1UNpTlzeO2RORx+GzpjUxnz+xXc1rshQHOExWEjh7r6Wja/PJm7Xj7mJHY7Nr+XutPM5DBi0kgJd2AxA75dzHnlEea8cvT1no/8lzsmDyIlEkLb9qRzy0Vk7Swh9+Bqlv1jNcv+cfKYba9pT7czvE8iIiIiIiKXIgUkckmJHf4Ybwx/7Ot3vARUVFRQU1NNUV4uDo/nnMYozMmhoryUwsJC9uzZc4ErlG9LTk4Ofv+ZLfsiFw+rO4Ju9/+Fm/bdw3/XFVJZXkON13vkdZvdgyM0Bpf1aMON6F4jaO9cwNLKukYf9Pp37WLtiw+xYcVPeP4XN9KuReS5901PGcyg0cUU5VWyaO1uqqprqPc19BQxm62EuMNI6jueUTffS+8Whwp0xBHbugeZmbPJ3VBIdW09hsmEyeEkpkUaHTJaUPXhNFadUQEGhmHH5nbhiYgm86G3uKHneS4dZnXhjowkLLSIQFUtXl/gULBhw2K1YXe7SB8wniFdW5HgPNTfI6wVGV0ySVu3jZI9pQ1LNFks2JyhpHTLJL22kr3LVxzXDNyw2LC7w3B5XHhr6vD5DkdCJgxLCA63h9j2/Rh611MMb3PsFZsxh4QTHhOGp6qW2mrvoTDp0L2w23HHJNDj2tsZ0shSY0biNYy/6teseC2bgC8I2Gh372Q6uRwn97cxu3BHRRJaWE6w0ovXf/K9aDVkEoM7tyDOce73PWiyY3dHEBbhoayqljpvPYfeRZhMdmzOEOJa9WTA5ZeTGXniecJwxfYk88rmrJ2ZS3VNNfV1jZ/HHOKk06QH6fHZ86wpLqXm8JeS3Y7TGY6nV3viZy3gq+DpZpFk0vHKtiwqK6cupwxvrZ9TtSwxIvsz/p5CgnU+Plu2hfyKGrz1fhpGt2C2O7A7nYSFubHrp30REREREZFT0q9MIpeg2tpa3nzzTZYsmM/czz/HZDq3R5j+YICAz8cMk4lnf/nLC1ylfFuCwSCVlZXH/fnCNxKW7x4L9tCOjP6/uXT58l1mvjWXxVs2AWBg0Kr9BLrfdBMjUqw0rJblw2trQct0OyuLKzC5E/A4LBjGofeKv4aaojKq6n34F69gU+EYUptH4jHsOKPjiE5MBmJw2a2YzvDtFd9/Ijc3b0mnGR8zZ84yduflAhAe1YpeV05i0IShNIs4dv6Dk7iuYxj3dCjmv73KwhV7MdyhRPcZyohJk8msX8q7K9YSEx5HpMd+0vkMkxl7aCyhLjNgxWTtRJuxwxk9aRIdk86/ga0RPZyxjwRptfQz1ny2hs0FFTS0jW9OYkprMq+8gkHDupAQdey0xkhaX/Mg10bFY33jQ7buKsAcH0/zYZMZP6orpoX/5cMDOdTERuFyNCzFFJLQjp5X30VN4irWf7mNvIP7D40Vhju+B13Gj2LoiEGkRZ9wTbYoYrrewp2/crFu8ULWzttGQ/Rtx2ptT0ZmO3pefw1DuiWd8ho79BmJ6V//BnyYnL3o3TsV63HNRw7di7gruOoJg7ZffsbqmWvYWlJNNQBpJDXPoMv4KxkypDMxEY5zutdHzuNuQ8ex9+CKiWfdvKVs2HCQXIJABKFh7Wg/sBd9xo0kMyO60eNdia0Y8MifcaS/zezF89m362jA4YiMJ9TeMOvEMIXgyLiBx143eOM3f2HhFj+YDMztOjJgyO1ccZWJOVdkkV/txRHhxGQ0/n7KuOU57kv4iM/nfMjG9cXU1hz9Ygn3hBzfjqTVeMY/3Yb0ee+z9MMFbDxQQlkQoBlxHfvSceggBvZpT/Pz6JsjIiIiIiJysVNAInIJWrp0KYsWLaK0pOSCjVlTU3PBxpKmVV1drYDkEmKyhtBs0C3cOegW7jzNfkH/Lj57+GbeWlFCreFh5NMzuG1oIqEhDQ96g3nTeO/Op/hgczalwRzKirzU1QXB3p5hv/kPw86xPnezTvS/uxP97z7TI5zEZVzO7b+9nNtPeq0lDy686ZRH2kLj6PH4x/zk6pPWj7pgIjuMoF+HEfQ73c0+SQRtht7Nk0MbuQk3Pk3HG58+bpPhSiC569Xc2PVqbnzg7OqzuqJoPvRumg+9m/FPnd2xPm8ZlSWVR2aCuK+6k6HNHdhPzkcAiOo0igGdRjHgnrM7z9lyJrShw8TH6TDxXI6244rswqDbujDoaxo0GyY79vQp3P7XKY289+DGz77kxq89XwKtR9xL6xH3nlF1RmQbOk36KZ0m/fSM9hcREREREZHjKSARuQQ1b96c6Ohodu3a1bDhFJ9k/VpBCAQDmAzjnGehSNMLBoP4fL4joYjNZsM41/eEXLSC2V+ydlMN9b4gRtspDOriwnlkEoYfX3hr3OkeLLsNTIE04uOc2O0X4/vIS3VhGbVnFSJaCQkNxWGznPNft99NAfw1ZZRVNqw7lbf0Wf724/eprw9gcQ3k+mv7YQ+xXoDz1OOtqKTWW4f/jG+7BZvDSYjTgUXfnkREREREROQUFJCIXIJatGjBI488wjPPPkvA5sB5jj1IvNXVFOZmEx3qISXlm/vEtXyzamtrWbhwIbW1tQBYrVYFJHISw+TAZrdgGAaBLXNYNacv8cPa4QgxAzlsnfki7yzbR2GdnYgx/WgfE4G7qYu+4ALAEv7R5yZmBg73ezgT7Zjw179xzYCWRFxEoVHA52X/m9dzz3NrjttusnvIfOQZRqY7sV2QcGILC3/2C96Z8SXZZ3zTE+hyww+58Uc30z784rnnIiIiIiIicmEpIBG5RKWmptKqTTuGXD+FtLYdzmmM7P17WfzR+wzo3I4pt956YQuUb83+/fvp2bMnubm5TV2KfIcZSZMZe81ctr81n5Ly7Xz8zGSmHrOyk8lsxWqz48m8g4fuH01ys9CmK1aahtmM1e4kfNIr3DG5FfYLk46IiIiIiIiIfGMUkMjXCOL3+fEHgpgtFswm47jXAn4/Pn8Ak9mKxXwGn9AMBgn4fdT5TdjtZs7oM52BAJzB8k1Bfx1en4HVYsF8uJagH58viGExYz7rT8QH8fvq8QfAbLGecO3HlufH7w9gMp94f0RELi6dfvgqL/R9m5n/nMGuVavYUV9P3aElj1q0HkWPG27j8mHtCXef3AD9u8owTJhtLpwuNzank5CvXY/JjC3UjaPez5kvsuXEbr4YwwIDw9pw7wCMzl247I7nuWtAGtYL+v3QjMURgsPlxnnGM0hchNisnMmPJiIiIiIiInLpUkAiJwsGCASDgAmTqZT182ayZF0lncZMZHDbSPx+PwHMWCxV7Fg5l5kzd5I29kau7Bb/9YFHZSF7Z7zHo5va87tfDiQV41BoUkd9wNxIyOKnfss2jNbtsVtP/3DJWPIst09rzx1Xj6Jvl1DsduDACt6fXUTq8D50bhaF85jhg34fAcOEyTCdYk34Qr6Y+mdm5UTSf8wNjGwZ2ej17V+/kC/WbSW6+ySGd4w9s9BHROR7Kq7Xddza67qmLuOCsYQl0+XBaXzw4JnsbQIGc/fq7Zxxz/iLmMkSQuot7/PBLd/0mdpz2XNvc9lz3/R5RERERERE5FKjgEROVrySVTuL8IX1oHdrM0bRdsrz6sknGvYtYsany1jmGsXDN0dSvncZi95fxYpmw+nRLY6Er4kHvN4ytm/7nO17w47s6a8qZO0rN/LEvrH8z+iWx+wdIBD4mF9d8SrmP2xhzv2tsJ7uo6CGwbZdC9kRO4Bu9lAaPr+8n4V/eZs4ZzIp46JwOmgIZAJ+sqf/lS8jetG5a3daN9aCI1hAwZqNbF0WTWzbUnq1jCA8ePhUR+swSveycfkyimyD6NIxhhhFJCIiIiIiIiIiIiLfeQpI5GRRrTBN+5D/Lp3HppvvpfsxL+3L2sv2fVlEDo0j9uAeZq+ppLjT9fzhzs4kfO3A5RRmL+HzqWE8/skNHNvSO2BYyLK1ZuTIYcduJeAP8hFBxv2g5dFls04lNZ3W1igysGMPBjk6LSSNZkkuHI4gwWCQ4MHVzHj+x/z83S/Z0eVGfv/sYyR1z8B94vBbNvLFjjjCx4xlzPAWhAUK2b6jhCBRtG4ddVwMEh4RSnR8rMIRERERERERERERke8JBSTSiEi6DxjA5/NnMmfGYsI6N2w1yr5ibb5BoP29PDYslsot66lyG7QZ0o3MMxm2rJTyLVtZfdWd/D4F6ushOxtS4yw0T8+AnAt3Bcb+AxyIiyHmmBXijeyVfPz6S7y5KED6qMf4vw39yYxzUZlnEKwETphFsuWrr8gLLGD/8hx+c98HGHlrWbVmDYF+j/OLp37J2IwLV6+IiIiIiIiIiIiIfLsUkEjj0jPIvMZEm7pI0rx72U4Z+7Ly6RubRLtu7cnPr6Bk3xaKc+roNqbTcYdWV1dTWlpKYmLiMVtrKcjdwbxpedz5q35QX0L+kr9y5y0r6fXqz3jgHMvMeu0J/rK+jPJ6ILidz+bV4X9yPb9eOIMNSYN48n+7UcZuFv3u3xRdNZrJt7/MlY86wWTCZBgYRh5L1u2kRYsWtG59bL1b2LS6kradn+SHD15Ll3CAhhkoGCYuyl67IiIiIiIiIiIiIpcQBSRynOLty5gx8zOW7yjA72+YfVGyaT3Ze6uJ3B1gt72EbRuepa5Fc/p0jGT5goN4TPez/rXDS0tVcuDAepZ9ZeeGh17ixQcPLdBVlkfZ1i9Zf/nPeSXVRH1pJTuXfcnu7uP4y4AUmHVu9abc8kvuDARIxMCy7z8U55dz1zPX0TP1ZayYMOd9yCZyyXzwBiYMakXMSQ3ZczhwoJKIiBMG3ryBgnZ9yegwlG6RZgwDdu7ciWEYpKenn1uxIiIiIiIiIiIiIvKdoYBEjhPRsgeT7+vKNYEgUMK6d17i15+vpqzFtdx930+ZNCCSQCBI5ba5fPLvqRRPuoe7fjqcTkD1nqVMf/9NitNeYtebXbDY7IdGLWNfznremZHOj/+QgG/3VjbuXcf0Nxw89uEtpJkqyPNVkLP61zz44LRjqglCcCObyWDcKeo1zBbSzDR0/rBYMJtMmCwWbPYQbHCoD4mB2WLGYjKd3CEkL4eDM95hd/VNRLRPJMMNUMiS2VvIq7AQjA9j9mwo3voRb73zLttjp/DTJ37Cjb1OTFSOV5mbS35BAa6OHYhTXxIRERERERERERGR7xwFJHIcw2TGajIDsHf2PObv8hE//BbaeytZNvMPzP3HVlpMuIshYW483n7cdUMzrHY7dqDM66WqvJyk9s1xuZxHxvTmZrPm9V/x3Ps5vFeylQeHtMHtn0neQ8/wvy0tGHVgMruJy/whz//vZcdUEyDgn8XDL392+pob3XqA5cvradM6k0Fd/sKz1/bgkergyfsGfQSS+nDVeDeBw+1KtswjO6wD/foNIiHrr/x3k5U2I37G27f9moBRRc7Gz3nl2eVsLWw4oDB/I+sPlBKy41n2TTeAMnbtXM/S/bFc9/Bv+L8pnU48q4iIiIiIiIiIiIg0MQUk0ogS9sx+m9lbasiYdBOD17/LnDWRtLvxIVrumMvSWbNYPLAXKSN7E+7NZU9+EGINCALBIGbT8Q06bLEpDH3sXyy7Po5miVUUrPuYp14fzM9fbYnt8K6Ggclsx+FwHHNkgIDfjinIWdjD0vd+xazwflwx9jLsYaFM/P3HjPx1/dEA5ASG2YrN4cRhAyhkcW4irTol0qFTNLv2+PD7TRiWEFzuUMCDs9sQUjr2wx+MBGDfon/z3twNWIf8iAcHRwNB/H4fvoAJW4iz8ZOKiIiIiIiIiIiISJNSQCLHK97F57PWsKuuE4MmdaNlXA2bc1rRrLWFjs3iaNd+JJGdO1JaHUmH5pVk7Q3izzUgtorqymwqikwkJMQdN6RhcuIOb027UB/lWZtY8J81DH38ZTLs5gtY+H6WvvkZyxdnk3rjS9w9qBUJoTashoHhCsXmavyo/HxwhYDr8GpgRNKrXy9MJhMWy8lzU0p3lxEMWolIj+Xw3BVXiJ0QqxlLiBOX6xQnEhEREREREREREZHvFAUkcpySYCqdBybQP9xCSIiNyq8+Y/rrs9niGUvPSQZmexQtWoUTCJiwWrIp3xkgZ8Mm6BRDZRnUV/SifxfTCaMaGIaBv3Q/W2a/yer+j/CH1g5O3Ouc7N/P0n/9nPveKKRrjygSW13G4LZxxIXZsRkAq/nL439nb5UFnCfO5jjIggWVNB/7PzxxR38y4wCK2btiBrMWbWZ/GWRnLWJNvptVe0tYZ97CurXrCfa4kUd+/Bgj00/fh0REREREREREREREvrsUkMhxAsXrWTRvHmv3FgNQmLuGVfvLsEcv4Z+/WU1lRSnemBZcef1tTGiTQDylVPkOUlgQ4ODe3axK7sYt1iAndgbxVhxk5cJ3+Hf2aG6fYGbx3E84cGAtIe5hDBzbBovPT9mWXSxYcOxbMkDAv4dtp6l3/8Kn+eEyg1te+C1XJS7i0eeqsVlMmI6cvo7qtaWEX38f44a1J/7YFbzyZ1G/djkxqTaiog9vjKR598Hc3GEIvoCb7dMM3t1io+2IKUzq7KSurg5sLsLCQs/nNouIiIiIiIiIiIhIE1NAIscJb96BPpPT6ObzE561kFffDeBv048fTelHQs4y3pm6mKUhHeiaFgGYCfd4sXmymfcVlBzYQ3rvO4g/sRW6t4B9S/7Oz+/7AxsdqdTbH+WWa3owqXdfDMOBg1qKzWZcaSn06tXrmAMDBPyVpLHhlPUmjruPPwxLoHV4HOG5yzGbak7aJ+gDq8NDWGQkkccGJF4PLqsNh82E+chqXyZsIcnYQhr+O9wVgjPEhicsnMhozRgRERERERERERERuVgoIJHjmK12ksLsQBmb5ubiCUvhmmtG0C62nh0rt1FZGWDw6CEk2RoSBXe8E+vOHJa9uhSXN4Fedyed/KayRZKQeTNP/7EtRo/upIdFER7qxGG1NrxeWwsGWOzWRpq0W7Cerl5PJ7p5zFgwME5uGXLIDpZ+8kcObGiG55h9DP8Opu+2MyZw4v6nXvyrbG8WWWVBPKnNaRF+msJERERERERERERE5DtNAYmcxARQGqDW6abQu5asf/yFLeZydh/Ioa7VGK7NdBx54xhhoZjrKzm4aRdhN/2MK5o18pYyzLjiUuk9Nh4cDqxAfX0N2zbOY8Unm3H1nUL/c6729AFKg1Q6DbyBscM7kGA/utUomEvZirWEnzJYOVYZ6+ZOZeFuD60GTGC455wLFhERERH5Rq1ZMp+cfVn4ff6mLkXkomIPCSGz7wDimqU0dSkiIiJygSggkUYFPaG0Hzye1J7DKdkwh7c/nMm8XfnYs7P4mRPuv3EMvSKr2LtsLp99MI/aOA+u2f/iH93b8+CQ6JPGM3w+vHv2sHjhQr74chUFYR0Yeu0orrg1E5M1SP3ib/JqbLhCo4mNjT++B0kwnFC7GcvXBCT121byztz9dLisB5fdOoKeSTas5tMfIyIiIiLSFMqKi5j93rs0j4siPiGhqcsRuags+mwWVrud8OgY7CGOrz9AREREvvMUkEijDLMZp7+cvaum8+EXeZi6P8arPwynfsdyZi3bzvJPv8ARupX3P99N3MgX+WPXetZ9/Bq/e+Q61k68jf+5+zraxzSMVbF/E9N/dw/Pz6/H034EN42/jdu6pxMRE0WE2wq1JeSfSVFLl7KsVy+6m0yNv3Fz9pHlc1DXyEsH13/FivAqYpzBoxuzN1GYX0XUKU9YQmlRCZtX7yY4eCiDrh9Pn5QInPqqEREREZHvKL/fh6/Oy9grx9D7uP5+InK+DuzLwl9fTzAQ/PqdRURE5HtBj3rlZGXl7F8yjU9W76A0pTcDrhlHRkoU0RFWgknxhLkX8/miBfw3vAODbxtJZss4oj1+oj2hmENe58/v/owpCz7hyilPcvcN7YgKj6brqClMzmzGlf07kBgXQ2RIPZXbF/HGR8vYV+elasMmCmty+NWvlh9TSBCCa9lpKuUfz93BL978kureTzL1L9eR4bAe6hSSw+qP/8u/Z21m1ZJZbHDcSGM/qka3TKNN5w4khhy7MYewiILT3AgPyS1SGHrXbcQMvI7+LSMVjoiIiIjId57JZCYyIpL4+PimLkXkouJwODFO3fxSREREvof0uFeOUcb+DRs5WBYgum1PrmzXj4A7hpgINw4LVObuZOuGFezzR9N33ACaRXuIiwrDaQWw4m7WgWG3PkBK/5HklCaT0TGVcAzMrmjSB1zNXT47UR5bw6mCZkJSuzDsujRqgkECtZOZCEQ6TpymPJEJI4CYIJUj78HkSiHFZj6mjXokrfpO4L7WMbyws5oxN02iU0zYcX1J4ntfQULXdJrFhOE5tv96dSpdxgUJzYjB2ej9sBDX9yZu6m7B6jpdOOLC4w7HEXkWt1pEREREREREREREmpQCEjmGi5gW7fD4DexuNw7L8W8PR0QirboOJsXkwu05HIwcw2TFEdmCjt1TaOuzYrMd3m7G6vAcv5SVYcLiiiS+xRmkCi1O+Pdx7ITGpBAaM4af/19fXPFJhLstHP1MTwdG/aAt9kg3TtMJh0a3Y+S1rTC5XLhPcWqLJ5aTO6ocL77rcCZm9MUcEfH11yIiIiIiIiIiIiIi3wkKSOQYFkI8EYSc4lWz3UmYvfG5FkeZMJlMR8ORb00oKRmhjWz3EJV4ikOsbsK/Lv04A7awSOLCNH1ERERERERERERE5PtEAYmIiIiIiIhIE6ou2MucPz/MHxaWH7PVQWjUBH7x3h10OYuxctbM4KN35/HJuo3U1Ncf2tqK6597iqu7JhB24koAIiIiIpcwBSQiIiIiIiIiTchfW0X2phnMn+87ZqubqMSOlJzFOLkzfs7tz33E5q0HOVBSij8QOPRKCT2La/AFTnu4iIiIyCVHAYmIiIiIiIhIE3LEpDL6ic/5dIoXw19F8aYPeerJaRSf1Shr+e/zr7Nk+QESrnuEF8f3I91hwwxAKOnd4/Fo9oiIiIjIcRSQfEvMFguuiAhee+01Fi5c2NTliFBWVobJ5cFi1W9JIiIiIiJNyRLiJrnLZSQD1JeS497A7wKcXUCSu5HFmwoh7UZ+/NDdjOvcnEiLGeObKVlERETkoqCA5FtitzvoNWQEUXGn6hgu8u2LiI4hJiGpqcsQEREREZHztXsba30B6toNYEh6ksIRERERkTOggORbYjKbiU1KJjYpualLERERERERkTNWQc6Kucx7fyaLdxdSiIE5MpK0fiMZO2wEfZI8jRxTQ8nOVXzx9lTmbDjAgSC4XNF06zOGK64ZQ8vIb6DMqkpKgkG8Hhcuw1A4IiIiInIGFJCIiIiIiIiINOogq959k3/9+S3mfrWDfaXVVAfB5HAQvmg7hXlmIu4dT5vjMpJidn/5Cf/85V/5ZN1GdueWUw7YbE4WLtnIqp1F3P/kLfQ8r5AkCKznn7f+llm1PoIAuWuprPFhW/x/3H3bB9it5iN7h/a+i6dv7ktCZMj5nFRERETkoqOARERERERERKQRlVuXM33q23ycE06PO57lR5lxuICqqnx2b9hOwFdOfi3HBCQ15KxfwNu/f5E31vuIH/04zw1NJTzopfLAV8x9+2Om/fc1bC3a0vIHPYg8r3keOax44y3e9wfxHbt571I+2nv8nqbAZTxydQ8SUEAiIiIiciwFJCIiIiIiIiKNKNy5nR179+Bqfy8TJt/JtV3d2IC6ugoKDx6kwhdC+LGzR2ry2blyIbOW1RA77C5++thtXJYRiQMf3tK9tImyU/qrf7D4w3+wYGRPJrY818oMoBO3vfEf+tb5CQLGpre470/z8Ha7g9/d1J1Qx9Ff9x3N+5AQ4Tjn+yAiIiJysVJAIiIiIiIiItIIq9WG1WqhaOMavlj4JS2b9aVTrBuXzUNiizYn7V+bt49tG1az353KuKGjD4UjABbs4c3p1H84I7u8xXMbN7BiewkTW0acR3VJ9Jh8Az0O/3H2Gh7+ywIq0wZwzeSJxIbZz2NsERERkUuDAhIRERERERGRRkR3GsWYy7ex+dXP+fCVn7N1eWvSUlvSpedljOrXmZbx7uP2Ly/MJ2v3VvKK3Cx553956IvjZ234KgvYs7USnz9AVVU1cD4BiYiIiIicLwUkIiIiIiIiIo2wJ7Rl+A0PEp6cwez5s1i68BNmzDAz7/P5LOjbnyvGjGf0wK4czknqvHXUVFdQXVDEqs+yWHWKccPTv7VLEBEREZHTUEAiIiIiIiIicgrhae0ZnphEx1592Tp6B1uz9rBs2SyWzPgbm3aVUmuEcsuolrgBh9OBJywKT3I0g668jpFtPY2OGRIWR+suYd/uhYiIiIjISRSQiIiIiIiIiJxOSDjxbfsQ37YPvWtLGdw3ldde/B2vz17Okp5bGT0qHTcGoaHhxMUnQWgkbfpP4v7rWjV15SIiIiJyGqamLkBERERERETku6eK3RvmMPOzz1mztYjq6oatISE2YmI9uMND8JtNmCzmI79YW+PiSG3VlpS8bXw5/Z+8t3ALB8oPj1dPfVUWO7+cx2cfLGBfE1yRiIiIiBxPM0hERERERERETlJD9urZvP3eMkrcbUlLCMfhaNhemrOZL5fmY29zJZ27dyAao+EQdzMyB49h8qLN/P3z13g2bydd2qYd6lFSR311Adlby6jzDOKxiYNJAaCW8tx1fPrSNNb5AgT9XqoOrOSgUUdV+QL+9viPmYWByWKj1eiHmdInsonuh4iIiMjFRwGJiIiIiIiIyEmcpKZ3oG30cqbOfYfF2eWUEQTCCEtoRcfek7hu/GSu7JWM88gxHhI6DOWGR+oxQt/k86XzmTn/PfKDAA4coWm07tWfsZcNIPnIMXVU5K/hg+d+zXuB4PElVC7nsRtM7gAAIABJREFU3eeXA2AJ8TAo8VYFJCIiIiIXkAISERERERERkZM4Se4+ihs8CXQcsJFduRWUBRsCktD4dNr36EyX1slEO084zBZFi15juScunV4r17BjdyEFRwKS5rTs3pEendqQeOQAO6HxPZn8y2fo4Aucshqz1U5az4hTl5s+msd/Eou5dSdcIebzuXARERGRS4YCEhEREREREZHGOKNJ6TKMlC7Dzu44m4eojN4My+jN1x9pxxPbnYlPdmfiOZYJQNpwHv3x8PMZQUREROSSoybtIiIiIiIiIiIiIiJyyVFAIiIiIiIiIiIiIiIilxwFJCIiIiIiIiIiIiIicslRQCIiIiIiIiIiIiIiIpccBSQiIiIiIiIiIiIiInLJsTR1ASIiIiIiInLhBAI+CosKyc7ObupSRC4q1dVVeILBpi5DRERELiAFJCIiIiIiIhcJqy2E0IgoFi75gh07dzV1OSIXlcLSMpq7PZjMWoxDRETkYqGARERERERE5CLhdLvpM/IKDu7dxa6SiqYuR+Si0rpXf9LatsNitTZ1KSIiInKBKCARERERERG5SJjNZroPGkr3QUObuhQRERERke88BSQiIiJyzspLivEH/E1dhshFzel0YQtxYBhGU5ciIiIiIiJyUVFAIiIiIuekKD+HpbNmYhDEZNJa3CLfBJ/PR3RCEu179CY0PLKpyxEREREREbmoKCARERGRc7J9w3pWzv6U3t274fJ4mrockYtSfm4uS1YsI65ZigISERERERGRC0wBiYiIiJwTv89H2zZteezRR0lMTGzqckQuSmvXruXXL/6eQCDQ1KWIiIiIiIhcdLQehoiIiIiIiIiIiIiIXHIUkIiIiIiIiIiIiIiIyCVHAYmIiIiIiIiIiIiIiFxyFJCIiIiIiIiIiIiIiMglRwGJiIiIiIiIiIiIiIhccixNXYCIiIiIiIhcOHXeWnz1PoIEmroUkYuKyTBhC3FgNpubuhQRERG5QBSQiIiINJG6ujqqq6ux2Ww4nc6mLkdERL5lweCFH9Pvr2fTquWUFxUSNC78+CKXtCC0zuxGfLNkDJNCEhERkYuBAhIREZEmkp+fz4IFCwgJCaF79+7ExsYqKBERkfNSWV7O+3/7M/HhbuLj45u6HJGLyhdLvmDULXcSOXYi9hBHU5cjIiIiF4ACEhERkSbi9XqZMWMGn376KUOGDOGmm26iR48exMTE4HDol+6LRn0VZUWFlBRXUFHvJwCEhIQRGhVNdLgTq+WElnC+WooLiigoLqXW52tkQDuhMXHExUbgtEBdRSF5eUXU2aOIT4jA5i2lJLeA4iov9WY7johY4mMicVsbGSrgp766lILCQgrKagEwmSx4QqOISYjEZbMd3TcYwF9TyJ5deXhdibRKi8J23GBeinbv5GClnYRWaUSHmDAMoK6YrF05VDsTSE9yUV9RTGFOMeX1PgKAIyyJhIQI3HYz+rC7yPnz+3y43R4ee/RRBg4c0NTliFxU7r7nXsxmM8HANzD9S0RERJqEmrSLiIg0sfLycj7++GOmTJnC/fffz4wZMzhw4AA1NTVNXZqcr+oCDi6dxqtP38mtA3vRp0smmZmZjBlzK7/4w6dszinnuAiktoSCdXN49Sc/YtSgQWRmZjbyz+Xc/9tpbCxvOOTAl2/z9E0TufOp11mctYuVH7/Es9eOYESXTDIHXc5VP/krH2zIp+KErCXo91JzcBMr3vsTP77tyiPj9+rVn9vv/jlTv1jKwZL6owf4ayj/6lVu7Nab/ve+x/6TLvYAb9/Wix5dbua1bTV4D7c+OPghDw/tx6AnprJ5wwI+/usvmDK4D70P34s7fsu7q/ZR5lWvBBEREREREfl2aQaJiIjId0RFRQXTp09nwYIFDBo0iFtvvZU+ffoQERGhGSXfR/Xl5Hz6HA/86DUWllmwhyeSFG3BZIDPl8WMv31Aq0EdSUwOJwYAP1Wr/sMLj/+O19dWQnQErWJiMPnrqC0poKC0Cq81lOjoFFJiQwk5bulzH9Vl/8/efUdHVe1tHP9On/TeIQVC6L13lSIgKAgoCghWFAt2vBa89qv3Wt9r12sBGwIqAgJKR5Aq0nuHEEJC6mSSae8fRKQpCNEh4fmslbXMnL3P+Z0hTjnP2XuvZdrYlSz7bCpbS6IIz8ggtTiPnZ++xL/35RLw+lMMrGUvb+/BfWA1C157gFGv/kRmeDw169TBgg+P28G6RWO59aqZXDp6Ah+OakHYqUaf/EnGgl/438gn+GqHC2NgHNUzkvA4c9i94EVGjrGR8urtXFwvlhMH1IiIiIiIiIj8VRSQiIjIcQ4dOsS+ffswm/UW8Vc7cODAKUeJFBYWMmXKFObOnUunTp244YYbaNeuHeHh4X6oUs5WyaaPuesf4/ghz0bba+/mxptupkfDaEJtkJW1mqVfbcSeGsqvOYfPs5fvp85h5oY8zF3v5skxt3J183iCc7aybOzzPPn6F8wL7sOD/3yUO6/I4PjMYhdLJm5m1fQQ6lx6FWPuf5DBbRPJmz2OF+4fzf+2LmH6zHX0q9UcM+BzZbFu+Ve88H9LyKvVgVvv/g+jbm5MAmUUHVjFN08+wX1jF7Dw/57mk8smMLLuub8eFEx7nXcik+h6zWjG3HgDTeqFk7Pmba679Rnmzx/Pl8t7k5EWQ0qQJto6ltPppLTUSV5ONtkH9v9txy1zllCYn0exo5i9e/f+bcc9FwcPHqSsrMzfZYiIiIiISCWiq18iInKcf/7zn4SGhmIw6CLlX83pdLJnz8kTFf2qqKiIadOmMW/ePDp27MhNN91EUlISLpcLFGCd55ws/GgsS7OLCb7yv7z86ADqVQs5ujUurhF9bm10XA/DwXWsWreLzMMtuO7KnvRoHk8wQFQ6LQcPofuaLfz8wVbWbtjJ7isyqHnCEc32EJpdeSMPP/YYvWtFAhBZtzmdL23N2PdzyMk8SDY+EoDi3dtZ8vVEFsbWo99tL/KvmxuX78VGcHxr+j72Km5HW26b+jPfz9nKLXXrnPuHRms4Fz34Oe+MaE1i+ZCUhOYjeP7a6QzbN42FSzeT26U+KUGB53qkKqOsrIy5c+eyeuUKVq9Ziz3g73tuPF4vRfmHcZU4GDhw4N923HPhcDjYsWOHv8uQKsLjcuIoLKKg2EGZ21P+qJmA0AgiwoOxmcBdUkBe3mEKncdOEWghMDiciJjgE9ZpEhEREZHzka6uiIhc4Ewm03GjRTZs2ODHauRUiouLmT59OosWLaJRo0akpNciKr2uv8uSP+JexLwZmRQ7GzPyms7ExYScvo/JhtVqwWQspbDYgaPUg89mwuB14SwqoqSkDJ/VgtVq5lQzXiW2u5qhN/8WjgAQGklSzfq0r7aF2HB7+WiVYg5lbWblol1ER19Em7aNT9pXUGgIrTt1xzf+B1bP/om9I2uTenbPxFGWhqMYfW1Dok+Yr6tZmzaEhC9m+d79lJQ4AQUkv1q/fj2ff/45O7Zv92sd2QcP+vX4Z8NoNGI2mxX2y1nxOgvYtmwmEz/6go+nLGBjVlb5lmR63vU4j4+5gdZRsHfhpzz3+CjeWXzsyKU6dB32D1788DoanWrnIiIiInJeUUAiInKBS0xMpFGjRjgcjiMjE+Rv4/V6KS0txe12/2E7k8lEQEAAycnJZGRkYAs+g4vt4l/79rKjpBRfvU60rhlKsO0M+sQ2ol2LWny7aAIffPI5iUmhDGqZQHDOZhZ/9DZfz15NSdvhtGyWTvIpuoeHhRIdFXn8g0E16XTTy8y86dgHHTgK97FvazBBrWtTPf4UO7NYsVdLpaHBQM4Zn7RUtNDQUMLDw7FarRhNJoxG0+k7VRAvPrxuNz6vF7vdfvoO55mEhARq1qxJUFCQv0uRSsfN/llv8NgTrzBpTSFBIcEkJCZyJGqLIzI0EEv5WklGWyDh0SkkJhaD143TUUhBgR9LFxEREZE/TQGJiIjw7rvvMm3aNPLy8vD5fP4u54KRk5PDjBkzWLVq1Sm3G41G7HY7aWlp9O/fn6FDh2IwGBj3xXhy9c90fjMZMRkMGNxevGf8/1QEbTq1JXnqMlYu/YAn+7/H4x4vYMJkCSAwoCM39r+KbhedKh75MwwYjEaMpj+4s97nA7cHF2Awm/7SD4xejweD/p5PqUaNGowaNQqX10dceh2i4hP+tmO7XS52bVpP8cFMBg4Y8LcdtyJYLBZat25No0a6f1/Ogncd86bNZ+0vBdQeMIL7Rt/DlY2SCTtF0+RO1/F8p+t4HiBvDZNff5r7xqz5mwsWERERkXOhgEREREhMTOSmm246fUOpUNu2bWPXrl0nBSRGoxGbzUZaWhpXXXUVQ4YMoWbNmkf7SCVQLZWMEDvTVm1ha14JHb0+bMbTTPXjXsXHb3zJqpUBdO3WlZxDO9m69SCQSkrrq7n9pqvpf8mpL9L9OUEEhaSQXNvKem8ZzjI3J34k9JU6yNu6mfUWC40yUqnG8bX73B68HM/rLKLE/WeTDi+7d2ynpMSBxaLpkE4lLS2N6impdLryKtLr/30X/J0lxSyeMY1D61fxwAMP/G3HFfG7gwfZm5uHI+Vybrry+t8NR0RERESkalBAIiIicp4wGo1YLBZq1KjBoEGDGDJkCDVq1PB3WXJWUkivH4Zt07d8MO4aLomNILh6MObykMTr9eB2eTCazZhMRgyA75cVzN6zF98VI7j94Zu5tF4YRoOBis8MAgkKrUb1moXsXbqQzz9dSL/7O2C3mY/U4XVwcO/PjH1/KmZbKnVrpwDgM4DBaDwysmT5ejaVualpNWPEi7vEwZr/G8kjS5y4vL8Xknjxer1HRqcYDOD14CrdyvxZqzmc56Fnh9bERkdU9MmKiPw52Vlsz88jM64pCRFhf0E44sPn8+JxuSgtc+P2HFkA3mAwYDJbsVqtWMzG3+/tdVPicOLyeH6nhQl7cBBWk+GYaNuLp9RJaakbt8+HDzCYTJitduwWE0aF0yIiInIB+/1PXiIiIvK3MBqNWK1WateuzaOPPsq0adMYM2aMwpFKrTrte7YiKjKYdf83iCF3vcXUDfvJKSqiqKiIbdsWMO5f7/P1+t0cKu+RnX2QkuJCdi1byQ8//sRPaw6QmXmk/ZGfYkqcZbg9Xs51Rqqo1Bp06X899XLWM/e/d3DLvxewuaiQoqIcsjbP5bNHH+PltWHExg1jxOAjU3oZTGYsaek0tLkoK/uQl16fyrqiAgoLVvPN7d1o+ciKPw5zPJvYsnkNh/PyjpzP5jl8Mqw/j01cRWb6SK7tmkai8hER+dt5cZWW4Ch/rS12OHF7vHg9LkqdjmNeg49sc7lPHD/35/h8xRQd+JHv3xrDVW1aEx4eTnh4OAkJNbjyqjF8NGcLpa7fOUZZEfkrJjGyS5ej/U7+6cJ/ludRcnR5Mw9ljs3M+udgrk6JIyHiSLuItm0Z9M5UNh1ynPN7ioiIiEhlphEkIiIifmQ2m8nIyGDo0KEMHjyYlJQUf5ckFaT6Ne/y1nYvN/x3EhunPkS/yQ8evQhlMBgxmfvwROuL6NzwyGOxTVrSvFoyS37+nJdv/YJXDAaO3Gn8a69UWva+lpEPD6N363Sijedwn0tgMg06D+P+2xZy/Rur+XRMF8Y9Vn4cgxGTKYSk2n15esojtD/ayYY9qBu3PtGWjx5ZzLx7+9LoXgAjZosZa/v/8EzGQ4z+4NQpiWvVeG7rNp7bjj5iwGgyYzY34s6Hh9O2VgIBZ39GIiJn6RfG3XIvz30yny2eY4OJTYy87F1GHvOIvcVQnh4zhvv6pJ/10Ur2bOabf9/J8Lc2YDIdWWsMwOspZPb0/7Bg+URmP/M9426scfzdjK4i8r+6ne7XfMwKoxWb3X5khEj5aBSX1wcmC3aLFcsxUzr6PHN5osV1vLnlEMUmI0abHTvg27KZ6fc8To2oVB7o25gkvQCLiIjIBUojSERERPwkMjKS++67jxkzZvDwww8rHKmC2j3yPt9PeINH+/cmITICi8WCxWKhUaM+PPTaXQxunkJMeVtfXHd69+pF3ZpxmMy1qV27I0lJSUf7mM17WDH1OW4d9Sxjv9txfNhismI2m/7UdFz25Gb0G/MNM1//B32bNCk/Tjjhcb3p+483+WzGhww+YT14U0AIDe96gy+fbUdbiwWLxYbN1ombX5rML3PuoJ49BLvFjOlUhRhMmM2Wo+djsTSjaf93mLpxFs9cWZ8E+9k8wyIi58qA0WTBYjYfeW0ym8qnNzRi+vWxX3/MpqNTJZ4tI4FEJF3KoCc+YP62rZSUlFBSkkf21sn8d4CN0qxc5v/rQxYc18uDs2QTb744juWmQMJHTmFdScmRvuu+5ZXOgdhNBgyDP2H/odk82DKcwPJbIXd99A7jDuVS3P91pmzPJr+839at8/jf472plRj0F0zlKCIiIlJ5aASJiIiIn0RERBARoTmFqrrq7a/h8fbX8Php2mVNe5Ixb73JQkNP/j35IW7sWZfQY7bnzJ/AQ088zXuz5/LDrItp37YmrSIhrfvtvN399rOqLSCyGp1vfpLONz95hj1MWO2NuOKBBVxxinW7a712gILXTt3T0uxRpn51D+2rhWE9q2pFRP4KTRj2v5kM+1/5r2vGMWL0s3xUeDFvPPEgN1xSsTcv2JPrcNlDL3DZcY/aCK7WjsvHvMKcL+9jtmsTO3b56JxyJLnweUop2zKTr5absQXexGevdaPmr11rdmfku88zseG9zP/4O354+TKuCLIcfZ3dtW0LrjIXfS9pT72Q4KOPV6vWhiGPtqnQcxMRERGpjDSCRERERMTvDrBqyRoy9+bR8fLutGt0fDgCEFk3liY1I0nSnb4iIlWQFZs9lZqNbRW619SatbBYbXx52xDu/XQeiwtLKa3QI4iIiIhUbgpIRERERM4H3iOTZi2c8iFfzfqWvQUFRzcdOrSBD955k/e/W0hWckMaNKxLeqSW1RURqYxKcjcz7d3rad68OTabrfwnlIQ6vXlhlfOk9gaTDWutbvRt4aa09D0Gj/qebb9u3DaTN2/5B4vKXHiH9qSrzXLcKL3k4Z/wwU29SQrZyJd3dKVzdCjhLa/moQ8Wkpl38rFERERELjQKSERERET8Lo7ufbuTXqc67k1zeOnmgWTExxMUFERQUBDJyc247YkJ/LIvke5XDqBfnxZEoKEkIiKVTe7GH3n95rZcecc4Vq1aRVlZ2W8/LjfuU2bfJuwBdbjl3sH43A5y3uhDw/L3h6CGlzNqXhFOz1DGvdSL4EDLcT0NRjOdnxjL5iVf8949Pbkk2ITl50m8dGtXancfxqvTt5Jb8recuoiIiMh5SQGJiIiIiN8ZMDa7kY8++oSJ/xpGv5RgQpwlOBwOHA4Hrrg4Wgx/gPfmTeW95wbTKsqoeEREpLI5tJFVk1/kkcmHiUhvxJPfr6egoKD8J5udq7/ivkb2U3R04Sj+nkdv/BKzuQ1Dr21ESfn7g6OkCU0Hf87SZW8wICIQyyneHEwWKwG1LmHoU18waddBlq79jvuvTCdw89c8/OhbzNq0D2UkIiIicqHSIu0iIiIi5wOjBXtKS3qPasSlt75EmcfLrzcSG4xGzBYrNpsNs6mShSMpQxm3oT9ug42gYLs+fIrIBaukuIB9u7fiDkojrcO9XNOpFiHm3+5ZLArKZp/Jc3LHMiels6fxsc9Mx+fe4c2Rqbzyirt8oxmTLYAgmxmT6Q8ObjRhsQVgsUFGxkWMefIBDm4cw5e/bGNnnoMSIKAiT1ZERESkktB3VBEREZHzhdGExRaIxQaB/q6lohitBIVZT99ORKSKCwgIJDY+CW/BEnLWLmdN9mBqJJRSWriaZV++yaMPTmBJvoeQpOP7eTwedm5dT4nLy4pZi1ncP4QapJKWdroj7uGzZx9lTdjlDOjckwYZgVitYDRmsXb1jywvyKekVhKJIXZONW5FRERE5EKggOQMFeTmsn3DZg7u2+vvUkTOG0X5h8nesxMa1/N3KSIiIiIif6NdLHjn//j3U5+yzO0Dnxuno4gir5s940dxyYzRWICo+hdz3ehXeLBbLETHUL1lG7oZZjJn2TsMb/w5dpMPn8+NqwRcrlTS6+wkq/D4I5ksVlLbd6Wp9ydWzb6fq1rZMRlMJ4wYac6gR+5gxM1dyLBZyufS9lK2ehmfzJ7CO14LZrMBg+HI4y5nIfmFaXQZM5imyUkaPSIiIiIXLAUkZyAlJYXL+1zGjz8uwmw+5ap5IhckT1QonRr2pF3btv4uRUT8ICAokJkzZzJj6reY/nBeDxE5Wy6Xi5oNGmGxahSOyPnFQ5kjn0OZWRzweI/b4i7Jo7R8UQ93/GEKneXbjTFktB7O0+/ZePSFD/l+4yYgmMDIjnS7fgR3d43l5w/68dyKEw5lDiC4wa3c2X8y13+5msM5GTRrBitWHNvwe959dAlTt/2Pn57qQWSwBajGwIefIz/qv0z6ZCHLcp04fAB1qdvjWh686Qb6d6pLita1EhERkQuYApIzEBYWRtcuXejQvr2/SxE575jNZux2DcoXuRA1bNWW5z/7Cp/nFPOli0iFsdrtBIeF+bsMkQtDnX4892EXHvXaiQgP+YOGybS/8V9MuvIxSn2/fxOd0RpAaHjUr79hDqtO00F38EmPYTjKygAjRlMAAcEhhAUYadlmBQNLbUTE/RZZeJwFbBg7ktEzdxDY/km+++RGMmxQWlp6tM3ujx+nxzOfsv3d1xh3XUdubhROgMlEYL0e3PhMWwb9oxTn0bWtLFgDAwkJCSXQZsSodEREREQuYApIzoDBYMBut+sisIiIyDGstgBi4jUph4iIVCGWICJjg4g8bUMz9pAo4kOiTtvyOAYjloBgYgKCT314WxJBxz3iocy5gzkTZ3DYZWXIXXfSNiUUywn9Evs2ofkLn7G4qIDCMh9HMxuzjaDwWILC/1yZIiIiIhcKo78LEBEREREREZFTM/hclDicuMuczBj/Kj/t3nXc9t27F/Lcs6+yxunC16gb7VNtWDTzpYiIiMgZ0QgSERERERERkfOSEWtADQYO78s/ln1N1vRXGPLLxwQfsy5RWVkRuZn7yPc05O5nbqJJRAAWTZslIiIickYUkIiIiIiIiIiclwwYbRGkXf0iy+M789nY//HD16v55ZhlT4yNG3HFrfcz9JputK2bTJjSEREREZEzpoBERERERERE5HxlMGKMSKVZz+EkN+/JiDEOio5ZGN4YFERkeBwxMaHYDQpHRERERP4MBSQiIiIiIiIi5zODAYM9jJjkMGKS/V2MiIiISNWhRdpFREREREREREREROSCoxEkIiIiIiIiVYTNbsdgMnLvvfcSEGD3dzkiVcrB7EP0r9cEk9nk71JERESkgiggERERERERqSICAoO59q77KMg7jNfr9Xc5IlWK2WIhMSUNs8Xq71JERESkgiggERERERERqSKMJhPJ6bX9XYaIiIiISKWgNUhEREREREREREREROSCo4BEREREREREREREREQuOApIRERERERERERERETkgqOARERERERERERERERELjgKSERERERE5JR8+PxdgoiIiIiIyF9GAYmIiIiIiIiIiIiIiFxwFJCIiIiIiIiIiIiIiMgFRwGJiIiIiIiIiIiIiIhccBSQiIiIiIiIiIiIiIjIBUcBiYiIiIiIiIiIiIiIXHAUkIiIiIiIiIiIiIiIyAVHAYmIiIiIiIiIiIiIiFxwFJCIiIiIiIiIiIiIiMgFx+zvAkRERKRyKi7MZ9uG9bjLSv1dikiVFhkXT0L1FGz2AH+XIiIiIiIiUqUoIBEREZGzsmvrZhZOnkhCXCw2m9Xf5YhUSYWFRbgMJroMuIaE5FR/lyMiIiIiIlKlKCARERGRs5KblYXXWUz3ju2Jjo7ydzkiVdKWLVuYNGUqxYUF/i5FKpGiwnxKCgtxez3+LkWkSrHa7ISGhWOx2vxdioiIiFQQBSQiIiJy1qKjomnTpjWJiYn+LkWkSgoJCWHmnHn+LkMqkVJnCXMnT6IwJxuzSV/3RCqSw1FC6249qNWgESazxd/liIiISAXQJ2YREREREZEqosRRzMr5c+jYoinp6en+LkekSvn000/ZW6MGabXrKiARERGpIhSQiIiIiIiIVBFejweL2Uqvnr3o1Kmjv8sRqVKWLVsOGPD5/F2JiIiIVBSjvwsQERERERERERERERH5uykgERERERERERERERGRC44CEhERERERERERERERueAoIBERERERERERERERkQuOAhIREREREREREREREbngKCAREREREREREREREZELjtnfBYiIiIjIuSqlKHMH21atZ1tWIQX4MAYEEJ6STv3a9agZEXCKPh5KCzLZtXwFG/fkkevzYbBYCEysTkb95jSODfrbz0JERERERETk76SARERERKRSK+LAhqXMGjeWryZMZeGWbLJ8YAwLJb5FN64bdjd3DexAgv3YPk4KDqxnwSefMfHTL/hh5R72AEabjeCGLbn8qgd5amQfUpWRiIiIiIiISBWmgERERESkEivLXc+sj1/lufdWUZbRkvbNQrEZDLhcDg5n5bF9wU/80q0DCfG/9XEXH2DN9Ld58omJ7E5vTutB7elgMODxuMg/nEvmjOksvFoBiYicBXcpxdm72bZ5K/sz8zns82Gx2IlJSCc1oyYpMYHHt/d6KDu8jxXLN7IzN+cUOzQA0TTr3ZWMkCO/HVg5lYVbrdTrchG1I8vIWb2STVszyXR5IDyZus2akhEViM10it2V5LJ3x2bWbN1PXnEpAKGh8dSsl0FytVgCLZbf2pZms2XVWjYdNFO9QQPqpkVgPbrRRd7Ojaxds4vSmAwaNskg1g648sncup7V251E1W1Agxg3uzdsYuuOA+R7fVgDI6leuwUN6kRxwjNxdoo2M3vaSgpTO3JZ81AO7djKxlVbyHJd4GvjAAAgAElEQVR58AJRKW1o1iyZSLvpuPm1c9bPZ8lmJwlNW1GnmhXn1nVs3rSbfQ4X7pB40ho2om5CJMGWE45Xms/BvdtYs3k3B/NKAAgKiiKlVi1q1EgkxGb7/VpdJRQc3MX2zdvYl1VIgc+H1RpEXFI6qbXSqBZ14mhHLy7HIfb+/DOb9xw+MtLRZMIeG09avWY0jg2ugCdQRERELnQKSEREREQqsbwN61m+chlZtbpwx6PPcU/PaoQCJSU57Fi7kl3Z5hNGj0BJ5j5Wz53Bhpia9B31Oq8Mq0kkBlyuEvbuWMnGFfsJrpArdyJyQSnNI2f9IqZPmsjE72ay/Oe97PFCQEA49Rr3oceQEdx7e3siy5v7PKWU7VzGjPGTePH9yczftu0UOzUAbXlx48WkZ5gwGWDN2Fu54a3qjJ77AV1KFzHrtTeZOO0X1jnL8Ka2o8+wUdx/fS+aJwUfH5LkbuGXWd/x5TeTGDtzObuziwFISGhAlyt70WvgtVzcpD7xYeVfkwvWM+PdJ3l1dhgDnniMB9OaYcVQvrMidi6awEuPfEpOp9t54j/lAYljH79MeZ1H3ttN/etGMCxpE+PGTeb72b+wzweBkWm0G/gAd99zNZfVjuScHZjOk0Pv4afBH7J0UAlfTfqGSR//wPqSMtxAjQ63cetjo7ilUzph9t+ejM2Tn+OBV3Lo+tLz9EvN4ZcP32HSV4tYkVNMaUIjOg+8lVE39ufiOrG/hST5u9my6AcmfT2RsTMWs27XYQCio2vSsUcPLrv2Krq0bENqtPXkOktyOLB6PtMmTeKr6bNYuSaT/T4IDo6hQfO+9Bl2M7dd35KIox1cOPK2sfTLL5jwwYdMXbKTnV4wWCwENGhKz4H/4D939VWQLyIiIudMAYmIiIhIJVZWVkppqYNgbynGoiJyCkuxhdgICIiiXstu1DtFH7fbTUlxERZvJEGOArJznQREBhBgCSAtoz1pGX/7aYhIZecuImf9HD574UlembyNsrT61Ly0FS0DwONxUXg4m59nLGfD7e1pD4AXd9FeVnz0GPc9v5is1FZc2q8RQfjwFh5g68oVrD3swZrWlt5NOpMRbDgaTRyRy/q57/Pjl++yuqwW6V170MtSxt5li/nuqX9gjk7kP0NakxxmOdp+2+Q3eebpj/mxOI7qjS6iSZgNM07yd2xh5oevMntNIWMeu59rOtcg9MSRE3+Sp2g/a777iBcP/sJmW00a97ySFoYC9u5cx9wJL+GxR9P0XwNJtJ9+X2fCuut7Xrp7EjOdadRt15M+oSZKDq1j3rL3GPNkBM3fv48OtSKxHjuMhHy2Lh/Pyx/8wLoDAcQ070yXIB+H1q5i+VvP8n8BESTc2ZcWiXaggL3zP+P/nnqdb3ZYiKzTit7Ng7BSSlHmLpZP+YAFa/dzx+gnuLNfQyKPHUjiKiBr1Xd8+K9/8e6c/XhT61K3Z1va2MHtLqUgN5Of5/zCtutb0qK8i9eZw9b57/Ho3W+zIbU5ra5oSjODAa/XQ2FBLvsnTeT7QX25Oa1inj8RERG5cCkgEREREanEIqrVpWHjDkwb9xPvvfgkmVm9aJ+RRFp8KrVSE4kJPXm6k6CIBOq1uoz4Bd8z/vnRFBRdS7f6iaTEpFKrZjLVIk+1qLuIyO8rPbSNeV+/x4vf7sLaug/3jLyLyy5pTUYklJUVsXvrWratLyPq1w7eUgozf+bjz5awN6gBl//jdV4b3oA4rxf37iVMfv4Obn5nLc7aN/HWxOHEnHTELXz60L+p1qwDAx/8J7dd2YEagQUsfGQow9+Yy8QpP3Fvr/pUC4vACDj3z+PtD6axyBFLx8EPcdcdl9M8NQwbh9n5/Te89PKrfD5/Ct/M6kjTBsm0ij+3r8olmdvYVVyE+aJ+jB5+E/07tSDIvJs5E17mvoc/Yuvcr/l2Sx9GNKyYhKR49li+rdeZ6+68gzv79SE12cahdWO55abRzFg6ns9XXkuD6uHEBh6bkOxg2stvEV+vGT1HPMCIQT1pEuth7X9HM+rFL5g3fymbe7enSWJ1PIeW8eX4KXy3y0LdK27nrjsH07lxHEEUkrn0B9579TXenbaYGdO+o3WbOvRI/S1hKjmwlu++/B9vzMkmsmN/bh5xGz07NaNGODid+ezauI49e4yEH1OZM+cQ6777mpUhiXS//Q3eHVmXGAx4PGXs2bWCtXM3Y9NIRxEREakACkhEREREKrGgWp24crgPN28xfsEKvnv8Gz71RVO9fW+uuaI73ds3J6NGNY7NSaxxGbS/+hH+WWjlrZk/sfTFu5lWaCSwaU+GDOhD784tqF+nFspJROTMlJK1fR1zpy0kP7kdN9z6T+4ZUOvoVqs1mPR6bUg/dkibx4lj/y8s32omuHp3bhvekDgAowlzcgt63X4Ntd9+iCUzl7KC4VwKJ4wggYiMdtz+r7e5o3Ntgq0mIIaL+nUh6fMVHDhwkKxSFy7AhpNtU75l9q59GC9+jrtGXE671LBf90Jqt+HcW7CF7fvf4Jdf1rJt1yU0jY/jXAaRGC3hpLYdwMhHnub6lr9e+k+mfedB3Nl9Eg/O38Syn/cyomH6ORzlN+bwugwY8z7P9EsjsHyYSGzDoTw16BNWbp3D3KVbKepSk9jA4wOZ0JQmDH7oBUZd0YHq5W8UzS9uT62J8/ll/2EOFTtwUMahufOYu3Y9Rc1v4fqbh9CrcWz5HkJIaNWPm24+yP79jzFh6zrWbsjkktTk8vVaSti77mcWzFpJaUYPBtz6MLf3+W3Yh90eRu0m7ajd5Pjz8bg9FBXmYzZEEOUt4/BhJ8ERAQSYrKTWaEtqjbYV8ryJiIiIGE/fRERERETOZ3FNO3Pns6/w0SuPM/r6q7i8eRqWndN45fE7ue3p9/l+9SHKTugTkpzBwEdeZPzbz/PYbddydYfmVCtdxbhnR3LNfS/w5Y+ZlPjlbESksvF5DpK9ZxVr1oRSo3YnenepdfpOBhPmwCiiQ8Dt2sv6zYePvOb4fHiLDrFn3TbyDEasSTGnGD1yRJMRb3Jz+zrl4Ui55Ob0u7gbV7SrQ1zQryuG7GPVT5vJO2SmVdN6REWHnbSv1HoNSE5I5PCW7ew8kI3jTz8LxzNH1KJ+qz70aHn8sULCwsio1xBnaRlZBw6d41F+461zPSN7V8d+/BxaNGzaApvNzrZ9WbhcrpP61b5qDMO6djwajgCQUI+LO3ShX8cGJEcHYSaLjWs2k7nbTb06taheLfak/SSkpVGzRgauvZns3LGHAnxHNrgz2bt9LRu2RFOvYQe6dDizObHsoZHUbtWb6r4Cvnx6FI//bwITfpjN/JWb2ZerdycRERGpOBpBIiIiIlIVBMVRo9O13NrpWoYWH2TV7HG899KLTJz2NR8mNqFly8tJPvH+a1soUY17cV3jXgwqK2LL6u/4+NnRvP3dFF5+rSUXdb2F2v45GxGpRAwlTooO5ZATEklSrQZkRPk4ebzHCcyBhKS1p98l4fww41ueeawxYSOaEO/x4N61mK9e+oCNxmp0vqc3zX9nF9USEzAbT7jnL/YS7n/vkhNaZnNwbyFOZ3Vio4OxnzzzIERGkRQURIzhNHVXMQnR0dhsJyyqHtmK655qxXVHH1jN4aw8ivLjSAmLIDj4FDsKDiMmLIw4wwkhTFExhbm5FITF0jC9NjUizuBvA7BEVKf5oCd5NtfMS1MXsezft/NdnhdTkz7cOKgvV1zUnLq10zXSUURERM6ZAhIRERGRSstNYe4BcvJLsYUkEB0WiMUCQUFRtGzdjt2d5jF78VacOYUUH70g5aW0OJesA9kQXI248BBsNrBaA6ldtwX9r+zCpG+/oTQrj3y/npuIVBomMyabFZvbi6u49KQRa6dmwGoLJaN+XZiyBM+8JxgyvhAwYDCEEZHQgHZthvHvu1tWQIE27IEWTKaTR1AcVVaKw+3BZbNiN5v/si/KXq+X0tLSv2jvJyt1OvCe816sWOxWzOY/CDbcbkpdLlxmC1arBcuv7zkWMxabFYvbg6ukjD/4FzhJUGx1rnjkFS4e+CPfTJzAgjmbWFmwirFPfcv74/vx5BP/5oZu8SgjERERkXOhgERERESk0ipg04+f8/nkVZhr9qJDg2TCwwGKyd45j8mL13EoPp1uTdKJ49e7dks4sHUOH772Ifuq9aVnk7rExACUUXx4NTOnLWR3UDRtOzQmhTO701dELnABwYQnJJHoLmDX5vVszL2c1EjrH/fxFJOzYyovvLSYpHoDuGmgiZkzNwImTObGNLp8CKOvaklShRRYjerpEQQG7yH7UB5OpwsCj11hxEXe1m1sOZhDcXwsCZFhBB2z1et04Sp14T62/KLDHDx0kJzSPxM/eCkuzGXH1u1YLKGEhYWcoo0PT2kB+zdsYE+JgYiE2tRNDT9FuzPhZNP6TbhKS0kKD8NsNp2+yynFkZAcTUT0evLy8igqKoWwY4fhuCnat4ttu/dxMKoJcXHRHJ1YLCiUyLh4YhyLydyyhW2H3VSL+BOru1iCCK3fnaH1u3PNw062bfiBcU+O4rXJ3/LUs624pNud1D3LsxIREREBBSQiIiIilZiFEKMF5+bFTPx8Aq8Vl1LiA7BiCQgjMq4WF/e4ir492xB5tI8Rm8GGOWs7076+m08OO3D4AEyYLKGExVajRfsBDB166ZEFk0VETiuYsMgU0urmMm/bN3zxUUcyBrWkWkIwVsDrdeMoLsBR4CMwKYpgwFfiIGfxfObYQrjouru46446PPigHduppr86ZzHUaJhGTPhiZnw1iV71kojpXJvwIDNGXDgOruXrr2aybmMxGVelEhcbeqSb2YLFbMabtYed27ezq6gJEcFmPHnZbPj+S8ZN+Ib5mdDplMd04/E4jqz7YbGC10Vp3m7WL5vD3CW5xFdvQdf29U/q5XU7OLD2a/45+GbG7g6i3dXP8/Ert5B88rIpJ3DiLHXiC7SAwQCl+WTv+JGvpq3FQRyDu7UkNCTwLJ+/CJLS00iIn8z0OVOZ1bQONa5oRnSYDTNunIe3Mnv6LBYsOUBK22RSk6OO6RtOVFwyybWy+GrtN0z8ogUp/ZqSFBeEBfB6XRQXFuJ0QGBCZHkw5aWstIBDmQfxBCYQG3ZkpKPZbKNWRguGDOvDxEnvk707m9yzPCMRERGRXykgEREREam0QqjdqT93mANIGT+NRWv3s88HEElkSmsuHtCLft1akxF5bJ8A4jM6cuOYp4j6fALzF21nqxcgkMDwZrS+8lKu6XcpTZSOiMgZCyC6WkPadu3MhDdmM/H5keTvfYibrqlHjA/KygrZtn41OzeF0+U/w2kPeDwe8guLsDqLWTl5PGNrtqa6MZHExF/3acBgCCa6egIJcWGca25Sr+c19Jy8iq3T3ufpZyAr/0rapUcQQA6bvxnH61+vIiu4O0Mu7UD9muXjRyISqZFajcTQ+Sxa8BmfTgggv34ohYum8sFH05m3w0V48KknePK6DpG5YwHzZ9mpHRWNwXmY/YsnM/bt/zGtuD49rxtBrwYnj9LzFOay4atX+d8mF5DHsslP8NqQW/hPlz8+P2PxcubNnI43LeXIuiz7V/Dti//ktSUOwno8w6AO0YSfbT4C1OjQg+7tlvDzh9/y1otQVHQdPVomEEwBe+Z/w7vjfmAdrRh+UU/aNj42zQkiIb0prTq3ZsoHPzL22XvI2Xs3Q/tmEOUDp/MwW35Zx8HcRLqOuZoWAJSRu3cxHzz7CjuqXUXflo2IiwPwUFq8gR8mf89mawT1Lm5GmkY6ioiIyDlSQCIiIiJSmYVUo86lt1Dn0lvOvI89gvhWA7i11QBu/esqE5ELSED1JnQf9hSP5hp5cepSfnjjVr56yQmAyWQmOCSDxp3v4vLy9uagENI69qFd4CJmLPgXdy0MIiDAi8PhKG9hxGhqzJX33cQNtw+hR/VQzmn99NiLuWnkINYXuZi9/HMeH/oeZR4PYMceEkpUTDNufHQkg7o3IvZop1RaXtqdi9auYtvkmbx+/RRexkpASAQJjXsxoL+FgvXzyTrF4dyH97D005cZ+unL5Y+YMFvDCI+pz0U9BnLbLZccc5zfGExmAqOTiQ9czUGngdCoVKqHnv703GsmM/qaycc8EkhgRCzVal/MqEeuon50KH9iYquTRbak35Cr2Xwol09nzeX/7p7MCy4XYMUaGEpETD0G3nkLNw7vRPIJXYNqdqDv9Y+Tn/8Mb/2wkm9fvJFPnzmyDovJZCU4rAHt+9x99G8DDFh8VqxZO5g68U4+KygpH+loxGgKIjg6jrpNB3DjiL4kIiIiInJuFJCIiIiIiIjIOYuo3ZThz75Jk4smMG78XBZs2w5AUFAULdoNpOeQK2hS3tZnCMAa0ZIObWsxZ2EhtdM70rCOm7Vr15Y38OE8tIsJ/76TSdsC2T92GLEBBgxASEITGjSIJiXchMl45vXFdLmXl+Ka8O3nU/hy/jL25xcAqaS07sSV1/anV8tUYoOO7xPetAc33+sgJmg805ccINMXT912PRk0oh+1S5Yw4Y2DhFSPJviEb9YGcwChkfEkxYWUBxOhhMZ15tLrBnHLkPqnDEcAzKExNLrmER5fksV7O2x0uPrfjDqDdepNgQmk14jGZjSUj6doQL1e1/HQ6M7UD7ef9MU/KLYmGfWySY4NwnaGz2FEq6GMfrIOzZtMZvzMxWzOzgYSSWjQjp6D+tK3Y0NSfmcqsNgmHRn5whu0nDaRzyYt5KddOwEIDU2gVeer6X1ND+odbW0jKrkVNz71AqHjPmX2rE1s9B153BrUjFYDejBsUF9aKR0RERGRCqCARERERERERCqEPTKJNoNG0WbQqD9o5aMsbxc/vnMLT8w9SN1Bb/Hd+/1IOmaqJK/bxfb376bxbW/imPgunzwzlFEZJkwGaPPgtyx68Ozqi2lwCTc8fQk3nHGPCFKb3cjdb9/I3SdtS+GxtledspclsgFdRzzFf5/oTsKfmgLKTHBcS279bPGfGuHna3QP438YRcMgK2eSdzS64b98deZPwlER6S0Z+GBLBp7F8x8UW4OLhj/ARcMfOH1jawiRTfsyomlfRvz5Q4mIiIicsT9xv42IiIiIiIjIuXLjKNrFsnkbsQbZ6XRZRyJc7mO2+3C7i7HXCqU2BowBIQSf0/xQIiIiIiKnphEkIiIiIiIi8rcymi2EhIdQsu4wE15/mDZRg2lbrToAXq+HHdvn8P5DL7AKO7GXDqJrihGj1uIWERERkQqmgERERETkAuDz+XC5XLhcLmw2G2azPgaKiL9YCIuox9UjhvD6pvEULP2YGy9+jzLfby2MdjtBgbFUS+vIk68MI+3o2hoiIiIiIhVH34xFRETkrLncbgqLiigoKPB3KXIaDoeDNWvWsGXLFpo3b06dOnUwGHS58XxXXFyMx+vxdxkiFS8wmpT+z7O2Xjc+fvdtpn+9hlW+IwmJwWQisEVLBvS+g5uGdyK1MkUjJjP2kEjiEmKJCrX99V+4zSHEVq9OjdgQLJXoaRIRERE5XyggERERkbNiMpvZtXsXb739NsFBwf4uR05jz57dzJwxg8zMTFJSUujb70pCQkL8XZacRnZ2Nvn5BRiNWjpQqiBzICENL+f21y7n9tf8XUwFCc7goltf46I/s8L6uUi9nvFbr/+bDiYiIiJS9SggERERkbOS0agJOVkHKCwuprDM39XIH/H5fOzKKSAzMxMAR2kZ23PyibUpIDnvhcXQulczouIT/F2JiIiIiIhIlaOARERERM5KVGw8vQcP93cZcgaKCwuZOeEz5n47CYDYxGpccd0NVKtRy8+ViUiFMxgAL0VFhRw+fNjf1YhUKWVlpf4uQURERCqYAhIRERGRKs5ZUkxe7qGjv1vtdsKjY/xYkYj8VQICA/EZTAwaPAS32+3vckSqlMDAAG5p2gazRZdSREREqgq9q4uIiIhUcaUlDvJzcgAwWywEh0cSHBru56pE5K8QEBjMw/99199liIiIiIhUClrtUURERKSKczocFJSPILHZ7URo9IiIiIiIiIiIAhIRERGRqs5RXER21gEAbPYAwqKj/FyRiIiIiIiIiP8pIBERERGp4kpLSijIzQXAHhhITHyCnysSERERERER8T8FJCIiIiJVnNPhIP/oFFsBhEdF+7kiEREREREREf9TQCIiIiJShbldZRQV5uN0OAAICAwiOj7Rz1WJiIiIiIiI+J8CEhEREZEqrLiokMMHso7+brXbNYJEREREREREBAUkIiIiIlVaqcNB3uEcAIxGI0EhoUREx/q5KhERERERERH/M/u7ABERERH565Q4HOSVL9BuswcQFhWNwWDwc1Ui8lfKPrCf3INZuF1l/i5FpEoJDAklLqk6gUHB/i5FREREKogCEhEREZEqzFnioPDwkQXarQEBhEfH+LkiEfkrFeXn8d4z/8RZkEOQLuKKVKh9e/fS9+bbad+9F1ab3d/liIiISAVQQCIiIiJShZUUFZKbdWQNkoCgICLj4v1ckYj8lcrKyvB5PDwyejRt27TxdzkiVcr9DzyAp6wMr8fr71JERESkgiggEREREanCShwO8nOPrEFiMVsIDAzyc0Ui8tfyYTAYCAsNIzo62t/FiFQpNo0aERERqXK0SLuIiIhIFebzefF4y+90NYBR64+IiIiIiIiIAApIRERERERERERERETkAqSARERERERERERERERELjgKSERERERERERERERE5IKjgERERERERESkUtvLT+OfZ0S7G/l4TQElHn/XIyIiIlI5mP1dgIiIiIiIiIici23MePYNJq5NIMXhwefzdz0iIiIilYNGkIiIiIiIiIhUaqUc3pONwwvKRkRERETOnAISERERERERERERERG54GiKLREREREREZFT2DP3Q94dOw9X82sYNrQNIWu/Y/pHk/h+YxbZUTVo1uc6hvS7iMZhJ3QsyWHvz7MYN/Fbvlu+G4Dg4FjaXnQF/a+/lLrRMScfzFVC4daFfDF+PGNnbwbAbLbRuFkfrr23Py0SEn9r6/PC0le4ePRkvD4fcJjtRWWU+jbw/q29mR5ixmj4rfkl94/lji7JRAVW7PMjIiIiUtkpIBERERERERE5heLsnaxfvoKyiAxmfrOEFR9+wrzluzhY4KTEupJVK7dxaM9d3H1nfxqHl3c6tIHlX77B829N58e9+8nMdQBHwo4Vq1Yya/k8Box8jts7R/92IEc2md//l0efnsCsPXvYlVUIgNFoYtWqjcxbNplL7/2YZy9P+K1P7iYWLJiPx3vspFoF7Fi1iB0nnEf8EAdlWrhdRERE5CQKSERERCoZZ3ExGzZtxWoP8HcpUglsXbuasrJSAByFhaxZtgS3x+3nquR85y4rY/uGdURbDadvLFLlZfLThHdZN9mJOb4+lz7xEN3rhZE9ZxLjPviG76ZPoUGrljS+NBk4xMZlU3nrxU9YVFKdtkP/w9W904nwOSnYuYKp73/IuCnTcPpq06j+/XSMBnBwaO9c/vvY20zZ4aPWFf/kmeENifV5cRVvZeHr/8fzcxaSVfg87Vq8Qu9EwGCAlvcwfcZAfD4fsJI3BzzO1MI0Br/6LFdmBGM7ZkLthLrJROljg4iIiMhJFJCIiIhUIjExMbRp3YqCokIMuVn+Lkcqg6I8DF7vkf/2eKA4T387clpmn5eMpDga16/n71JEzgMFZO86RESXvtx81/0M6NSUpHArzmg3+zf9zNIVu9m6ZS95lyZj27WRH2d8w4zSZFoNe4hnbutFWvVQbHgoK2pFzZgE+NcDfLt2Bj/8fD0du0Xhys9m/bRxjN0Nsf0f47+PDKZ2rQgC8OF1t6VhQi149Ar+s+grvlg4mt5XJQAGiK5D1651ymv0MdVsxEQYNVtdxCXNIwjUt/0KtXfvXg5mZbFq0xa2bViP2WKpsH0f3LuHw/t381KZk+jo6NN3EBGpRDZu3IjD4fB3GSK/Sx+ZREREKpHg4GA6d+pE3Tp1Tt9YBPjhhx+YP3sWDoeDsLBQLunUkd69e/u7LKkETCYTYWEnLqwgcmGKbdWPIbc8xHVdmhIbdOTCuCUpmfSaySQucVBaWoaLYvK2rWPFj2ugelc6de9Fneqh5XswYQ2Oo16rtvTu3IBPPtjH0nk/c6hbZ0w5O1g8ZSH5wbH0ueJamtSKKO9jwGgOJalxa4Zf0Zl/zVvA/Mk/knlVfxLQ6K6/2+eff87KlSvJPnSIDatWVui+vW43HreL3Tt3YDKZKnTfIiL+VlZWRmlpqb/LEPldCkhEREQqEaPRSHh4OOHh4advLAKsX7/+6MUWq9VKfHw8GRkZfq5KRKRyiU9vTOOGv4UjAETUocsNT1CtaxmRNeoQRiG7Du5ixyYLUR1rkJYWetJ+rKGhJKXXpXrZfPIPHcZJCYai7axfWUZAZAYN60ae1MdoNhPXqDkZzGN/5kEcCkf8IjMzk8LCAkocxeAo/kuO4XQ6/5L9ioicL6pVq4alAkfgiVQEBSQiIiIiIiIif8ButWI98YKOJYykOi1JOjqocw+uMielDgtmczB22yl2ZDJhCQgg9GjG4cXrceDIN2CKDiU48OQuPoMBQ1Aw4T7YX2FnJH/W5ZdfztKlS8kuLCIqPhGTqeIu8OUdOkhxTja10mtq5J6IVFkBAQFcdtllREVF+bsUkeMoIBERERERERE5Z4EEBUcSGWuh4PeaOEtx5Gazz2qhSWwUkVgosMYQm/L7F9sNXi/erP1sNxqxVIsn7i+pXU6nVatW1KyZTnp0PE07XITNXnGr3m9atZxdPy/jumsHUbNmzQrbr4jI+cRisZCUlERg4CnuBhDxIwUkIiIiIiIiIucslJDIROKSi1m4bz0rV+6iR6+UY7aXkntgCz9+v4SigEiSalQnkADKApJJyXCR/8smZs3dxJDrah/Tx0uZcx/ff/E9uQYTzYE0gfIAACAASURBVOrWJPjvPi0Bjtz5bLPbCY1LICW9NvYKvMB3ODuLgl3bSE9Pp379+hW2XxERETk9o78LEBEREREREan8LMSn1aZFm/r8P3v3GWdXWe9t/Npteu+TzGTSe+89QEgBhNCLYENAPQdFUc/hHPV41EewHVFBRQGligIivYUeCGlACOk9k2SSTJKZyfS+nxcJIYFIMSETsq/v55MXs9e61/qve/Ji7/2b+/7HrX2RB/54I3c/v4kqAJqo3bKY2XfdwW0vN1CQM5FpJxYBQZKzOzF25lTyKlcw+6YfcsMDq9hFFGintX4ji26/kZ88sZlIZDIXn/XPVhfkU9g9DoLrefDOZ3mttJmWtqP13JIkSZ9criCRJEmSJOkISOw0gMmnXcApC3/EHc/dxbU7V/NI7yySAm00VW1l5cLVVGaP5bKrv8TJJXu3aIqk5DFw+uVcOvs1fvDMg/zfDyuZ80g+KYEorc2VlM5fwNK6Xlzy4+9zXp9/tn6kO2d+egrXLX+Cxfdex3c3P0TXzAihfX8SOeZz13LhmALSE47OPEiSJH1SGJBIkiRJknQkRDLoMmoWl387SvzdD/PsnPn8be4OIImkzL4MPuFcvnHm+Vxw5gBy3x4TSiS9+0QuueY6GgruZ/Yzb3DfbU8AYcJxveg1eQZXfeUiLv3iKDr90xun0uf8/+Z/tmfyxKPzeOnxv/JSa+v+o3Xj/oMzhhuQSJIkvZsBiSRJkiRJh1Aw/HS+9N1ianNH0D/3g88HiGR0Zsj0i/lWt+HMWLmJzZVVQALxKZ0pGdCLgb27kveu9hWhhDSKx57LVfn9OOmUDazZtRMIEYoU0qlvT4YM6ktR6gfcuPMYLvtaKmMnrWP5tu20tr2zx1aviYYjkiRJh2JAIkmSJEnSIWT0GMG0HiM+8rhIUgZdhoyjy5BxH3pMKBJPXu/hTO09nKkf+Y57pXXuz/jO/Rn/L46XJEmKNTZplyRJkiRJkiRJMceARJIkSZIkSZIkxRwDEkmSJEmSJEmSFHMMSCRJkiRJkiRJUswxIJEkSZIkSZIkSTHHgESSJEmSJEmSJMWccEcXIEmSJEk6MsKRCK1tLdz9l7uZM+elji5HOq689dZbTOg1gGAw0NGlSJKkI8SARJIkSZKOE4lJyYyZdgplG9azZPP2ji5HOq50GzGGrn36Eo7EdXQpkiTpCDEgkSRJkqTjRCQununnXNjRZUiSJEmfCPYgkSRJkiRJkiRJMceARJIkSZIkSZIkxRwDEkmSJEmSJEmSFHMMSCRJkiRJkiRJUswxIJEkSZIkSZIkSTHHgESSJEmSJEmSJMUcAxJJkiRJkiRJkhRzDEgkSZIkSZIkSVLMMSCRJEmSJEmSJEkxx4BEkiRJkiRJkiTFHAMSSZIkSZIkSZIUcwxIJEmSJEmSJElSzDEgkSRJkiRJkiRJMceARJIkSZIkSZIkxRwDEkmSJEmSJEmSFHMMSCRJkiRJkiRJUswxIJEkSZIkSZIkSTHHgESSJEmSJEmSJMUcAxJJkiRJkiRJkhRzwh1dgCRJkiTFmkAgQHNjAzu2lHZ0KZI6WOWuclpbWwgEAh1diiRJMceARJIkSZKOokAgQFpaGk211fz1l9d2dDmSOlhdbQ29u3cjOTm5o0uRJCnmGJBIkiRJ0lEUDocZM2YMd95+O01NTR1djqQOFgqFyM3NpaSkpKNLkSQp5hiQSJIkSdJRFgqFGDp0aEeXIUmSJMU0m7RLkiRJkiRJkqSYY0AiSZIkSZIkSZJijgGJJEmSJEmSJEmKOQYkkiRJkiRJkiQp5hiQSJIkSZIkSZKkmGNAIkmSJEmSJEmSYo4BiSRJkiRJkiRJijkGJJIkSZIkSZIkKeYYkEiSJEmSJEmSpJhjQCJJkiRJkiRJkmKOAYkkSZIkSZIkSYo5BiSSJEmSJEmSJCnmGJBIkiRJkiRJkqSYY0AiSZIkSZIkSZJijgGJJEmSJEmSJEmKOQYkkiRJkiRJkiQp5hiQSJIkSZIkSZKkmGNAIkmSJEmSJEmSYo4BiSRJkiRJkiRJijkGJJIkSZIkSZIkKeYYkEiSJEmSJEmSpJhjQCJJkiRJkiRJkmKOAYkkSZIkSZIkSYo5BiSSJEmSJEmSJCnmGJBIkiRJkiRJkqSYY0AiSZIkSZIkSZJijgGJJEmSJEmSJEmKOQYkkiRJkiRJkiQp5hiQSJIkSZIkSZKkmGNAIkmSJEmSJEmSYo4BiSRJkiRJkiRJijnhji5AkiRJR0ZZWRlLliyhqqpq/2uLFi2iqakJgOrqaubNm0cw+M7fyKSnpzNy5Ehyc3OPer2SJEmSJHUkAxJJkqTjRH19Pc8//zyPPvro/tdqamqor68HYPfu3TzwwAM8++yzAITDYcaOHcuECRM6pF5JkiRJkjqSAYkkSdJxoqCggKKiInbs2MHu3bvfc7ypqYmtW7eydetWADp16kSvXr1ISUk52qVKkiRJktTh7EEiSZJ0nEhJSWHcuHGMHz/+A88Nh8P06dOHs88++6AttyRJkiRJihV+GpYkSTqO9O3bl+nTp5Odnf2+5+Xn53PKKafQtWvXo1OYJEmSJEnHGAMSSZKk40hKSgpjx45931Uk4XCYvn37ctZZZ7l6RJIkSZIUs/xELEmSdJzp06cPM2bMICsr65DH8/PzmTFjBt27dz/KlUmSJEmSdOwwIJEkSTrOpKamMnbsWCZMmPCeY+FwmH79+nHmmWe6ekSSJEmSFNP8VCxJknQc6t27NzNnznzPKpKCggKmTZvm6hFJkiRJUswzIJEkSToOpaamMmbMmIN6kYTDYfr378+sWbMIhUIdWJ0kSZIkSR3PgESSJOk41atXL0455RQyMzOBvatHTj75ZHr27NnBlUmSJEmS1PEMSCRJko5TaWlp+3uRhMNhBgwYwOmnn+7qEUmSJEmSgHBHFyBJkqSPT8+ePTn11FPZtGkTU6dOpVevXh1dkiRJkiRJxwQDEkmSYkx7ezs7ysuZPfsZWltbOrocHQWbSkvJzslhd0UFt99xR0eXo6MgMzOT4cOGUVJS0tGlSJIkSdIxy4BEkqQY09zczKKFC7ntL3+hW9+BHV2OjoK2aCtF/QZT3tjGziUrOrocfcyam5up211ONBo1IJEkSZKk92FAIklSjGltbWXzli3Ep2Yy+cxzO7ocSUdYbXU1T//1Lnbt3NnRpUiSJEnSMc2ARJKkGBQIBEhOTaWguGtHlyLpCKuuqiAhOaWjy5AkSZKkY16wowuQJEmSJEmSJEk62gxIJEmSJEmSJElSzDEgkSRJkiRJkiRJMceARJIkSZIkSZIkxRwDEkmSJEmSJEmSFHMMSCRJkiRJkiRJUswxIJEkSZIkSZIkSTEn3NEFSJIkKXY0bV7EGyvLaGxsI7XHWPr1yCMpPtTRZUmSJEmSYpABiSRJko6aqkW3cvNPn2Trznp6XHYb/3X5SQYkkiRJkqQO4RZbkiRJkiRJkiQp5hiQSJIkSZIkSZKkmGNAIkmSJEmSJEmSYo49SCRJ0jEr2lpPfcU2KsrK2VPTSBMQiIsjMacT+QWdyUqOO+j8tuZ6aneWUb59N9X19Ye8ZiQxlbzeIylIa6WlfgdbXl9DRTBCSqf+9CoKsWfdasrLa6glAMEM8rr1obhT4qHra6xkd9kmKrftoaa9nSgQSEkhs3MvirLTiITe+VuU5p2rWbdxB/WNrSQV9qekOOed3hu1W1m3bjNV1Q2EMrpQUlJEZlo8LVWlbNm0mYrqEBnF3cjNiqdl9yZ27KykoSlKJD6LrMKu5BSkkxA5AhPe3kJr7W52lm1mz85a6gCCQcJpGWTndiG3IJP4/Q/fRmPZmyxbvweA1O5j6NUpiUBg3/Gqdby5Ygutre1E8vrRr3sekch7/zYn2rSHHas3sWNXHS1tURKSOpFb0oXMzEQih2pN0lJL9a4yKrftYk9dEy1AMD6BpKx8cvILSU9NJAw0VW5me+kGdlW3EZdeQH6XHuRlHPz/heYaKsvWs35zBcH4dDKKetGtU+reutpbaK0pZ2fZVvbsrqM+uncuIumZZOd2ISc/4525kCRJkiR9IhmQSJKkY1JbzTbKVszn9Ree5PXZc1izfhcVQCgjk9zRp3D6eZcxfVJ/UiN7v5Fva6hk29I5zHn4YeY+v4g127Yd8roZ3YZz5k8f58IRjdRsnc09n7uGl5Nz6HTm/3DNzFpe+cMtvPzyOjYTIhTpx5hL/o2Lv3gqPQoPDkmati9l5YIXmPvkgyx9fjmbmttoBcJduzFg5hc5ffKJDB5SQkpChCCwZ/4f+e0vHmTt5hq6X3IjV3/pU/R8O3jZ+Ax/vfZ3zFm0kfD4K/mPqy9j8rBC6pc/yr2/uonnX4NhF1/KmMHp7HrxHubOe4uyinbSs4Yw5OTPc/KnpzF4UC4JhzHf7S11VG98g6Vzn2Xek4+zfOFGyqIQiESI6z2AMRPOZcbnL2FE/t6a29ta2P7Ed/jOda8D0P+7c/n5Z7sTCu1LSJbewXVX/pmqmiaCs27kju99ipzMg+cwWLWRzXNKee3JW3hp0WZqGqLkd57OmHO/wPTzxtC1MPmgN6stVaVsWTqPRc89yhvPzGft1iqqgXBuHp0GTWLyrIs5YcpoilIj1G2Yy9M3/phHX9xBwuBZnPXv3+Xck7scdL3WHctZcNv/cP2di0nqNpaTrvwlV56ZSntTDVUbXuetV55h/lNPsuL1UrZFIRAXT1LfQYyadB4zL7mQoXmHM+OSJEmSpI5mQCJJko45bTXbWP/8bdzz5zuZu2T3wceqKtn+9LO8ktiLHkP7MzQLom31VK14lqd/92PunVtFcnYXeg7rRnywgeryjWzeXEkgkkRaYQ/6Dx1EfmrgoGtGm+uoXHgft776Mm+sb3/7TrS1LOXVu66mPLUb/3fV8HdWDOzZwLxbr+aXdy2lqbntoGu1btzAmzd9l2VPns2Xf3YNJw4uJvkQKyc+mh2ULryVDXNaqSqt2P/qnoo3eeneG9hDM4nfvoBBWYde6fLBWmksX8YrN17NDY9uOuhItKWFpmWLmVe6ldaS6Yy4sOQwnuNgtQv+zB2P7qCsqZHm6N7Xdmx9mod/vYvm3O9wwRmjKdy/SqiO7S/+mVt/9xcWra06uPqd5ZQ+93eebc+hoHgARUMyyOwzhAHDx/PavIfYXLqJ9ctXsOuEYgrCe3/30bYGyjevZsXiZRBOIqe4N4MGdwdaqN/2Bi/e8C3+8GTpwXPR3ETdkkW8urWcQMlUhp5TfMTmQpIkSZJ09BmQSJKkY0wDOxfczwN/uou5b+0mEJdBem4ncnJTiQ9HobWZxpoAGSnv7CkVqNvEuoVP8cKcMhLyRzDkov/lCxePoiC0iUUP/5Ibr7uP6oROdD/lu3z7P07g3TFCtKWeutUv8WYoQnrJIIpyIrTX72DTys00tLWx6bm5bLtqGF3Z++V67YvX8cu7ltHU3EYwuYhOXQpISwoSCDRTt3U1W8obaN34AA/dPYXenXPoUZB82LOye3U5gbgMsooHkJWdQrhpJzvLtrJ7z3pWLJjN/GeH0/u8wf/atk/t1ewpm8+rj20mEIwjLrOYkq7ZRAJANEq0sYGG1lbiAh94pY9kW+kmgokF5PUsJCM1jvY9m9iydSf1ja/z3P3PMKJfd3KHdtr7hrVlNcvmvEnZuiqIzyavqBPZGYkEA0BrK021VcSlJxPZF7QEkovo3Lsv3UqeYuPqTWxf/RYbd5xIQee9gUu0Zj2bFj/H60tbiMvtT8nIWQzrBrRXUVE6n4VPb4FQAklZRRR1ySISgEB7lLbGepoCcRyJHc0kSZIkSR3LgESSJB1Too1rWPbqfFYv200gLp2cgacx7dOXMePk/uSnAvXb2frmQtbVpJK8bzVAoL6e2spKyqNQUFTIyBNGU5wJkEfPwZMZV3w/j66pYdeiZWxgCv157zf9gXAcGb3HMePrN/C5E9OpX3cP15393yysbye6eg1bmwJ0jQfYw8LZs2lvawOSyD3hm3z5qnMY0jWeSGgH6+75Jr+8/iU27G5i80OP8tbnJtA57/ADkkBcBrlDzmTGJV9kxgm9SSp7lAdu/DkPPL6K+o2b2bJiLWWtg+gW/ugpRrSlmZaKnVRE2wnEpZIx6Gwu+e9ZdM0sICM9icDWjSx/63k2xR/ZLaWCifkUTfkSF152AWMHZNHy+vVc/6M/8drKnTQvXsLqbbvoP7gT2UFor66kqr6OxiiEMvox8qLPMf3kkXTKzia5rZFdqxewYkeYnOS3G5ekkNejP90HdGf+mmXs2LqS9St2MLJzMWFaqd22mY1Ll1AeTSC3sCv9x/QnLRAg2tREU8UuKtvbCSZmkDPsfD7zrdPomlVAemoc0S0bWLHsVcqS7EAiSZIkSZ90BiSSJOmY0r5pHeu2lrK1PUpc0QSmfuZSzjmjP/sjhqQCOo87nc4HjIkGQ4TDEeKA1qYmqiv30NiSTlyghfqaSvY0QiAcIi4tmaRD3jVEYlpvJn79Bj43NR9oI65oIiecOoo9q1sIhuNoqQQKgOa5vPFMC9G2KMGk0Zx75RkM7hbP3l208ulx0deZdM9yyqvKqGlbR/m2Rpr6RA97XiJdTuTUz3+B02f23jsXvQczcNBwXp+9muXNVdTVV1BbA2R+9GsHAhEiSdlk5yawfududrz6G37yn3MYN+kcJp04hOxQCp3GXUC/rNTDfo6DnmngZ7ji2xcwuGs2cQBjpzG6+Ck2rN3FjtYd7Kmoo6kpCokBAuE00rLSSEgKU7HjZZ66eS0rX5/G5Kkn07d7MVnZAxneL4vkA4KLxB6DGDhyAr2fXs5bpZvZsGw5FScUkRuspmLLKta+tY1gXHc695zOyJH7Ji4QR1xyNpk5iWzYtZ0tc67npxUvMn7yOYyfNJCcSCpF48+lf2bKEZ0LSZIkSdLRZ0AiSZKOKbXVldTXVAOQ2aWI4uLOfOD6i9Qssoq60y35ZdZuXMec+/5GHmMpCG/i9acfYc7mKAmdCuk6fcz+bbIOlkxC8smMn5q37+cQ4cReTP3pw0x915nRbVvYHm2nHYj2mkDfTmFCB7UYySenawKhdUDbNqqrWmhvPfy9qbK6d6FTUeEBc5FKclYmqblB2HqYF4/LJmfQmZxz+TJ23fM6lRU7qXpjHs++MY9nfxNHfMpgJlx6ESeddQqDu+wLM46AoiEDKUhJOeB6OWQWpRCXHIA9B58bSB/JpHPOoqyukbkL11NRsZv1j9/J+sfvBPIpGX0yJ1x8DuMnDKUoM5m960gKye/Rn5IhaSyeW8q21UtYX34SOUllbFuzmLXbAiT2KKb75CEU7/t/EYjPo9OwszjrC6uouH8xlbt3sWfRKzy96BWe/mUCSRlDGX/pRUw9fTqDumT5ZlqSJEmSPsH8TCdJko4poVCYYHjv19ttTc00NzfTBoTeb1BiIXk9x9O391OsXbKJ0tk/4mePNQMhQuEkUnN60W3oNE6a2vew64vGxREX2LsiJNBYTUNzFKLwTu7STEtTG9EoQHey8+KJxEVpPuAaLa2ttLe/3Qy+hfqaWlqamz5aHW3NNDc10dQCECYUDBN630l6f5GMEoZ+9pf8dPwcnn3oAZ5+aTXNjTXUVe6mqnoRz/1uOQsXbOfHf/wmvZPfG/i0NDXTztu/p2aqK6toa/9oK2eirQ00NrbQ1hoA4oiEQxyYPaUO+zRf7D6WCS8/ymOPvsia9dtorK1iT2UFmxbczV0b17Lzy9/koosmk7uvYUp2cQ+69R9G0qIX2Ll1BRtWbqNv4d7ttXYEs+ndYyyjJ/Q8eC5yejHq0uvpOeFFnnnoQZ59ZQ3NTdXUV1RQVTWPZ29cyZLXyvnejV+lV9IRbswiSZIkSTpqgh98iiRJ0tGTkpVLWvrev8yvXLeC5W+8xuaKGlra9h6PtjfTXFtJ9Z5qGt5+rXkrO9a9xKo3t5GWXUyfERMo6tabkl5D6TX6AmZ+44d8+ftfZ0T24X+ZHSzsQXFCmGAA2lfNZu7inVQ3tO8LRFpo3L2EjWvqaGkG4pNJiIQgAOFwHIF9ty/buo36hgbaaaFh13JefuwZtmza8aFriLY101C2lNVvLWVLeSuEs0jNyCM97V98qGgLrfW7qdjVSLDryZx+zc3c8PCT/OCmn3DheRNITwhAaz3Ny/7MC4vfGRaJvLOd1Zp162mJRoFmarfO4+G7n6Rlb3rz4UpobaB69RzeXFZGVX0bgbgisnNTSdgXQETb6qjbVc6etly6zbiSq3//d35x71+4+rtfYvSwLiSGA7SVz2ftmwtZX3bAdQv60X/UBMZ0iad28ybWLnqepauWsXLpduJyiug8ZDTdMw6ei5a63VRWtBDpNZOzvnsrNzz8ON+/8VrOPWsc6QkBos1V1K64izlLDEckSZIk6ZPMFSSSJOnYklVIUV4eefEBysrn89ztVVRX7uBTp0ykMC1AtG4bm19bQGm0mL6zzmNoVoCG0vWsXvASK9uTKc4bxbjzPkOfztlkZO29ZCAYJNi+k9rGLFISDvftT1d6jcsk8Ew5tK3kof+7hdyvXcDwHglEgmWs/PNPeHHXbuqjURKHnsSAknSSIwHCnbqQnJBEgBoCm9ewZu0qUkMhVt1yHX9/fAFba9rf967tdVVUbF3PlqRUqNnMm0/eyZMvLGAXENc5l5yuhaQdtJLlw4s276Z80T3c/6cd5J59BgMG5pJFAMJdGDD9LCbPeZ5HVgOBeML7msAHgkFySvoQz6s0AcGVb/DW+p50Cm/nxWsu5d7FdTS3vf8KktY929m+aR1UxxHdtYzZt9/CvPVbqY9CQr9u5GemkrDvEtGq+cz5/TOUBnvSbepwuuYlk0iA7D4TGT9qBTvXbmTFrgCBUJhg8MBJSCGnSy+69u/CnIeXsu6JG9k5L5vVW4MUj+/LqKljSQu8c360aQdlc//KQ/dWUXjmafTtl0MmAUIJ3Rg07XS2zn2ZJ9a2AfFEwv/ihEuSJEmSjgkGJJIk6diSNpSBk6cwZOkb7Hq9gubyVcy/5Rrm33LgSfn0n/Vl+s7a+1MwFCESF0+YPWxeeh83X33fQZcMJieTNvoEZpz/VWaN7UdWWsJhFFjESZ//LHcu+j3bK2qJrvwDN//bH95zVlxaPiedfzol2RmEgWinErqnJrEuEKBm4wPceuUD3Lrv3HBCIkmRVppb/vmKi/JXbuemV25/z+uhhFR6jx7DiLHDSD2M7+pbGypZOefPPD7nz4c8HggkkJA+mm5d3v45QLCkD/3jArzRHKV9+Q18/5Qb9p8fl5xCUkM9De3/PPjZdN81fPe+974el5LDuFNPpndJEQf+pqq2vcYLT93KA3869PXCcd3Jy+tC5rsa1Sd27k63fkMofmotG0pL2V5aSjCuDwVdJtGj53uv01y3kxXP3cbjz9186LkIJpGUNoKuxYYjkiRJkvRJ5hZbkiTpmFMw6XxOu+gLTOxXSFpqCpEDmmsEQxESUlJJSU0mft87mYT8TnTpP4zi8KG/sG6vq6Pq+cd44Dv/zs//9NpB/UD+JaO/xTcvmU5hQQ5J8fEEDliBEIkkkZ6bz7Cv/IELT+xC1r5+HYGc4Qwb24fCghRC+7q6B8IR4tNz6DdjGlO6diHvQ3/fHiIYl0JSZj49p32RT33684zs8q8/TiAQIhifRnp2GimJcUTeOUIgkEB8QiqZRV0Ze/4XObHw7UMhgkUnMOXEYlKT32mzHoiLIzGngBEXncvk+Hgi73qmUFwKyWkpxCckHDRvEEc4IZW0nEIGfuY6zj1tFMVZB9QYTCQhNZ2U9CQSIwf2JgkRCiWRmJpN9/EnM2niaHqmvuv5knvTY8QUho14u8V9kKz+vRnyqSmUvHsFSCBEKCGNtPeZi5wuvRh33meZlP8hJ1iSJEmSdExyBYkkSToGZdDzjG/zlWHTWfzYQ8yePZcN27cDkJ7Ti0EnXcDEM6bSLyMAtNMaSiE5u4jOnYJs2h4hOTWThLe/2Y6209pUQ92eeporqtn54gJWfXU8g0IBguFk0gs7kRtNIi0njbh/Ws97Dfza77lu7L3Mvutpnn1zMa2trQB07XMKM75+CSP79yIhfOAV8xl19c9oL/wd9/3tWXbsrCXUtTsDz/wK50/NZv2vf8vm2kbCWal7+5a8SyghleTkJOIjQaCQrL7jGH/OLCZNGEKn9H9ljg8Ql0veyM9zxY+TeeOlF3jjuVVsBCCBcNxA+g4fwOhPn8+JIzofMChIKNKVGTfeB//3fe5+aAlEowQHDGLiJd/ns+PL+cerr5JbUUMwI3H/tlfZIy7i/K914tUXVrBq8VKaGur3Xa8HRRNP4KRzz2XMoALSEg4OLgKZ4zjxsiidBzzKa0/PZ9nGCqqiUaAzOQV9GTxzKpNPmUiPokM3Ysku6ExRjwEwdx6BcB55RUPp3SfzPecF4gspGvdFLv9hOotfeIHXX17L5ihAEnEJA+gzajBjLziHycM6HdaUS5IkSZI6XiAajb7/5tCSJOm4Ultby5133cWzCxdz+Xd+2NHlHL5oFZueu4u7f3Qtc7YG6DzmLC743o1M67PvcFMZZc/cxC3fvJlXW5LJ738WX7z150zO69iyP4w9c3/HTb+6iedf20HB9Ku49N//nckDDzcNiT3Rtiaa17/EY7f8kj/ev5jE3idx6lf+h8vP6NPRpX0sqqsquP+mG5k6cjBXXHFFR5cjSZIkSccsV5BIkqRPtGjdDnZuWMaGzW0EMvpTOPAUhvZsA0JAO0RSCBb0Jr0LBDYkkZDSg/y847G5dhttjQ001DfS+qHHBAiFE0hISSZynG282t7aSHNDA40tbdRvW8Crd/yGR/7+BoFwIT36TWTMxN4dXaIkSZIkqYMZkEiSpE+2QJBgKI5gOEh71TbKF77A8oW9Gd4vD2igdvsrPP333/PkeojPz6dopQKJIAAAIABJREFUxlj6HHfhCMBWlt93I7f/8HaW/vO+6O+SRqfBZ/P53/+UyQUfZ21HX93yR7j3xp9y37Ob978WCIbJGTGRieefx+Cs4/H/gCRJkiTpozAgkSRJn2iB5F6UjDib8ZPeYvvcNWxZchc/ufgO3t5DNBAI7G3sntuXvjO/zlc+P6RD61UHCAQIhSMk9ZnG2Iu/ygljszu6IkmSJEnSMcCARJIkfeJlD57Cedf+kf6P38NL9z/Phk3r9zXWhpTUAgZOvoQpnz6H8UMKO7bQjygaChFJSCA+MZH4uAjhwPuteggQDMcRSUgi/kO3mEsgLiFC8DhcTBEIhgnF7Z27UE4uRdMv5NzzP8/knoYjkiRJkqS9bNIuSVKMOe6atEs6iE3aJUmSJOnDOc7acUqSJEmSJEmSJH0wAxJJkiRJkiRJkhRzDEgkSZIkSZIkSVLMMSCRJEmSJEmSJEkxx4BEkiRJkiRJkiTFHAMSSZIkSZIkSZIUcwxIJEmSJEmSJElSzDEgkSRJkiRJkiRJMceARJIkSZIkSZIkxRwDEkmSJEmSJEmSFHMMSCRJkiRJkiRJUswxIJEkSZIkSZIkSTHHgESSJEmSJEmSJMUcAxJJkiRJkiRJkhRzDEgkSZIkSZIkSVLMMSCRJEmSJEmSJEkxx4BEkiRJkiRJkiTFHAMSSZIkSZIkSZIUcwxIJEmSJEmSJElSzDEgkSRJkiRJkiRJMceARJIkSZIkSZIkxRwDEkmSJEmSJEmSFHMMSCRJkiRJkiRJUswxIJEkSZIkSZIkSTHHgESSJEmSJEmSJMUcAxJJkiRJkiRJkhRzwh1dgCRJOv411tez4Pmn2VFaSjvtHV2OdNR17zeQ4ZNOJBQKdXQpkiRJkqR9DEgkSdLHrnLXDpbNe4VuBbl0Li7q6HKko2pL6WZeefxhhoybaEAiSZIkSccQAxJJkvSxa2xogGgbUyZNYuzYMR1djnRUvfrqq8z/9W+IRl09JUmSJEnHEgMSSZJ0VITDYbKysygoKOjoUqSjKisrCwh0dBmSJEmSpHexSbskSZIkSZIkSYo5BiSSJEmSJEmSJCnmuMWWJEmS3ldLfRVv/f3/uOO1mgNeDRIKT+TyX5xN3w95nXWP3c6dLy8jpc9kZp15It0ykn0zKkmSJEnqMH4mlSRJ0vtqa6pjxVPX8uu7D2wyHiaS0ML0DxuQVCzk3t/+hhufW0KwZC0p/YZw0Yhk0n03KkmSJEnqIH4klSRJ0vsKJ6Yz7KJf85NBdRBtpXnbK9xy42y2fZSLhBJJTIgjEAgQjo8jEg4SIIrNyyVJkiRJHcWARJIkSe8rnJBC/9OupP9pQFsDtUvCPHbDRwxI0gdyztevITxxNUndRjG1dxZJYcMRSZIkSVLHMSCRJEnSUVE8eRZXTu7oKiRJkiRJ2suARJIkxY7WRmq3ruC1+QtYvXI7ZVGIRBIo6TaSAeNGMrRr+rsGRGlv28W6xx/llcWlbNrXgiO+uIiBE85gZq8cwsFDrYLYQ+mLs5m3cA3r6ltojkaJK8in56iTmdqvK1mJR/AtWGMl29Ys4aWFb7JycyUAKSm59Bs6khFj+pOfkvLOuc2VbFn6Ck/O2U7W2Gmc0q+dFa/MZ+HCVWyPxpOQ3oO+U8dywqBi3j0T/6qNz/yR+xdup645esCrA/nUl6cxMD+N+HcPqFnJ7AeeY3VkADNP6ktSzQZee2Ehq7ZVUhvNJm/QEMZNHES/vPT3jqWBitWLWTxnAUu37qEyGiU1NZ/+IyYxYuQAcpOP0ENJkiRJko4LBiSSJCk2NFay8/XHuPu2B3h07qssX76dbW8HJN0nMf70K/nRz8+gy/4B7bQ2r+ap//sjf3vg77z4eiml+wKSSJdiBk/eTfpPr2J8YTyhgzKSUubccgf33fM3np23mrUNzTRHIZKfT69x62j7ztc5dUhn0iJH4Jkq17HsmYf4y98f48FXF7O8tAKAlJQ8BgwfzUnnncPpp57HuO77koGWSkoXPcQfrl9E3gXthHJf57a/v8S8+SvYHo0jPr03/RefytYvXsm/TSo+AgXC+tnX87PfrmFnXdsBr55P7llj6HWogKR6JU/edgMPJ55GoPxVdq98mUcemcfybbupi2aTPWQE0y+5jKvPn8HILmkHDNzN2jmzeejWO3j0mbks3lpNFVFSUwsYNOpTnH3ZZZw7awwlSUfksSRJkiRJxwEDEkmSdPxrraF82dPccu213PxCGfFDpnDSl/tRnB6gra2FXeU7qFmxhvWwPyBpb22mfN5t/OD7v2XZoLP4zH9cROa+huKVletZv/BVFuy6klH5EAq9c6vqt/7Or679FS8kjmLapdM5LTlCKBCgunorm95ax8qyKiYNOBIBSSUb5j7ELb+4nn9sSqbL2HP42kVZJAWaqCldxfyXX+GGn5WzrbaQgq/OoNsBqydaa7ax4unb+XVtKbu7nMQ5/3EGifW7WT//ER68725ubh7MrEkX0/lwSwS6nvgVvpawbwXJnqU8/NfnWFP5weOa1s/hLzdtozrcla7TL2JSfjKtG+fx1Esvc//vMhnavS+9uwxib0TSQNkbz/CXX/2CO+c3kTP2Aj7bM5OkQBN7Nizn1Zef5ne/CxHJK+CyqSWYkUiSJEmSwIBEkiTFgIaKzcx7+I/8/oWdpE6+hP+66jImjRlK1wxoa2umvGwtG5fWkXfAmPaWJlY/dh+vBUKMv/gH/L+re5OzLyDZvXsVq15aTjQ/Qih48L02PvMki6prKD7nq/zHf57M4Jw4wsCePRtZu2A5Td3zSTkC78Aaty3hySce5fHNqQw46wq+8ZVPM25wHsk0UrV+CY/96ff86o5HmPvMw7x06kS6DX4nIWmq2kFpM6RN/Szf/caVTJ/SheSaUhb+rYmlX3qUXYsXsbjmYjqnHn6d3Wd+je/O3PfDptspnb2AjVUfPK5u9UIWlozlC5dcxZc+P53+Ram0rP4bSd+q5ObH1rJq4zZ2NA0iLR5o2MyiRx/hiUW15M+8gqu/8RlmDsgliQYq18zjbzdczw0PPc/jDw5l3JAvMyrn8J9LkiRJkvTJF/zgUyRJkj7JGqjcsoznH3yNuvyhnHbFt/jMjL3hCEAoFEdhcX/GnTKKHu8a2draQqC9ncC6t1i6qZq3v9fPzu7D+LPOYkJ+hMi7WpC0tbYSjUKgdBWrN+xkV3MbrUB6eldGTDuV8T1ySD/s1SONlL3xGgsWvkVN34mcdsGnOXlwHnsjkAQyuo/mUxecyznj0tm+eRWvL1pP3QGjQ/HZFI86m8u/fiXnTelCOhBOzaJk9FQm5kZpb91F5YdY5fFximQNZPolX+MrX5jGsKJU4oGU3iMZ3a8HxYl11NTW09C499zGzSt4c/lKduWM4vTTP7UvHAFIJLPXWGaeMZNJnXayZsV83ljX0HEPJUmSJEk6priCRJIkHd9a91C5bQlvrkmi8wlTOOOErh9qWDCSQJ9pX2Pmk9fzxB/+i+9G32Jq/xwKCwYyduQwBpekEwy8t0F7yeTPMuPJ7fz1oRv4WWAjC0Z2o1tRH4YPHsrQHrkkxx+Jt1+72bJ+HZvWtdH1tK5075b3njPS8wvo0acfCS+Us2VTGdUM5O01JKGkfLoPmc6ZJxzYZyRMOC6LnIII1B+BEg9TuGAcZ0wbTc/OB/YZSSUtI4XElNBB5+7esI51mzdS0ZTGsjn/4NbSgzfRaty6hM2NIeqDjdTU1ACJH/8DSJIkSZKOeQYkkiTp+NbSQlNlJVXxySR36UO3jCjw3mDj3YLheDpN/Ro/vqadosdfYOkLf+CPN+1gd7eJzJp5MiefNJlpJ06ma2aI4AGXyxrzOa75ehu5PZ5kwWuP8MBDW9iZPZDxJ57EjKlTmHbiFPp0TiPhsN6F1VG3p4baqjTSk7JJTT7EKfGJpKZmkBcoP5wbfSLU1tRSX1dDxbLnuXPZ89z5T84rGH9Uy5IkSZIkHeMMSCRJ0vEtFCaSkkJySxv1FTXUfohwZP/QSBxDLvkWv582k+dmP8nrc9fxetUW3vrHj3n4qdlc/o3r+d4Xh5OXEDroqj1Ov5Rrx09i/pxnWPTyCl7bXsqS+X/m/738LK9t+D7XfHkaAwqTD+ONWALxSYkkJIX++SktzTQ01FMTFyExOZGkj/DcnzQJiYnExyeSWtyHEcOH0Ts/4ZDnpfcYxZAiW7RLkiRJkvYyIJEkSce3uCSS84rpklDLK2sWsWjDhfTt9hG+JA8ECRQMZupnBjP1M1BevpSnf13Pf/9iDn/85T849+KBZCckvvdNVXYvxpzZizFnQkXFWubc+UOu+/mDPHLrI5w0cyjdCpNJO9T9PpRscvILyO3UwrryMrZt3wM56Qccb6GqbBMrl66iIq2I/KJ80v/ptT75cvJyyczJITF5Ehd/43tcNqWgo0uSJEmSJH0C2KRdkiQd55JIy+hG32FRdm59nDtv/BtzlpTvb1re3t5Kxe7NrHpjLTv2j4nS1lrJ8vlPM39lGTU171wtL6+Ek2aMJCMUIlDTQANRovuP1rL2jedZsHQDuypaaW/f+2pWViHjJw2jU1YqwfpGmlrbaT+sZ0omv2dPevYMU/baUzx03+Ms2VhNEwAt1JWv5MUnHueRl3ZSWNCbwQOP78AguagLXQs7E79pCQtefo7X1u2iuuntoy00125j05tvsnTpeqo6slBJkiRJ0jHFFSSSJOk4FyGtYACTzzyPB1few4u3fIfaLRu5YFZvsqPQ1tZEWekaNq/sxHl3fZV8ANppbdzEk7/6Fk/Fn8rMIYPI298HvZy3nn6clS2ZlJw2hV5xEd7Z6Go3L//5R/yjsj8j+g2npHM84TBABWvmPciCHZA1cQy98jI43I2e8geMZ/q0U5i3+A4ev+1XNFZt5eTRhaTQQMWq+Tx+/zOsjhvBRaedx4mDD2f9SBvN9aW8/sg81rW2Q7SFptLF7A5Eibat4rm7/8KufRFRwfDTObFPKsH9TVl28ObDL7OqtomWaBR2vcqGmiZaKWXhYw8S91YmiUB230mM7deZjPfbMuz9FPZjygknsOCVm3nqTz9j++Y1TBnWk4IUgHoadq3nrZfLifSbyucHdifjMGZDkiRJknT8MCCRJEnHvbisEkae/Z/8754wv/rHc6x+6jdcde/etQShUISc/EEMmXTlvnAEIEAwmEb33DzKH7uFa+/Yza79y0SyyelWzOiTL+OSL82kS1zkgCW5SXTP60z9iw/y+3tvYldzG60AZJDRuTM9B57NWZfOYnCnLOIO96GSezD2tAv53O5qbn5gHs/f+r/c/5s6IJH4tDyKew7lwks+y+WXTqbLYd2ombqKOfz2os9xV/Rdh9pn87NLZu//cdwvlvFcr74k7A9IlnLP167gd6WV1EQPHDyP2/57Hrft+2nQ1+/lrm+f/q8HJBQyYtbFXFHbQuC2B1l4/8949o/11EcBEklIz6e452TOnVJiOCJJkiRJ2s+ARJIkxYTkwhJmXvUDeo6ZyGNPzGf+plIA4uKS6DtwGpNmzaDf/rODRBJK+NS3ryPc7yHmP7+Klfu/3+9D76njOPP0mQzvFCJ0UO/zXCZf8V98p9tAXp39FsvqmvZte1VC19GjmXHadMb2zCDlsNORfc/UcxIX/Hsn+gx4jsdfXMzqneXsDWOGMHbmFE4eO4iSAxePhJPI7j6SaaenkDqk87tWsYSITytk8LRZnNo0mJL9B4NEEksYe+H5NLa8/8Zg/XulEQocOCF5DD7tTGbtrKbx3eHKAboPLiIjYV/MlNiJIVNmUrunH91y393IPp78vqOYenoOmf07kR454FBKb066+KsU9RnIC0+9zOK1O9kJQCZZxUMZO/MEpo7pT9H7PoEkSZIkKZYEotHo+3xclSRJx5va2lruvOsunl24mMu/88Ojcs8Nq5bzzD238bXLv8jkSZOOyj2lY8WLL77INd//Af/1uz8Rn3C4m6t9sOqqCu6/6UamjhzMFVdc8bHfT5IkSZI+qWzSLkmSJEmSJEmSYo5bbEmSJHWIPZS+vpz15Xto+NALepPI69aTnj06H7y9lCRJkiRJ+sgMSCRJkjrEKh754VX84pFFbGz/sAFJV07/5g/53nc+w6jMj7U4SZIkSZKOewYkkiRJHSKd4sGjGV+XSvf3731+gAIG9yogzXdwkiRJkiQdNj9eS5IkdYg+nPHDGzmjo8uQJEmSJClG2aRdkiRJkiRJkiTFHFeQSJKko6KlpZWdO3eyZcuWji5FOqp27doF0Q/bZ0aSJEmSdLQYkEiSpI9dfEIC7QR49Iknee31xR1djnRUlW3fRkZuHoGAi7clSZIk6VhiQCJJkj52nUq6M+mMs9m2cQO1bW0dXY50VKV1TWXC6LGEI5GOLkWSJEmSdAADEkmSdFQMGTOBIWMmdHQZkiRJkiRJgE3aJUmSJEmSJElSDDIgkSRJkiRJkiRJMceARJIkSZIkSZIkxRx7kEiSpI9dW1sbNVUVtDQ1dXQpUoeIT0oiNT2TQCDQ0aVIkiRJkvYxIJEkSR+7XTu28dvvXcPG5UuIRHz7odjS1NTEsIlT+Oq1vyQuPqGjy5EkSZIk7eM3FJIk6WNXX1NNcXEnfv7D7zF50qSOLkc6ql588UWu+f4PiEbbO7oUSZIkSdIB7EEiSZIkSZIkSZJijgGJJEmSJEmSJEmKOQYkkiRJkiRJkiQp5tiDRJIk6TgXjUZpb2ultbWN9mh036sBAsEQkbgIocAhR9He1kZraxtt7Qf0zggEiYuPP2hMW0sjza3Rd40PEZcQIRQ45MUP0t7aQnNrG4FgiHA4TCj4wWMkSZIkSTpcriCRJEk6nkWjVJet4LHr/5NPDR1KUlLSvn+FDDnxWzxUdshBNFXvYv7d1/LZceMOGJNBbuFZ3LzhgDPb23j6ykRSkpMOOC+JpKQruH9XHU0fWF87837xVUZ1y2fE2d/g4ZWl1L07a5EkSZIk6WPgChJJkqTjWO2qZ/nzdf/ON+5YTSAQJBh8++9jggQCAQ61wKN59yae/8XZnPKTNwgEAgeNCQYDvHtIIBAhGGyDKECUaHuUD51xbL2fO+9/ms3ba9jz+Is8c97nGNG1hOSkf+FhJUmSJEn6CFxBIkmSdNzayso3n+Gxu9eSO2QCVz00n9KWZlpaWmhp2cnyOddzZqd3j6lh946nuO1nb5CU25kzb3mGtfvH1FG181Gu6P7O2YFgiBm/b6SpuWXvOatuYGpqHJEPW2LReXz2vBkUF6bS/7QTmD4qjxzDEUmSJEnSUeAKEkmSpONVTQ2VW8vYkT2Esadew7dOG06nYPA9K0AO0txEQ+km1icUUHTCj/jF50+k6yFWjRwoEAi+sxIlECDwkbbICjDmWzfy+tW/hkCQUCjkX/BIkiRJko4KP39KkiQdr6qrKd9exprUVPK6dP7gcASgqZH6TWt5My5Ceu9udPuAcORICIZCRCJxRMJhgh+iqbskSZIkSUeCAYkkSTq+1JWzYfbv+P45oxiVlkZaWhpFRX349Bd+xj8WHqojeQsNu+Zz/6VTOGHf+RnZ2XQ+/UyueX7DIc5/20aev2YWp+dmkr1vXM6UyVx2/wJ2/f/27jy8qupQ//h75ilzAgmEGWRUwaII2uJQR5y12mqr1+pVb221amsdeltrbdXWOrQ/vQ6tSqvVOuBUpzpUnLCCzCKDoMxDQiCQ5MzD7w9Y253DCYKQnCTn+3mePHDO2WvvtdbePE9Y71lrhRN7t00bF+v9ydfrpEOGqWT7tUaOnKgb7vq7lm5q2EnBjDLKKC2HnI7dCDq27yGyW2V2039+f4LGDKy02rPt59u6/d9LtClXgbo3ddv3jtCBJ1ynJ6fN1aK3H9S1x4/XsNISlZTsp/2+fZP+b9Zn2pxz95OtWv3eZP3h+NEaU7rtWoMGHaDLr/+r5ta1UwMBAAAAAJ0eS2wBAIDuY8McvfvAjbrytte0IBpTPJFSWlJzc4uefuxeLV7pU983f6wDrQLNqls2RdcdfJn+0RRRPJ5UcvsnW199TffOuEJD//OcLhiQHRP8W9cNPEf3r29QcyyphBmTf3+aHvnoJxrw0j/0o0NqVebdC21a/Izuu/H3uv35OVoeSyiZSm97e/E0/f76mXpq6sX62TW/1PkTyiWt0geT/59+c/WDmpZMS+mU4rGoEomM/nblRD11rcs6ra92tI77wR2a/MOBWjHj7/rfSTfoxWRayqSVSkSUiKQ08w8nqfzuL8o4/aUacOFkzfzN4XvcrGQsrJaWJjU12cOkiOKptNK5CqRTikVaFI6s0tQ7f6EHZ72td1a2KJZMKaNPtPDZm/Xz9auVuf4a/fBY2yYpWqn3/nKXfnP1/XqnOaZY0jwT8/TAHb/QzCWr9at7fq6jq/e4SQAAAACALoYZJAAAoHtoXqZ3n71fV976klaUDdCp103Wvz6uV319vVasWKSXnrxR5x9ebQUgkpTYvEkfP/qAnkiE1O/Sp/VhfZ3q6+u1fv1avf/vB3TtKf0UTe84h2L5X+7Q/es3qunUB/Tq8rXaUL/tOrNmTNGtF45RcdCdcx7D7luk5yY/rgefm6XUqG/rpn9M16cb61Vfv0T/eeSXOnlYhZa8/IKeeGyKPtwkSWkl4xE1b25UY2OjGrc2KRxLKJNOKhZp2vbe9p/NjU1qiSUlZZROxtW8afO2z7ZsVVM4IWXSSkZbl9myZYs2R1J7pWXjf/Kcpi9ap/r6etXPfVAXjB2gkl0ot/n9KZr8wqv6rOZM3fTUR/p0Y70Wv/g7fe+Qcm2ZNl8zP/pUX8z72aKPn3tc9975F02r/rrO/NNULaivU33955r36t265GC/Zr73gh64/3Vt2Et3DAAAAADQdTCDBAAAdAt1Sz7RGy8+oUVVB+jkH92qey+doJDfL7dLymQqVFPdV4ceJXlsZWLRqD5fMlPOYB+dcPwkjanybP/2SEaVlWdq9OiT5QjteK1l82comsroWyeeqLE1PVS6faZIefnxGv7bI5XxhxTYC79lNbz7hv754XQt3vds/fr6n+mi44cr6HPJoQqVn/FTXe9yyfG7W/Th4lmat2izDj6kj8afe7OePeXnimckrZ+lKQ/coqteSelbl/5at5+7r3Vuh8sjX7BEkkt9D7xED6/9ru7NZKTmdVr0zC911C2ztf/5d+vla8Z/USGHQ+5g+Z43TJI7WKry4PYX0WIFXK5dWs4rk4gqdfCFuur6n+i/jh6qgNclHX2sJr03TbPfnae6jeu1cbM0sFxS43Itnj1T87fsrxP/53Ld8P3xGuB3y6kqlR9xpi6INKvu6hs1863JevnUo/X9/fdK0wAAAAAAXQQBCQAA6AbWa/Xn0/XRWx4NPGSizjjj6yoNfRGFOBxOebx+ebKWvPJ43epVO0wt9Z/psSsvUfmfb9R/HdJHfeSQ2+2Tu8SX82p9Bg6Vw9GgFy4/XzUlt+niY4dpH69LbpdXgeK9sa6WJG3Uwpnz9Nmn6zX82DEate9whXxmuSunXL6g9h2zv/YdOVTPvrdM8+Yt1qZDDlZFoFgVgeJth6UqVVrklVwphUqqVFNTk/NKbk9IZdXbk6CmpDYW++WUU96i8jbL5EtgwGm66EcX6fSjhyro3d4f3hr17lOrntULlE6nld4+GWTLiqWa98lcNQ4Yp7HjvrY9HJEkh1yeSg3cZ7QOOqhGby5o0PJVddL+PfPUKgAAAABAPrDEFgAA6PpatmjzmtVaG+ytfgccqoP6e768jCRveT+Nv+gh3TJpkDYsfkK/P32CDtlnhL72vZv02Pur2iw3+MIpeuC746WmqXrwgqP0zX0GaeTJV+qPLy5QUzTZZrndU6+1y9eroa5WtdW9VVnh2uEIV2UP9a3upb6plBKJhPbO4lednDugoqKQ/F57fzjkcjnldLeeg9K4sV4b1q/W2o+e083nHaxBAwZogPUzUPsdfZ5++8JKpTNppVI5dz4BAAAAAHRjBCQAAKDrS6eVTqWUdLrk9vrkce3afhIOp1tlg0brB/dN0axnbtYlB5er/LNPNe+ZO3TF2Udq7Lk36d2VO5ZzF/fU6bc9pQWv36efnThQA+rWaOVrD+rGC4/VQWf9VE/NbFA4sWO53ZNUKplSOuWSy+WSM9dvbU6XXE6nPLuyNlUBSqcySqdSSsWatWnDKq1YsaLVz8q1G7SpeY9vFAAAAACgi2KJLQAA0PWFilTas4eqGsNq/Hy9NsqhXrtY1Olyq7jXYO137AW6dtxp+kFjk+Yvel2Tb/ipXnjuHv1ParBeeexs9cvaISNQ2UsDDjldl408Qt//eURLVn2gv//6aj359mT95Od9VfPgRRpfW6Jdm8uSS5V69K5UacVOzrBlk9ZvbtDa0hr1qKpQ5S7t4lE4SstKVF7ZUz0POlAXXfYznXdwRc7jXL6gyip7dHDtAAAAAAD5RkACAAC6PmeJSir7qLb3Kk399BW9OvUk7Xd41a6Xdzjk9BWroqZY5dUZ9e7bQyM8q7Ts5Lu19I3Z+kznqF+ucp6QSnuEVNpD6tm/t0beul5rT79ZU9+ep2UtUX1NexKQ9FTP3lUqrVijd/7zgeYvmKAxh9baPt+q+TOma8YH8xXqMUI9a6qYGpylrKJSVT1q1LzKIZe/XEOHDs13lQAAAAAAnQj/jwYAAN1AsWpqh2q/g6q0Yf6reuDnP9Itj3+iem1baisabdTHM97QMw/9S/OsMgk11n+kybf+WHdNmam1a7e963Ck5XBt1NLP5muZwynnkN6qbnWtVXr85gv0m0ematnnSaW3b13h8TRqxfL5WpxIKDmwWj097j38JopLQycergn7DpF72l91zx/u1eMfrNFWSdIWrXznaT380NN6ZWk/HbDfYTpkXOUeXa07cvYbqFEjRmrE0n/rqXtv0C1PTNfSTebTFoXrZ+qdvz2g+/8uH3A4AAAgAElEQVT0pBbms6IAAAAAgLxgBgkAAOgGnCoZOlEnX3CjPl31S/31o5d05zVz9NhtQXkkpdNJRcIB9RryXd16wbHby6SVatmsz15+XA8sf1l/KSmS1+uQlFEmHVFj3XrFvQforEvP1eBW14pr07sv6/8WvKPHiork8znlcEhSTE0Na7Ry80B98yfnaGR5qbx72Cp/vyN01ndmafbye/TS6/fr6vnP6ZYSr9xKKba1QevXOTXq5Ev03z84RfuG8vFrXVrp1Pv63aFX6el4alscFavX0khSSf1T1x05W7d6XHJI2u+iP+u2741Wz2K3pNl66Lwb9diCVdqUyUiJRq3+bI1atFF3/+AMPV7ik1vS4FOv1/XfP0EH9A18tep5B2jiGd/TBUtX6Q9/e1F3Lp2lv5WFFHA7JKWVSoTVvLlcQydeoIMu31t9AgAAAADoKghIAABAt+D0FWvIxNN03R09Nfrpx/T4s+/qg9mLJUlFRT009pDv6LTvH679rBJelVXtp3Muu0Ib//KI3npjjmanJcktt2+MDjjtDF19zn/ppIlVWUFHH535019p9QN/1mvPzdW8eEpJSdIIjTjuXP3qt+fp9KNGqU+Ja893BHEXa/Cxl+oXoQEa+egzevL1DzV/WZ2kGlWPmKATrz5D555+jCYMLZVvT6/1FWUyW7T8w480W9o+X8fYpM8/tqZryLW+ScmUOaJF6xd9rPlzlqkubS8T19plW7R9Mo8iX6tXcyy1B7XzKdT/EJ191a/Va9Df9cQT/9S02Z9qkSSpXGV9x+mwM0/V+d85XcP34CoAAAAAgK7JkclkMl9+GAAA6C6am5v1yKOP6s0Zc3TRz3/dIdf8fPEneuPxybr8ogs18RvfaNdrpRJRNTfUad2GzWqMRCRJLpdXpWXVqqrpoYpiW9yRSSnVslkb1q/TpoawmjMZSQ45nCUq6Vmp3jU9VerPcZHYFm1Yt1ab6rdqayqzPRgoUqiqQr16Vasi6JJzL+6Xnoxs1aa6jdrQ0KiWeFyST75QmSpreqhHeZECbX3lJd6sjetX6bNNGfXo1V8Dq0NffrFUXOGGFfp4ZZNC1UM0qm/JTg/PZBq1csYSrUund3pcce1IDe1VLI/bIalJaz9epnUtUSV28ptoqOdADejdQ8V+p5TYojXLV6muxa/q/rXqWR6wfdMnqea6NVq9plGO8t7q3aeHim19kknFFd1Sr7r19drcFFU0I0keuf2lqqiuUnVlmUJ7Ot1nJ95++21de8ONuu7/HpLPH2y/C223tXGTnr7vbn3zwP118cUXt/v1AAAAAKCrYgYJAADoVlwev0pr+qm0Jue26q05XHIVVan3kCr1HrIbF/GVqnpAqaoHfNVa7h53oEQ9+5eoZ//dLOgtUlW/Earaha6wuLwK9txH43ru2uEOR5n6jxun3atasXrvO0a9d6eIp1S1+5SqNueHbhX17K/hbXSQw+VVoKJW/Stqd7OeAAAAAIDujE3aAQAAAAAAAABAwWEGCQAAQLtaoH9cfpumfLJ624bku6RW37zwUp1z6ngNaP8VmQAAAAAAKEgEJAAAAO2qUcs/mqZ3P1yqDeldDUj2UfVRZymcbNeKAQAAAABQ0AhIAAAA2tVInXX7X3RQY4tiuzyDJKTaYSPUl9kjAAAAAAC0GwISAACAdlWuQRMmalC+qwEAAAAAAFphk3YAAAAAAAAAAFBwmEECAADandfrVUNDgx588EG9/vrr+a4O0KFWrlgpl8cjyZHvqgAAAAAAbAhIAABAu6uortGhk07Rlo31anIxgRWFJdR/iCYdcZzcHm++qwIAAAAAsCEgAQAA7S4QLNKBE49ULBZVJp3Od3WADldUUiqXy5XvagAAAAAAbAhIAABAu0ulUlqxdIk2129QJp3Jd3WADtdn0GD1GTRETichCQAAAAB0FgQkAACg3W3csE7vv/yCQk6poqI839UBOlTDpk1a+NF0nffT6+T0EpAAAAAAQGdBQAIAANpduGmrwo2bdMyxR+mAAw7Id3WADjVr1iw9+OhjSqdT+a4KAAAAAMCGgAQAAHQIf8CvocOGaezYsfmuCtChmpub5XA48l0NAAAAAEAWZ74rAAAAAAAAAAAA0NEISAAAAAAAAAAAQMEhIAEAAAAAAAAAAAWHPUgAAAC6gc1L5+ntN/6lBZESHXTE0Tp0zCCFdusMSbXUf6p3//GMZsWGatJ/n6kxZe1UWQAAAAAAOgECEgAAgK4uulaf/Psp3XPz3fow0lsnbQ6q9z4DtW9odzYGT6qlYaneevCPejR8rPqdRUACAAAAAOjeWGILAACgy3NIToccDocy2/8EAAAAAAA7xwwSAACArs7fS6OOOEuXZcp1VLRYYw87RAN3a/YIAAAAAACFh4AEAACgGygbvK9OGryvTsp3RQAAAAAA6CIISAAAALqoxmUz9cG09zR/Xcz2bg8NHj1Bhx07XFVtlkwqsnWNFk+fqdmzl6k+k5HT61Q0Xqfp9Snt5u7uAAAAAAB0SQQkAAAAXVTDonf15N3XavJ0e0AySpMu+bmGtRmQhNWwYpZee/hxPfPGVL0/7ROty0hOn0+Oigql1kXVe5+OqT8AAAAAAPlEQAIAANBFlQ0co2O+/WOVTogpE6vX0lkf6v3pOyuR1NZ1H+v1P9+mW+58X/WDxuuwC45WTZGUTMZUt3aRZr83W+GOagAAAAAAAHlEQAIAANBFVY48XGePPFxnS9LmOXr6rpu0+KMlbReI1GnpO8/r3kena8v+J+mSy67Q+ZNGa0CZlEg0afHMZ3TnZ/P0KgkJAAAAAKAAEJAAAAAUiGTDWn06821NT/TWKaddpCvOGa2y7Z95PB71LKtQlVx5rSMAAAAAAB3Fme8KAAAAoGO0NDdp3ZqVKq0s1/ADRlnhCAAAAAAAhYiABAAAoEBEozFtadggn8+ryrLSfFcHAAAAAIC8IiABAAAoMIlkUi0tkax300olm9W0JZWXOgEAAAAA0NEISAAAAAqE2+1WIFiq5uawVq1ea/skpejWNfrkvTc1c1Uib/UDAAAAAKAjEZAAAAAUiFB5mfrtM0K+xvVaMvMtLd0UUSYVV3TdIk2f8pD+eMsjmp5iBgkAAAAAoDC4810BAAAAfBUtqlu8WAsXrlBDOiOFl2v6ojVqyWzV+s+n681n/FqijPzlvTV4xAEaVuOTv7KPRo47Ugf87SbNfv4O3VIjndDfq80LpurlKS9pTsmBGlO7WHX5bhoAAAAAAB2AgAQAAKBLWqtZz/5JN/zvI5qeSrf6ZP1rd2nWa3dJkqoPPEU//PV9+sXxNZK/Rv3Hnqjz/muqNjwxS09fe5EedrsV6NlLIyacpstOPUvB587TzfPy0R4AAAAAADoWAQkAAECXVKQeQ0br6yc2qEcy0+ZR5fscqKE9fdbr0gGjdNJVN6u832N65ZXPtSIQVM+xE3TCyefquKpmvbXqWB1ZMVJ9/B3RBgAAAAAA8oeABAAAoEvqpbHfulJjv3Xlbpbzq7TnBJ1w6QSdcGn2Z1U64boHdcJeqiEAAAAAAJ0Zm7QDAAAAAAAAAICCQ0ACAAAAAAAAAAAKDgEJAAAAAAAAAAAoOAQkAAAAAAAAAACg4BCQAAAAAAAAAACAguPOdwUAAEBhSCaTamho0Lp16/JdFaBDbdq0SVIm39UAAAAAAGQhIAEAAO3O7fEoFk/q+Rdf0vSZs/JdHaBDrVu3ToHiEjkcjnxXBQAAAABgQ0ACAADaXc/etTr4mEnauH6tmvJdGaCDFfUbrGMOO0YutzffVQEAAAAA2BCQAACAdufzBzXhqOPyXQ0AAAAAAAALm7QDAAAAAAAAAICCQ0ACAAAAAAAAAAAKDgEJAAAAAAAAAAAoOAQkAAAAAAAAAACg4BCQAAAAAAAAAACAgkNAAgAAAAAAAAAACo473xUAAAAFIJNWIpFQOpVSJt91AfLA7XbL7fHmuxoAAAAAABsCEgAA0O7C4RY9/+B9+nT+HGXS6XxXB+hQ6XRaE46dpKO+dbbcbkISAAAAAOgsCEgAAEC727B6lepWrdB3Tj1Fo0fvn+/qAB1qzpw5euzpZ3TEqWcSkAAAAABAJ0JAAgAAOkQwFNToMaM18RvfyHdVgA6VyWT0+DPP5bsaAAAAAIAsbNIOAAAAAAAAAAAKDgEJAAAAAAAAAAAoOAQkAAAAAAAAAACg4BCQAAAAAAAAAACAgkNAAgAAAAAAAAAACg4BCQAAAHZBSonIJ3rxzit0ysAz9dDyTL4rBAAAAADAHiEgAQAAwC5IKt7yif75q4c1tWGromlHvisEAAAAAMAeISABAADALsgok0ko2hRVPN9VAQAAAABgLyAgAQAAAAAAAAAABYeABAAAIM8WPHq1zpp4kn760DR93tKgxU//TjccNU7jBg3UsMPO0mWPTtPCrTkKNq7Q/Ofu0EWnTdTAgQM1cOBAjRt3jH71h0e0uGFj7otFGrT63b/pFxccY5XZb79x+uFVd2nmurU7Hvv0FduPG65RY3+sZ5VQrOVd3TBxgFXe/Fz3RlyJ1F7vHgAAAAAA2oU73xUAAAAodLHmjVq3Zq2CW2fp8T/er389+pLmLtuilnhSqdXrtXbRSoXX/1I/uXiSRpZsL7Riqp790x363WPva0Fjk5qjCUnSqlVr9enSufrntA908VU36ZKvV35xoY2LNOvvt+qa217WjMYt2tKybbEsp3OVlq/4TG9++IrOuOav+u3JNduOz6SVbKrT8uXLW1c4E9HGNSuUHcHUh9m4HQAAAADQdTCDBAAAoFNYpudvuUl33D5FG4adrGunvK4PFk7TX688USMy8/XPV1/X9Dmrtx+7Qu+88JTue/h1rSkfpwt/97w+WLRQCxfO0BsP/69OHOTXvFdf1ZMPP673rRRjoxbP/qfuuPVpzU1X69gfP6q3F36ihQtn6z+v3KcfjavU0hkz9PQfbteLZiKJv0K1p9+uhQsXauHCufpo2h90qtMjX+hQ/fK1hdvf/+Lnt0d45XZ1fM8BAAAAAPBVMIMEAACgU4iosW6LDr7gav3sh/+jI0f1VYnPqZGnH6f35szTnM9Wa+W6Bm1VH2XmfqB/TX1Ls3ofqe9ffp1+9p1xKivxyq20BvcbrLJgkRy33qC3Fn2gGQvO1qGHVSqyYqk+eHmK/uUarEMu/I3uuvwoVVUG5FFG6UFD1LO4l/SLs3Tvkrf0rw/X6cTTeklOlzylvTS8tJekqJrrF6gk45DDGVL14OEaPijffQYAAAAAwFfHDBIAAIBOYsBJV+vH//1DHbdff5X5PHLKpWC//hrSs0q90inFUymltEWfz5unBfOXq3rYvjpw/DhVlXi3f+vFKU+wXKPGjNbBY0eobsUKzZ6xQBvVovrVizXz3Y/lranVoUcepV6VAXkkSQ45vUXqO3S4jj/yULVsqdeHr3+odWK5LAAAAABA98YMEgAAgE6i7z77a1Dfvgp6bN9h6XGwzv/Nw5rU7FFFrxoVa53Wr16jDasqVHNkf9VUe3c4j6e8UrW1fdUvuVqRcEQpNatx0wotXxhQ6bghGjQgsEMZZzCoqiHDNDT9iSJNLUq0Z0MBAAAAAOgECEgAAAA6CY/HLacza4Kvu1g9+herh/VGUolEUsmER263V+5cv825XPJ4PPJbb6SVTsWViDnkdAbk9eQo43DI5fHJ73AqvneaAwAAAABAp8YSWwAAAF1KqcorK1RalSvl2K6lSZs2bdSaUFAVPSpVoaCCRdXq0XfH2SaWRFzhurVa5nGrpE+NauTY+1UHAAAAAKATISABAADoUipVWV2jqup6zf14pubOXZX1eYuWL5yrD6bOlrOsWDW11fKoSMWlfVTbr1mrV8/Rv6cuyioT0+YNS/T6lLeU8HnVb3A/7SRKAQAAAACgWyAgAQAA6FLcGvC1sRp3wAi5Zj2ryXffo0ffWaUtkqQW1c19Q0889Jie+bhEQwdN1OFfr5HkUlX/wZpw1ERVrPxQL93zG905ZbE2KiMpppY1s/Xqvffong+Sqqw4Rqef1C/ndV2uWvUdnlY8Nk9/ue15zVjbke0GAAAAAGDvYg8SAACALibQd4JOPPVUzVx4u555Y7J+tfQd/bk6JK+Sim3eoOXLmlQ57jRdcMU5OrBi21Jc7sohOvi4c3XOf+bqd/9+QXdcv0TP3lcqn9JKRjZr7ZK1ilYdostuuUpHV/tyXNUlX2CYzvr+UfrtNa9pwZPX6JJ5d6sy+MURk258RZeNd8vNV3AAAAAAAF0AAQkAAEBX4ynVwCO+pytc5ap9/Hm98OZHemf+BkkVquj3NX39uyfo7DNP0dEH9lLR9iIOV1A9Rh2l86+/Q6H+T+rZlz7Uu2/MkBRUsHx/jT3hYl1xxlk69egBKst5UYecvioNP/tm3dfUR888+Z5em/ZGqyP6X5ZSJsOvlwAAAACAroH/wQIAAOTZkOOv1G3Dvi1nr/01tGLXynhKe2vMN89U72HjdepFG7U5HJbkl7+4SjX9+6hfTaWKsyaCuILlGnDQJF3UZ5SO/k6dNjQ1SXLL46tUj361Gti3l8r8O7mo0yVP79H67g+v04Tj1uvyzZtbfdz/II9czB4BAAAAAHQRBCQAAAB5VtJ/f43vv/9ul/MEy1Q7tEy1Q3e9jNsbUFX/4arqP3y3rydJDqdTRdWDtH/1IO1+jQEAAAAA6Dz4jh8AAAAAAAAAACg4BCQAAAAAAAAAAKDgEJAAAAAAAAAAAICCQ0ACAAAAAAAAAAAKDgEJAAAAAAAAAAAoOO58VwAAABSGpqYmvf/++2rcvDnfVQE61IIFC5RKp/NdDQAAAABAFgISAADQ7krKK1QzYLAWrVij1Q1b8l0doEM1Nzdr1IHj5XS58l0VAAAAAIANAQkAAGh3pRUV+sakU9TS3JTvqgB5UVpeLreLX70BAAAAoDPhf2kAAKDdud1e9R28T76rAQAAAAAAYGGTdgAAAAAAAAAAUHAISAAAAAAAAAAAQMEhIAEAAAAAAAAAAAWHgAQAAAAAAAAAABQcAhIAAAAAAAAAAFBwCEgAAAAAAAAAAEDBISABAAAAAAAAAAAFh4AEAAAAAAAAAAAUHAISAAAAAAAAAABQcAhIAAAAAAAAAABAwSEgAQAAAAAAAAAABYeABAAAAAAAAAAAFBwCEgAAAAAAAAAAUHAISAAAAAAAAAAAQMFx57sCAAAAAAAAALC3pNNppdNpOZ1OOZ07/354JpORw+Fo83V7SaVSymQycrlccjgcSqVSrT53Op1t1iOdTiuTyez0mM7M3B/T9s4g13OQSqXkcDjkcDiUyWRaHW/eN3/vrDKZjNLptPU6uy3m77vyb6W7IiABAAAAAAAA0G2kUinFYjF5vV55vd6cx5gB8FQqJZ/Pt8Pr9haJRCRJgUBALpdL0WhULpfLGsz2+XxyuVw5651IJJRMJuX1euXxeNq9rntbOp1WOBxWKBTK2caOrosJq+zPSiqVUjgclt/vVzqdViKRaBUgOBwOK+BxuVx5b0dbUqmU4vF4q0AtlUpZAaL50+fzFWxAUpitBgAAAAAAANAtmbDD/s35XMfEYjElEgnrvVgspng83u71S6fTisfjrWYnxONxa2aFGbDfWd2/rH2dWTqdVjKZ3GkbO4p5DpLJZKv3ksmkdY/M37PLmXsQDoc7utq7xT7TxQRsZsaS0+nsVDN58oEZJAAAAAAAAAC6FRM+ZC8vZAaCzZJK9mPMbIBUKmXN5rAf39Y5zJJX9s/tSxmZb+mbcuZ6brdbTqfTGpx3OBxyOp2tyuWqey6ZTGany0DZj7G33bzf1uwBc077uc2xbbU/+1z2uuVqQ64ln76szbtaJrvN2cfYZ1aY+2SWpbIvO+V2uxUKhXaoQyKRUCQSUSgUatVuc45c19xZ/dvqO/s9y75/O+N2u+V2fxEBxONxOZ1OeTweBQKBHY7flefI3j775101ZCEgAQAAAAAAANBtmG/FmyWzzKC9w+GQ2+22lhkyg7zRaFRut7vVrIBgMGjNcjABgMvlss5tBrITiYRisVirJZccDoc8Ho8cDof1uVkOy+FwWIPU9nOY8qYO9mWRzDXbWsbJzHhIJBKt6mmfHZDrGHO9ZDKpYDCY87xmhkUqlbICHdM+aduAu5lpYW+/Wa7KzJZJpVJyOp1WP9uDl2Qyac2eMXWTZNUx1+C8ubfZ+7GYa+Rqs+kTez3Mc2D+NEtqJZNJ63592eC/PSAyr02f2Z8X86cJVrKfLemL0My00/SdfSmvWCwmn8/XKvjYG3I9e/ZnydQrmUwqFou1OkaSPB5Pl1ymq+vVGAAAAAAAAAB2wuwhYR+INoP50hfLPEWjUWuA3gz8mm/GJxIJNTU1KRKJWIPxJvAwwuGwNVhslsdqaWlpdY5oNGoNwJvAwT5Ybn8tbVvqKxKJtApospeBMkwI0NLSonA4bNXTDHSbwW7TH7mOiUajOfswk8koEomoqanJKpNOp9XS0mK1x95+c53m5mZr4D8Wi6mpqUnJZNIKNbI3pDf1j0QiVrnse9HW/Q2Hw1a/mPaYfksmk63abPoykUi0eg7i8bjVBnOeRCJhhTzZwY75MWXt9zKTySgajWrr1q2trplMJhWJRKxrJJNJ69nKflbMzJNYLKbm5mYlEgmr7+3P7N5k7l2u58jeX/Z+NzNZTODTEcvTtQdmkAAAAAAAAADoNszArsfjUUlJibV8UjQaVSwWk9/vl9frVSKRkM/nU0lJiTX4bH9twpWysjJrADyZTGrr1q3WRu5Op1OhUEg+n88a1LYvr+VyuRQMBq1ZDWagO/u11+uV0+m09iIJBALWEkgmlEgkEjlnDZhZBkVFRfL7/VaZaDSqeDwuj8ejRCKhRCJhHWMPdHbWj+FwWMFgUKFQyNqPwwyamxkDgUDA6o/s9jc3NysQCFjlTYBgZ4KE4uJiK5SIx+MKh8PyeDw5Z86YMqafTN1MKOZ2u62gpKioyKqfvV/MrB6z4X0oFGo1k8XMkjEzjqLRaKtl2ExYZq5v6tXU1KRgMKiioqJWM1nMc+NyuayAo6SkpNU9DYfD8vl81j039TKzfex75uxt8XhciURCoVBIfr/fej5jsZg1C8r0T1FRUavn0/Sref66EgISAAAAAAAAAN2KfZkr81rSTgOBbJlMRj6fz5rZYZZwMrMgXC6XNbMgmUzK5XLJ4/HI6/Va1zMD8+Z8yWSy1TJQ9uW1zGC62Tcie/+KXBuzm2/+u1wuK1yw19UEGmZPDVOfL1s6ygQo6XTaGiyXti0BVVxcbA3qu91uK1wye1uUlZVZ9U2lUlZ4ZK6bHXiYMML+vn1GRltM/2ffY1PG6XRawVP2JuxtbXJvPjPhjwnKwuGwdV+8Xq8V8pgwIbvPgsHgDm0299uc19TN3mYTzpgfE6jYj2mPvT7s+65k3y97OOjxeFRcXNxqaTRjd/5tdSYEJAAAAAAAAAC6nT0dSM7ecNy+0bcZRDezRkxAYgbs7QP39vOZ5bRMOGGWaLIPgmcHF/aB/7YCA/sSXfYyZsDevg/L7rDvPWFkBzFmWSv7huBmxkOuTdvt9WvrtaSdhiOmTK79SezLWJn+tjP9kev8JhCxz4RwOBzy+/0qLS21AhTDHh7ZN1DPvqb5zB4ofFmbs+9XR2yC3tZzZA9tzL4uZhaPPdzrighIAAAAAAAAACBLrqWdzLJDZkDYvkyTWZIrEolYy3hlDzCbwXf77AT7TALzfra29uIwZcw1sq9nyplBezNLYHf6wD7wbQICM3jv8/nk9Xqt9judTkUiEQWDQWsD71wD5x01mG5m1mSHGNKOfW3f/N0sr5XN9KMJCuLxeKtZQiYcs98Lw2y2vqtM2GTf66M92Wft2Otpf46SyaSam5ute+92u+Vyudp16a/2xibtAAAAAAAAAApKJpPZYXZE9owEMxBuBqbNEkmSrEHweDxuDRYXFRVZ+zRkb1wufbEEkVm+ybx2u92tAhL7YLh9Oahcszns5bMH+82yUmZJL7N3hj08yS5j35fELFFlXptyLS0t1mbiZs+RXO0375tlo+zX2d17lau+X8Ysh+XxeOT3++X3++XxeHaYBWLuu325slzhmP14M9MilUq1Wr7LtDl7E3WzHJWZbfFlHA5Hqz0/7H3QHkGJaZMJ0QzzPJh/L+Y5LC0ttfbeMcFKV8UMEgAAAAAAAADdWvbyVGZ2gxkAti+LZF6bwfJEImEdazbOtu8XYTZCNwPYZq8GadvAeCQSUSAQUCwWaxWG5FpeywxO2wOOaDRq7U2SvTdH9owG877ZcNvj8cjtdluBgNmTJFefZDIZxWIxxeNxBYNBa8kw0yZJSiQSikajrWZNmE3RTcCQSCSsfSzM7BrTZvu57NfNtVSWYYKpSCQit9stn8+Xc7mx7DKmX8z9NDN4otFoq2XOTP+bWTD2vWvaYkKndDptzZgxoYlpszl/Op1Wc3OzPB5PmzNTctXfBDAmlNtbIcTOlmnLfo7MRvRer9fqJ7/f3yq4MwFKV0VAAgAAAAAAAKBbybVMkPkWvHmdTqet/TMCgYD1OpVKKRQKWWGCGexOJBJKp9MqLS1tNQBvwggTMNg3uo7FYorFYvJ4PDssp2X2LbFvAm+uaQ9pUqmUtWSXnRmAN6GJmbVh6uz1eq3Nwk0QEw6HreuaZbDsfRSLxawAxfSfaYNpq8/ns9pn+swERqatZmaBaZOZQWFmIOTat8NeD7OMmZFIJKwlvHKVkb4Il+z9aZYxM383e6XYN1E3fWzuSTAY3KEuuWbu2NsXjUYVCoWs98y+NKb/JKmkpKRVUGTfp8beZvNjnplIJKJ0Oq1AIGAtu/VV2ZdcszPPkekv+99Nf9kDm3g8bvWXJGsZs91dwq0zICABAAAAAAAA0G243W6FQqFWMzNMaGFCBqfTaW2wbQ8QspfZMjMWYrGYAoFAq/QvW/UAAAP6SURBVG/SS1IwGLQG7zOZjIqLi1uFIPZ9GswSTybQMJ/ZB5QDgYA1+G++yW82Pzf18ng81uwOads3/wOBQKt9QILBYKuZEGbJJnvIkkqlrEDH9IkJB8z1/H6/3G634vG4MpmM1QfmvKFQyAqITB+b8MS03+VyWeXNzBOzubdps30zd7OPRygUstro9XqtvjL1MktW2e9VIBCwzmP6xQQNpv7mHtiPMQFQ9iwP+3OSzSynZZj7Zu6rPWwzgZFhwhT7uTwej4qKilr1QygUUigUso6LRCKtlgTbFfa6m7bnWkLM6XS26i/Tdvv9NuVNf5lnKrsvuhICEgAAAAAAAADdhtk7w84MQGcfFwgEWr1nXtv3eviypZF29rn9M/sxZpA/m32GQFuzBXK9b9qXqx72vUXsg+tmOa2ioiLrHNn9Zq63s5kL2cHLVymfLXvpsezyuc63s/u+s/tnZtPk0laf2D/PdR9N8NKWXGGCabOZ7WQCMnPPUqmUIpGIdZyZldMWe7iWfY2dteer9tfO+qkzIyABAAAAAAAAABsTInS15YJyMUsfRSIRa0kkM7AeCARyDvAjf7L3S5FkLU9mn1nT1NRkLd+Vi5kRtKfLcnV39A4AAAAAAAAAZCkqKuo2g8sej0clJSXWxtrSl88mQP44HA4Fg0H5/X7rntmXgZOk4uJiFRcX57mmXV/3+BcOAAAAAAAAAHtJV95ToS1mbw90HU6ns1vMYurM6F0AAAAAAAAAAFBwCEgAAAAAAAAAAEDBISABAAAAAAAAAAAFh4AEAAAAAAAAAAAUHAISAAAAAAAAAABQcNz5rgAAAMiPTDqtVDKR72oA2MtSyaQy6XS+qwEAAAAAnR4BCQAABSiVTGnxvNn6x9135bsqAPayaCKqz5d8IsfBX8t3VQAAAACgUyMgAQCgwPj9fh1xxOHauLE+31UB0C5C+vqI0zVhwvh8VwQAAAAAOjVHJpPJ5LsSAAAAAAAAAAAAHYlN2gEAAAAAAAAAQMEhIAEAAAAAAAAAAAWHgAQAAAAAAAAAABQcAhIAAAAAAAAAAFBwCEgAAAAAAAAAAEDBISABAAAAAAAAAAAFh4AEAAAAAAAAAAAUHAISAAAAAAAAAABQcAhIAAAAAAAAAABAwSEgAQAAAAAAAAAABYeABAAAAAAAAAAAFBwCEgAAAAAAAAAAUHAISAAAAAAAAAAAQMEhIAEAAAAAAAAAAAWHgAQAAAAAAAAAABQcAhIAAAAAAAAAAFBwCEgAAAAAAAAAAEDBISABAAAAAAAAAAAFh4AEAAAAAAAAAAAUHAISAAAAAAAAAABQcAhIAAAAAAAAAABAwSEgAQAAAAAAAAAABef/A0sPSzK20M3jAAAAAElFTkSuQmCC;" vertex="1" parent="1">
          <mxGeometry x="60" y="730" width="858" height="526.11" as="geometry" />
        </mxCell>
      </root>
    </mxGraphModel>
  </diagram>
</mxfile>
